M48
; DRILL file {KiCad 9.0.4} date 2025-09-17T13:52:34+0200
; FORMAT={-:-/ absolute / metric / decimal}
; #@! TF.CreationDate,2025-09-17T13:52:34+02:00
; #@! TF.GenerationSoftware,Kicad,Pcbnew,9.0.4
; #@! TF.FileFunction,Plated,1,4,PTH
FMAT,2
METRIC
; #@! TA.AperFunction,Plated,PTH,ViaDrill
T1C0.300
; #@! TA.AperFunction,Plated,PTH,ComponentDrill
T2C0.600
; #@! TA.AperFunction,Plated,PTH,ComponentDrill
T3C0.750
; #@! TA.AperFunction,Plated,PTH,ViaDrill
T4C2.000
; #@! TA.AperFunction,Plated,PTH,ComponentDrill
T5C4.300
%
G90
G05
T1
X115.2Y-90.7
X115.2Y-91.9
X115.2Y-93.1
X115.9Y-90.0
X115.9Y-93.8
X117.1Y-90.0
X117.1Y-93.8
X117.8Y-90.7
X117.8Y-91.9
X117.8Y-93.1
X122.401Y-87.05
X122.401Y-89.4
X123.301Y-88.2
X124.051Y-86.05
X124.7Y-88.15
X125.09Y-96.11
X125.45Y-98.65
X125.851Y-86.0
X126.45Y-96.8
X126.45Y-100.5
X127.0Y-88.25
X127.4Y-98.65
X127.651Y-86.0
X130.65Y-100.2
X131.55Y-99.4
X132.6Y-100.2
X133.65Y-99.4
X134.7Y-100.2
X135.75Y-99.4
X136.8Y-100.2
X137.85Y-99.4
X138.9Y-100.2
X139.95Y-99.4
X141.0Y-100.2
X142.05Y-99.4
X143.1Y-100.25
X143.95Y-99.6
X146.8Y-100.47
X146.8Y-101.15
X146.8Y-101.85
X147.7Y-100.47
X147.7Y-101.15
X147.7Y-101.85
X148.75Y-101.75
X149.45Y-93.95
X149.65Y-101.75
X150.65Y-100.03
X150.65Y-100.71
X150.65Y-101.41
X150.65Y-102.13
X150.65Y-102.83
X151.15Y-93.95
X151.3Y-97.7
X151.55Y-100.03
X151.55Y-100.71
X151.55Y-101.41
X151.55Y-102.13
X151.55Y-102.83
X151.912Y-96.361
X152.1Y-97.7
X152.9Y-97.7
X153.05Y-93.95
X153.849Y-96.411
X153.949Y-98.499
X153.949Y-101.949
X160.285Y-103.601
X163.25Y-97.1
X164.25Y-95.2
X164.25Y-98.85
X165.2Y-97.05
X168.201Y-95.387
X168.901Y-96.137
X169.701Y-95.387
X170.501Y-96.087
X171.301Y-95.387
X172.101Y-96.087
X172.901Y-95.387
X173.701Y-96.087
X174.501Y-95.337
X175.301Y-96.087
X176.101Y-95.337
X176.901Y-96.087
X177.701Y-95.337
X178.501Y-96.087
T2
X102.024Y-89.799
X102.024Y-99.9
X102.969Y-87.519
X102.969Y-92.079
X102.969Y-97.62
X102.969Y-102.18
X105.249Y-86.574
X105.249Y-93.024
X105.249Y-96.675
X105.249Y-103.125
X107.53Y-87.519
X107.53Y-92.079
X107.53Y-97.62
X107.53Y-102.18
X108.474Y-89.799
X108.474Y-99.9
X182.024Y-89.799
X182.024Y-99.899
X182.969Y-87.519
X182.969Y-92.079
X182.969Y-97.619
X182.969Y-102.179
X185.249Y-86.574
X185.249Y-93.024
X185.249Y-96.674
X185.249Y-103.124
X187.53Y-87.519
X187.53Y-92.079
X187.53Y-97.619
X187.53Y-102.179
X188.474Y-89.799
X188.474Y-99.899
T3
X141.349Y-110.599
X143.349Y-110.599
X145.349Y-110.599
X147.349Y-110.599
X149.349Y-110.599
X151.349Y-110.599
X153.349Y-110.599
X155.349Y-110.599
X160.849Y-110.599
X162.849Y-110.599
T4
X112.501Y-77.8
X112.501Y-82.8
X117.3Y-77.799
X117.3Y-82.799
X122.1Y-77.799
X127.1Y-77.799
X132.1Y-77.799
X132.1Y-82.799
X136.951Y-77.75
X136.951Y-82.75
T5
X105.249Y-89.799
X105.249Y-99.9
X185.249Y-89.799
X185.249Y-99.899
M30
