%TF.GenerationSoftware,KiCad,Pcbnew,9.0.4*%
%TF.CreationDate,2025-09-17T13:52:31+02:00*%
%TF.ProjectId,switching_psu,73776974-6368-4696-9e67-5f7073752e6b,rev?*%
%TF.SameCoordinates,Original*%
%TF.FileFunction,Legend,Bot*%
%TF.FilePolarity,Positive*%
%FSLAX46Y46*%
G04 Gerber Fmt 4.6, Leading zero omitted, Abs format (unit mm)*
G04 Created by KiCad (PCBNEW 9.0.4) date 2025-09-17 13:52:31*
%MOMM*%
%LPD*%
G01*
G04 APERTURE LIST*
%ADD10C,0.150000*%
%ADD11C,0.120000*%
G04 APERTURE END LIST*
D10*
X127359580Y-82919642D02*
X127407200Y-82872023D01*
X127407200Y-82872023D02*
X127454819Y-82729166D01*
X127454819Y-82729166D02*
X127454819Y-82633928D01*
X127454819Y-82633928D02*
X127407200Y-82491071D01*
X127407200Y-82491071D02*
X127311961Y-82395833D01*
X127311961Y-82395833D02*
X127216723Y-82348214D01*
X127216723Y-82348214D02*
X127026247Y-82300595D01*
X127026247Y-82300595D02*
X126883390Y-82300595D01*
X126883390Y-82300595D02*
X126692914Y-82348214D01*
X126692914Y-82348214D02*
X126597676Y-82395833D01*
X126597676Y-82395833D02*
X126502438Y-82491071D01*
X126502438Y-82491071D02*
X126454819Y-82633928D01*
X126454819Y-82633928D02*
X126454819Y-82729166D01*
X126454819Y-82729166D02*
X126502438Y-82872023D01*
X126502438Y-82872023D02*
X126550057Y-82919642D01*
X126550057Y-83300595D02*
X126502438Y-83348214D01*
X126502438Y-83348214D02*
X126454819Y-83443452D01*
X126454819Y-83443452D02*
X126454819Y-83681547D01*
X126454819Y-83681547D02*
X126502438Y-83776785D01*
X126502438Y-83776785D02*
X126550057Y-83824404D01*
X126550057Y-83824404D02*
X126645295Y-83872023D01*
X126645295Y-83872023D02*
X126740533Y-83872023D01*
X126740533Y-83872023D02*
X126883390Y-83824404D01*
X126883390Y-83824404D02*
X127454819Y-83252976D01*
X127454819Y-83252976D02*
X127454819Y-83872023D01*
X126550057Y-84252976D02*
X126502438Y-84300595D01*
X126502438Y-84300595D02*
X126454819Y-84395833D01*
X126454819Y-84395833D02*
X126454819Y-84633928D01*
X126454819Y-84633928D02*
X126502438Y-84729166D01*
X126502438Y-84729166D02*
X126550057Y-84776785D01*
X126550057Y-84776785D02*
X126645295Y-84824404D01*
X126645295Y-84824404D02*
X126740533Y-84824404D01*
X126740533Y-84824404D02*
X126883390Y-84776785D01*
X126883390Y-84776785D02*
X127454819Y-84205357D01*
X127454819Y-84205357D02*
X127454819Y-84824404D01*
X125059580Y-82919642D02*
X125107200Y-82872023D01*
X125107200Y-82872023D02*
X125154819Y-82729166D01*
X125154819Y-82729166D02*
X125154819Y-82633928D01*
X125154819Y-82633928D02*
X125107200Y-82491071D01*
X125107200Y-82491071D02*
X125011961Y-82395833D01*
X125011961Y-82395833D02*
X124916723Y-82348214D01*
X124916723Y-82348214D02*
X124726247Y-82300595D01*
X124726247Y-82300595D02*
X124583390Y-82300595D01*
X124583390Y-82300595D02*
X124392914Y-82348214D01*
X124392914Y-82348214D02*
X124297676Y-82395833D01*
X124297676Y-82395833D02*
X124202438Y-82491071D01*
X124202438Y-82491071D02*
X124154819Y-82633928D01*
X124154819Y-82633928D02*
X124154819Y-82729166D01*
X124154819Y-82729166D02*
X124202438Y-82872023D01*
X124202438Y-82872023D02*
X124250057Y-82919642D01*
X124250057Y-83300595D02*
X124202438Y-83348214D01*
X124202438Y-83348214D02*
X124154819Y-83443452D01*
X124154819Y-83443452D02*
X124154819Y-83681547D01*
X124154819Y-83681547D02*
X124202438Y-83776785D01*
X124202438Y-83776785D02*
X124250057Y-83824404D01*
X124250057Y-83824404D02*
X124345295Y-83872023D01*
X124345295Y-83872023D02*
X124440533Y-83872023D01*
X124440533Y-83872023D02*
X124583390Y-83824404D01*
X124583390Y-83824404D02*
X125154819Y-83252976D01*
X125154819Y-83252976D02*
X125154819Y-83872023D01*
X124154819Y-84205357D02*
X124154819Y-84824404D01*
X124154819Y-84824404D02*
X124535771Y-84491071D01*
X124535771Y-84491071D02*
X124535771Y-84633928D01*
X124535771Y-84633928D02*
X124583390Y-84729166D01*
X124583390Y-84729166D02*
X124631009Y-84776785D01*
X124631009Y-84776785D02*
X124726247Y-84824404D01*
X124726247Y-84824404D02*
X124964342Y-84824404D01*
X124964342Y-84824404D02*
X125059580Y-84776785D01*
X125059580Y-84776785D02*
X125107200Y-84729166D01*
X125107200Y-84729166D02*
X125154819Y-84633928D01*
X125154819Y-84633928D02*
X125154819Y-84348214D01*
X125154819Y-84348214D02*
X125107200Y-84252976D01*
X125107200Y-84252976D02*
X125059580Y-84205357D01*
D11*
%TO.C,C22*%
X126490000Y-87008767D02*
X126490000Y-86716233D01*
X127510000Y-87008767D02*
X127510000Y-86716233D01*
%TO.C,C23*%
X124190000Y-87008767D02*
X124190000Y-86716233D01*
X125210000Y-87008767D02*
X125210000Y-86716233D01*
%TD*%
M02*
