%TF.GenerationSoftware,KiCad,Pcbnew,9.0.4*%
%TF.CreationDate,2025-09-17T13:52:31+02:00*%
%TF.ProjectId,switching_psu,73776974-6368-4696-9e67-5f7073752e6b,rev?*%
%TF.SameCoordinates,Original*%
%TF.FileFunction,Paste,Top*%
%TF.FilePolarity,Positive*%
%FSLAX46Y46*%
G04 Gerber Fmt 4.6, Leading zero omitted, Abs format (unit mm)*
G04 Created by KiCad (PCBNEW 9.0.4) date 2025-09-17 13:52:31*
%MOMM*%
%LPD*%
G01*
G04 APERTURE LIST*
G04 Aperture macros list*
%AMRoundRect*
0 Rectangle with rounded corners*
0 $1 Rounding radius*
0 $2 $3 $4 $5 $6 $7 $8 $9 X,Y pos of 4 corners*
0 Add a 4 corners polygon primitive as box body*
4,1,4,$2,$3,$4,$5,$6,$7,$8,$9,$2,$3,0*
0 Add four circle primitives for the rounded corners*
1,1,$1+$1,$2,$3*
1,1,$1+$1,$4,$5*
1,1,$1+$1,$6,$7*
1,1,$1+$1,$8,$9*
0 Add four rect primitives between the rounded corners*
20,1,$1+$1,$2,$3,$4,$5,0*
20,1,$1+$1,$4,$5,$6,$7,0*
20,1,$1+$1,$6,$7,$8,$9,0*
20,1,$1+$1,$8,$9,$2,$3,0*%
G04 Aperture macros list end*
%ADD10C,0.000000*%
%ADD11RoundRect,0.237500X0.250000X0.237500X-0.250000X0.237500X-0.250000X-0.237500X0.250000X-0.237500X0*%
%ADD12RoundRect,0.237500X-0.300000X-0.237500X0.300000X-0.237500X0.300000X0.237500X-0.300000X0.237500X0*%
%ADD13RoundRect,0.237500X-0.237500X0.300000X-0.237500X-0.300000X0.237500X-0.300000X0.237500X0.300000X0*%
%ADD14RoundRect,0.250000X-0.550000X1.412500X-0.550000X-1.412500X0.550000X-1.412500X0.550000X1.412500X0*%
%ADD15RoundRect,0.250001X-0.462499X-0.624999X0.462499X-0.624999X0.462499X0.624999X-0.462499X0.624999X0*%
%ADD16RoundRect,0.250000X0.475000X-0.337500X0.475000X0.337500X-0.475000X0.337500X-0.475000X-0.337500X0*%
%ADD17R,0.508000X0.812800*%
%ADD18R,0.254000X0.812800*%
%ADD19R,0.812800X0.254000*%
%ADD20R,0.812800X0.304800*%
%ADD21R,0.812800X0.508000*%
%ADD22RoundRect,0.237500X0.237500X-0.300000X0.237500X0.300000X-0.237500X0.300000X-0.237500X-0.300000X0*%
%ADD23RoundRect,0.250000X0.550000X-1.412500X0.550000X1.412500X-0.550000X1.412500X-0.550000X-1.412500X0*%
%ADD24R,4.100000X6.000000*%
%ADD25RoundRect,0.375000X0.375000X-0.625000X0.375000X0.625000X-0.375000X0.625000X-0.375000X-0.625000X0*%
%ADD26RoundRect,0.500000X1.400000X-0.500000X1.400000X0.500000X-1.400000X0.500000X-1.400000X-0.500000X0*%
%ADD27RoundRect,0.237500X0.237500X-0.250000X0.237500X0.250000X-0.237500X0.250000X-0.237500X-0.250000X0*%
%ADD28RoundRect,0.250000X0.900000X-1.500000X0.900000X1.500000X-0.900000X1.500000X-0.900000X-1.500000X0*%
G04 APERTURE END LIST*
D10*
%TO.C,U1*%
G36*
X149102154Y-100314040D02*
G01*
X149914954Y-100314040D01*
X149914954Y-100923640D01*
X148848154Y-100923640D01*
X148848154Y-98520800D01*
X149102154Y-98520800D01*
X149102154Y-100314040D01*
G37*
G36*
X152002834Y-103181700D02*
G01*
X150224834Y-103181700D01*
X150224834Y-102153000D01*
X145342954Y-102153000D01*
X145342954Y-101645000D01*
X146099874Y-101645000D01*
X146099874Y-100682340D01*
X145342954Y-100682340D01*
X145342954Y-100174340D01*
X148144574Y-100174340D01*
X148144574Y-101322420D01*
X150224834Y-101322420D01*
X150224834Y-99676500D01*
X152002834Y-99676500D01*
X152002834Y-103181700D01*
G37*
G36*
X149625394Y-103179160D02*
G01*
X149109774Y-103179160D01*
X149109774Y-104337400D01*
X148601774Y-104337400D01*
X148601774Y-103616040D01*
X147857554Y-103616040D01*
X147857554Y-104337400D01*
X147349554Y-104337400D01*
X147349554Y-103616040D01*
X146607874Y-103616040D01*
X146607874Y-104337400D01*
X146099874Y-104337400D01*
X146099874Y-102810860D01*
X145342954Y-102810860D01*
X145342954Y-102506060D01*
X149625394Y-102506060D01*
X149625394Y-103179160D01*
G37*
G36*
X146356414Y-99226920D02*
G01*
X146602794Y-99226920D01*
X146602794Y-98520800D01*
X146856794Y-98520800D01*
X146856794Y-99226920D01*
X147103174Y-99226920D01*
X147103174Y-98520800D01*
X147357174Y-98520800D01*
X147357174Y-99226920D01*
X147603554Y-99226920D01*
X147603554Y-98520800D01*
X147857554Y-98520800D01*
X147857554Y-99226920D01*
X148101394Y-99226920D01*
X148101394Y-98520800D01*
X148355394Y-98520800D01*
X148355394Y-99780640D01*
X145342954Y-99780640D01*
X145342954Y-99475840D01*
X146102414Y-99475840D01*
X146102414Y-98520800D01*
X146356414Y-98520800D01*
X146356414Y-99226920D01*
G37*
%TD*%
D11*
%TO.C,R1*%
X138450000Y-95100000D03*
X140275000Y-95100000D03*
%TD*%
D12*
%TO.C,C10*%
X136825000Y-95100000D03*
X135100000Y-95100000D03*
%TD*%
D13*
%TO.C,C12*%
X175300000Y-95362500D03*
X175300000Y-93637500D03*
%TD*%
%TO.C,C18*%
X176900000Y-95362500D03*
X176900000Y-93637500D03*
%TD*%
%TO.C,C16*%
X168900000Y-95362500D03*
X168900000Y-93637500D03*
%TD*%
%TO.C,C14*%
X172100000Y-95362500D03*
X172100000Y-93637500D03*
%TD*%
%TO.C,C17*%
X178500000Y-95362500D03*
X178500000Y-93637500D03*
%TD*%
D14*
%TO.C,C11*%
X164249354Y-91962500D03*
X164249354Y-97037500D03*
%TD*%
D13*
%TO.C,C13*%
X173700000Y-95362500D03*
X173700000Y-93637500D03*
%TD*%
%TO.C,C15*%
X170500000Y-95362500D03*
X170500000Y-93637500D03*
%TD*%
D15*
%TO.C,F1*%
X116787500Y-101000000D03*
X113812500Y-101000000D03*
%TD*%
D16*
%TO.C,C4*%
X133649354Y-102236500D03*
X133649354Y-100161500D03*
%TD*%
D17*
%TO.C,U1*%
X146353874Y-103931000D03*
X147603554Y-103931000D03*
X148855774Y-103931000D03*
D18*
X149475534Y-103931000D03*
X149973374Y-103931000D03*
X150473754Y-103931000D03*
X150974134Y-103931000D03*
X151474514Y-103931000D03*
X151974894Y-103931000D03*
D19*
X152759754Y-103428080D03*
X152759754Y-102930240D03*
X152759754Y-102429860D03*
X152759754Y-101929480D03*
X152759754Y-101429100D03*
X152759754Y-100928720D03*
X152759754Y-100428340D03*
X152759754Y-99927960D03*
X152759754Y-99430120D03*
D18*
X151974894Y-98927200D03*
X151474514Y-98927200D03*
X150974134Y-98927200D03*
X150473754Y-98927200D03*
X149973374Y-98927200D03*
X149475534Y-98927200D03*
X148975154Y-98927200D03*
X148228394Y-98927200D03*
X147730554Y-98927200D03*
X147230174Y-98927200D03*
X146729794Y-98927200D03*
X146229414Y-98927200D03*
D20*
X145749354Y-99628240D03*
D21*
X145749354Y-100428340D03*
X145749354Y-101899000D03*
D20*
X145749354Y-102658460D03*
%TD*%
D16*
%TO.C,C6*%
X137849354Y-102236500D03*
X137849354Y-100161500D03*
%TD*%
%TO.C,C5*%
X135749354Y-102236500D03*
X135749354Y-100161500D03*
%TD*%
D11*
%TO.C,R5*%
X156874354Y-98399000D03*
X155049354Y-98399000D03*
%TD*%
%TO.C,R3*%
X156874354Y-101399000D03*
X155049354Y-101399000D03*
%TD*%
D12*
%TO.C,C1*%
X149192054Y-105730120D03*
X150917054Y-105730120D03*
%TD*%
D22*
%TO.C,C2*%
X143949354Y-102061500D03*
X143949354Y-100336500D03*
%TD*%
D13*
%TO.C,C19*%
X153049354Y-94636500D03*
X153049354Y-96361500D03*
%TD*%
D11*
%TO.C,R4*%
X156874354Y-99899000D03*
X155049354Y-99899000D03*
%TD*%
D23*
%TO.C,C9*%
X126449354Y-103736500D03*
X126449354Y-98661500D03*
%TD*%
D13*
%TO.C,C21*%
X149449354Y-94636500D03*
X149449354Y-96361500D03*
%TD*%
D16*
%TO.C,C8*%
X142039354Y-102236500D03*
X142039354Y-100161500D03*
%TD*%
D24*
%TO.C,L1*%
X147050000Y-84200000D03*
X156550000Y-84200000D03*
%TD*%
D25*
%TO.C,U3*%
X122400000Y-88212500D03*
X124700000Y-88212500D03*
D26*
X124700000Y-81912500D03*
D25*
X127000000Y-88212500D03*
%TD*%
D16*
%TO.C,C7*%
X139949354Y-102236500D03*
X139949354Y-100161500D03*
%TD*%
D13*
%TO.C,C20*%
X151149354Y-94636500D03*
X151149354Y-96361500D03*
%TD*%
D27*
%TO.C,R2*%
X154649354Y-96411500D03*
X154649354Y-94586500D03*
%TD*%
D16*
%TO.C,C3*%
X131549354Y-102236500D03*
X131549354Y-100161500D03*
%TD*%
D28*
%TO.C,D1*%
X116500000Y-97300000D03*
X116500000Y-91900000D03*
%TD*%
M02*
