%TF.GenerationSoftware,KiCad,Pcbnew,9.0.4*%
%TF.CreationDate,2025-09-17T13:52:30+02:00*%
%TF.ProjectId,switching_psu,73776974-6368-4696-9e67-5f7073752e6b,rev?*%
%TF.SameCoordinates,Original*%
%TF.FileFunction,Copper,L1,Top*%
%TF.FilePolarity,Positive*%
%FSLAX46Y46*%
G04 Gerber Fmt 4.6, Leading zero omitted, Abs format (unit mm)*
G04 Created by KiCad (PCBNEW 9.0.4) date 2025-09-17 13:52:30*
%MOMM*%
%LPD*%
G01*
G04 APERTURE LIST*
G04 Aperture macros list*
%AMRoundRect*
0 Rectangle with rounded corners*
0 $1 Rounding radius*
0 $2 $3 $4 $5 $6 $7 $8 $9 X,Y pos of 4 corners*
0 Add a 4 corners polygon primitive as box body*
4,1,4,$2,$3,$4,$5,$6,$7,$8,$9,$2,$3,0*
0 Add four circle primitives for the rounded corners*
1,1,$1+$1,$2,$3*
1,1,$1+$1,$4,$5*
1,1,$1+$1,$6,$7*
1,1,$1+$1,$8,$9*
0 Add four rect primitives between the rounded corners*
20,1,$1+$1,$2,$3,$4,$5,0*
20,1,$1+$1,$4,$5,$6,$7,0*
20,1,$1+$1,$6,$7,$8,$9,0*
20,1,$1+$1,$8,$9,$2,$3,0*%
%AMFreePoly0*
4,1,23,0.000000,0.745722,0.065263,0.745722,0.191342,0.711940,0.304381,0.646677,0.396677,0.554381,0.461940,0.441342,0.495722,0.315263,0.495722,0.250000,0.500000,0.250000,0.500000,-0.250000,0.495722,-0.250000,0.495722,-0.315263,0.461940,-0.441342,0.396677,-0.554381,0.304381,-0.646677,0.191342,-0.711940,0.065263,-0.745722,0.000000,-0.745722,0.000000,-0.750000,-0.550000,-0.750000,
-0.550000,0.750000,0.000000,0.750000,0.000000,0.745722,0.000000,0.745722,$1*%
%AMFreePoly1*
4,1,23,0.550000,-0.750000,0.000000,-0.750000,0.000000,-0.745722,-0.065263,-0.745722,-0.191342,-0.711940,-0.304381,-0.646677,-0.396677,-0.554381,-0.461940,-0.441342,-0.495722,-0.315263,-0.495722,-0.250000,-0.500000,-0.250000,-0.500000,0.250000,-0.495722,0.250000,-0.495722,0.315263,-0.461940,0.441342,-0.396677,0.554381,-0.304381,0.646677,-0.191342,0.711940,-0.065263,0.745722,0.000000,0.745722,
0.000000,0.750000,0.550000,0.750000,0.550000,-0.750000,0.550000,-0.750000,$1*%
G04 Aperture macros list end*
%TA.AperFunction,EtchedComponent*%
%ADD10C,0.000000*%
%TD*%
%TA.AperFunction,SMDPad,CuDef*%
%ADD11RoundRect,0.237500X0.250000X0.237500X-0.250000X0.237500X-0.250000X-0.237500X0.250000X-0.237500X0*%
%TD*%
%TA.AperFunction,SMDPad,CuDef*%
%ADD12RoundRect,0.237500X-0.300000X-0.237500X0.300000X-0.237500X0.300000X0.237500X-0.300000X0.237500X0*%
%TD*%
%TA.AperFunction,SMDPad,CuDef*%
%ADD13RoundRect,0.237500X-0.237500X0.300000X-0.237500X-0.300000X0.237500X-0.300000X0.237500X0.300000X0*%
%TD*%
%TA.AperFunction,SMDPad,CuDef*%
%ADD14RoundRect,0.250000X-0.550000X1.412500X-0.550000X-1.412500X0.550000X-1.412500X0.550000X1.412500X0*%
%TD*%
%TA.AperFunction,SMDPad,CuDef*%
%ADD15FreePoly0,270.000000*%
%TD*%
%TA.AperFunction,SMDPad,CuDef*%
%ADD16R,1.500000X1.000000*%
%TD*%
%TA.AperFunction,SMDPad,CuDef*%
%ADD17FreePoly1,270.000000*%
%TD*%
%TA.AperFunction,SMDPad,CuDef*%
%ADD18RoundRect,0.250001X-0.462499X-0.624999X0.462499X-0.624999X0.462499X0.624999X-0.462499X0.624999X0*%
%TD*%
%TA.AperFunction,SMDPad,CuDef*%
%ADD19RoundRect,0.250000X0.475000X-0.337500X0.475000X0.337500X-0.475000X0.337500X-0.475000X-0.337500X0*%
%TD*%
%TA.AperFunction,SMDPad,CuDef*%
%ADD20R,0.508000X0.812800*%
%TD*%
%TA.AperFunction,SMDPad,CuDef*%
%ADD21R,0.254000X0.812800*%
%TD*%
%TA.AperFunction,SMDPad,CuDef*%
%ADD22R,0.812800X0.254000*%
%TD*%
%TA.AperFunction,SMDPad,CuDef*%
%ADD23R,0.812800X0.304800*%
%TD*%
%TA.AperFunction,SMDPad,CuDef*%
%ADD24R,0.812800X0.508000*%
%TD*%
%TA.AperFunction,ComponentPad*%
%ADD25C,0.900000*%
%TD*%
%TA.AperFunction,ComponentPad*%
%ADD26C,8.600000*%
%TD*%
%TA.AperFunction,SMDPad,CuDef*%
%ADD27RoundRect,0.237500X0.237500X-0.300000X0.237500X0.300000X-0.237500X0.300000X-0.237500X-0.300000X0*%
%TD*%
%TA.AperFunction,SMDPad,CuDef*%
%ADD28RoundRect,0.250000X0.550000X-1.412500X0.550000X1.412500X-0.550000X1.412500X-0.550000X-1.412500X0*%
%TD*%
%TA.AperFunction,SMDPad,CuDef*%
%ADD29R,4.100000X6.000000*%
%TD*%
%TA.AperFunction,SMDPad,CuDef*%
%ADD30RoundRect,0.375000X0.375000X-0.625000X0.375000X0.625000X-0.375000X0.625000X-0.375000X-0.625000X0*%
%TD*%
%TA.AperFunction,SMDPad,CuDef*%
%ADD31RoundRect,0.500000X1.400000X-0.500000X1.400000X0.500000X-1.400000X0.500000X-1.400000X-0.500000X0*%
%TD*%
%TA.AperFunction,ComponentPad*%
%ADD32RoundRect,0.250000X-0.350000X-0.625000X0.350000X-0.625000X0.350000X0.625000X-0.350000X0.625000X0*%
%TD*%
%TA.AperFunction,ComponentPad*%
%ADD33O,1.200000X1.750000*%
%TD*%
%TA.AperFunction,SMDPad,CuDef*%
%ADD34RoundRect,0.237500X0.237500X-0.250000X0.237500X0.250000X-0.237500X0.250000X-0.237500X-0.250000X0*%
%TD*%
%TA.AperFunction,SMDPad,CuDef*%
%ADD35RoundRect,0.250000X0.900000X-1.500000X0.900000X1.500000X-0.900000X1.500000X-0.900000X-1.500000X0*%
%TD*%
%TA.AperFunction,ViaPad*%
%ADD36C,0.600000*%
%TD*%
%TA.AperFunction,ViaPad*%
%ADD37C,4.000000*%
%TD*%
%TA.AperFunction,Conductor*%
%ADD38C,0.200000*%
%TD*%
%TA.AperFunction,Conductor*%
%ADD39C,0.100000*%
%TD*%
G04 APERTURE END LIST*
D10*
%TA.AperFunction,EtchedComponent*%
%TO.C,G\u002A\u002A\u002A*%
G36*
X127799466Y-109207490D02*
G01*
X127997501Y-109405879D01*
X127802830Y-109600551D01*
X127608159Y-109795222D01*
X127494908Y-109682560D01*
X127381658Y-109569898D01*
X126535032Y-109569898D01*
X125688405Y-109569898D01*
X125560765Y-109641707D01*
X125433125Y-109713517D01*
X125433122Y-110337041D01*
X125433118Y-110960566D01*
X125961153Y-111265380D01*
X126071360Y-111328827D01*
X126174769Y-111388035D01*
X126268875Y-111441592D01*
X126351171Y-111488086D01*
X126419149Y-111526105D01*
X126470303Y-111554237D01*
X126502127Y-111571071D01*
X126511692Y-111575411D01*
X126527875Y-111569826D01*
X126565148Y-111551753D01*
X126621010Y-111522558D01*
X126692961Y-111483606D01*
X126778504Y-111436263D01*
X126875136Y-111381893D01*
X126980360Y-111321863D01*
X127060797Y-111275462D01*
X127587399Y-110970296D01*
X127591418Y-110871928D01*
X127595437Y-110773560D01*
X127464897Y-110773560D01*
X127334357Y-110773560D01*
X127334357Y-110554712D01*
X127334357Y-110335864D01*
X127744696Y-110335864D01*
X128155035Y-110335864D01*
X128154777Y-110811174D01*
X128154520Y-111286484D01*
X127347629Y-111751535D01*
X127211215Y-111830065D01*
X127081563Y-111904523D01*
X126960649Y-111973788D01*
X126850446Y-112036735D01*
X126752929Y-112092242D01*
X126670074Y-112139187D01*
X126603854Y-112176446D01*
X126556245Y-112202898D01*
X126529221Y-112217419D01*
X126523789Y-112219927D01*
X126509379Y-112213809D01*
X126473286Y-112195045D01*
X126417476Y-112164738D01*
X126343915Y-112123993D01*
X126254569Y-112073916D01*
X126151404Y-112015610D01*
X126036384Y-111950181D01*
X125911476Y-111878734D01*
X125778646Y-111802373D01*
X125696340Y-111754876D01*
X124885840Y-111286484D01*
X124889339Y-110335940D01*
X124892838Y-109385397D01*
X125214270Y-109198311D01*
X125535703Y-109011225D01*
X126568567Y-109010163D01*
X127601431Y-109009101D01*
X127799466Y-109207490D01*
G37*
%TD.AperFunction*%
%TA.AperFunction,EtchedComponent*%
G36*
X126560689Y-107214646D02*
G01*
X126577924Y-107224621D01*
X126617289Y-107247366D01*
X126677219Y-107281977D01*
X126756149Y-107327551D01*
X126852514Y-107383184D01*
X126964751Y-107447974D01*
X127091293Y-107521017D01*
X127230577Y-107601410D01*
X127381037Y-107688250D01*
X127541109Y-107780634D01*
X127709229Y-107877658D01*
X127883832Y-107978419D01*
X127925986Y-108002746D01*
X129249388Y-108766445D01*
X129245911Y-110339776D01*
X129242434Y-111913106D01*
X127883963Y-112697452D01*
X127706525Y-112799849D01*
X127535687Y-112898336D01*
X127372944Y-112992057D01*
X127219789Y-113080156D01*
X127077715Y-113161778D01*
X126948217Y-113236067D01*
X126832786Y-113302167D01*
X126732918Y-113359222D01*
X126650106Y-113406378D01*
X126585842Y-113442778D01*
X126541621Y-113467566D01*
X126518935Y-113479887D01*
X126516166Y-113481138D01*
X126503338Y-113474341D01*
X126468331Y-113454697D01*
X126412640Y-113423066D01*
X126337760Y-113380307D01*
X126245187Y-113327281D01*
X126136416Y-113264845D01*
X126012943Y-113193859D01*
X125876262Y-113115183D01*
X125727870Y-113029676D01*
X125569261Y-112938198D01*
X125401932Y-112841607D01*
X125227376Y-112740764D01*
X125152720Y-112697609D01*
X123798600Y-111914741D01*
X123798600Y-110337716D01*
X123798600Y-109082770D01*
X124352417Y-109082770D01*
X124355907Y-110339871D01*
X124359397Y-111596971D01*
X125433118Y-112217479D01*
X125590580Y-112308418D01*
X125741311Y-112395356D01*
X125883626Y-112477327D01*
X126015839Y-112553365D01*
X126136266Y-112622506D01*
X126243222Y-112683783D01*
X126335021Y-112736232D01*
X126409978Y-112778888D01*
X126466409Y-112810784D01*
X126502627Y-112830955D01*
X126516949Y-112838436D01*
X126517067Y-112838461D01*
X126530148Y-112831840D01*
X126565226Y-112812479D01*
X126620621Y-112781336D01*
X126694654Y-112739373D01*
X126785645Y-112687548D01*
X126891912Y-112626823D01*
X127011778Y-112558157D01*
X127143560Y-112482511D01*
X127285581Y-112400844D01*
X127436158Y-112314117D01*
X127593613Y-112223290D01*
X127607886Y-112215050D01*
X128688476Y-111591167D01*
X128688470Y-110337748D01*
X128688463Y-109084330D01*
X127613065Y-108463601D01*
X127455329Y-108372633D01*
X127304225Y-108285642D01*
X127161449Y-108203597D01*
X127028696Y-108127463D01*
X126907660Y-108058209D01*
X126800036Y-107996800D01*
X126707519Y-107944204D01*
X126631804Y-107901388D01*
X126574586Y-107869319D01*
X126537560Y-107848963D01*
X126522420Y-107841288D01*
X126522253Y-107841253D01*
X126508401Y-107847707D01*
X126472570Y-107866911D01*
X126416453Y-107897905D01*
X126341741Y-107939727D01*
X126250130Y-107991418D01*
X126143311Y-108052018D01*
X126022976Y-108120565D01*
X125890820Y-108196098D01*
X125748535Y-108277659D01*
X125597813Y-108364285D01*
X125440348Y-108455017D01*
X125429628Y-108461202D01*
X124352417Y-109082770D01*
X123798600Y-109082770D01*
X123798600Y-108760692D01*
X125158696Y-107975469D01*
X126518792Y-107190246D01*
X126560689Y-107214646D01*
G37*
%TD.AperFunction*%
%TA.AperFunction,EtchedComponent*%
%TO.C,U1*%
G36*
X149102154Y-100314040D02*
G01*
X149914954Y-100314040D01*
X149914954Y-100923640D01*
X148848154Y-100923640D01*
X148848154Y-98520800D01*
X149102154Y-98520800D01*
X149102154Y-100314040D01*
G37*
%TD.AperFunction*%
%TD*%
D11*
%TO.P,R1,2*%
%TO.N,Net-(C10-Pad2)*%
X138450000Y-95100000D03*
%TO.P,R1,1*%
%TO.N,Net-(L1-Pad1)*%
X140275000Y-95100000D03*
%TD*%
D12*
%TO.P,C10,2*%
%TO.N,Net-(C10-Pad2)*%
X136825000Y-95100000D03*
%TO.P,C10,1*%
%TO.N,GND*%
X135100000Y-95100000D03*
%TD*%
D13*
%TO.P,C12,2*%
%TO.N,GND*%
X175300000Y-95362500D03*
%TO.P,C12,1*%
%TO.N,Vout*%
X175300000Y-93637500D03*
%TD*%
%TO.P,C18,2*%
%TO.N,GND*%
X176900000Y-95362500D03*
%TO.P,C18,1*%
%TO.N,Vout*%
X176900000Y-93637500D03*
%TD*%
%TO.P,C16,2*%
%TO.N,GND*%
X168900000Y-95362500D03*
%TO.P,C16,1*%
%TO.N,Vout*%
X168900000Y-93637500D03*
%TD*%
%TO.P,C14,2*%
%TO.N,GND*%
X172100000Y-95362500D03*
%TO.P,C14,1*%
%TO.N,Vout*%
X172100000Y-93637500D03*
%TD*%
%TO.P,C17,2*%
%TO.N,GND*%
X178500000Y-95362500D03*
%TO.P,C17,1*%
%TO.N,Vout*%
X178500000Y-93637500D03*
%TD*%
D14*
%TO.P,C11,1*%
%TO.N,Vout*%
X164249354Y-91962500D03*
%TO.P,C11,2*%
%TO.N,GND*%
X164249354Y-97037500D03*
%TD*%
D13*
%TO.P,C13,2*%
%TO.N,GND*%
X173700000Y-95362500D03*
%TO.P,C13,1*%
%TO.N,Vout*%
X173700000Y-93637500D03*
%TD*%
%TO.P,C15,2*%
%TO.N,GND*%
X170500000Y-95362500D03*
%TO.P,C15,1*%
%TO.N,Vout*%
X170500000Y-93637500D03*
%TD*%
D15*
%TO.P,JP1,3,B*%
%TO.N,Net-(J2-Pin_1)*%
X160285000Y-106201000D03*
D16*
%TO.P,JP1,2,C*%
%TO.N,Net-(JP1-C)*%
X160285000Y-104901000D03*
D17*
%TO.P,JP1,1,A*%
%TO.N,GND*%
X160285000Y-103601000D03*
%TD*%
D15*
%TO.P,JP2,3,B*%
%TO.N,Net-(J2-Pin_2)*%
X163242500Y-106200000D03*
D16*
%TO.P,JP2,2,C*%
%TO.N,Net-(JP2-C)*%
X163242500Y-104900000D03*
D17*
%TO.P,JP2,1,A*%
%TO.N,Vout*%
X163242500Y-103600000D03*
%TD*%
D18*
%TO.P,F1,2*%
%TO.N,Vin*%
X116787500Y-101000000D03*
%TO.P,F1,1*%
%TO.N,Net-(F1-Pad1)*%
X113812500Y-101000000D03*
%TD*%
D19*
%TO.P,C4,1*%
%TO.N,Vin*%
X133649354Y-102236500D03*
%TO.P,C4,2*%
%TO.N,GND*%
X133649354Y-100161500D03*
%TD*%
D20*
%TO.P,U1,1,PVIN*%
%TO.N,Vin*%
X146353874Y-103931000D03*
%TO.P,U1,2,PVIN*%
X147603554Y-103931000D03*
%TO.P,U1,3,PVIN*%
X148855774Y-103931000D03*
D21*
%TO.P,U1,4,PH*%
%TO.N,Net-(U1-PH)*%
X149475534Y-103931000D03*
%TO.P,U1,5,GH*%
%TO.N,unconnected-(U1-GH-Pad5)*%
X149973374Y-103931000D03*
%TO.P,U1,6,BOOT*%
%TO.N,Net-(U1-BOOT)*%
X150473754Y-103931000D03*
%TO.P,U1,7,AGND*%
%TO.N,GND*%
X150974134Y-103931000D03*
%TO.P,U1,8,NC*%
%TO.N,unconnected-(U1-NC-Pad8)*%
X151474514Y-103931000D03*
%TO.P,U1,9,NC*%
%TO.N,unconnected-(U1-NC-Pad9)*%
X151974894Y-103931000D03*
D22*
%TO.P,U1,10,NC*%
%TO.N,unconnected-(U1-NC-Pad10)*%
X152759754Y-103428080D03*
%TO.P,U1,11,VSEN-*%
%TO.N,Net-(JP1-C)*%
X152759754Y-102930240D03*
%TO.P,U1,12,VSEN+*%
%TO.N,Net-(JP2-C)*%
X152759754Y-102429860D03*
%TO.P,U1,13,PGOOD*%
%TO.N,Pgood*%
X152759754Y-101929480D03*
%TO.P,U1,14,ADDR*%
%TO.N,Net-(U1-ADDR)*%
X152759754Y-101429100D03*
%TO.P,U1,15,VSET*%
%TO.N,Net-(U1-VSET)*%
X152759754Y-100928720D03*
%TO.P,U1,16,AGND*%
%TO.N,GND*%
X152759754Y-100428340D03*
%TO.P,U1,17,RT/SYNC*%
%TO.N,Net-(U1-RT{slash}SYNC)*%
X152759754Y-99927960D03*
%TO.P,U1,18,SALRT*%
%TO.N,SALRT*%
X152759754Y-99430120D03*
D21*
%TO.P,U1,19,SDA*%
%TO.N,SDA*%
X151974894Y-98927200D03*
%TO.P,U1,20,SCL*%
%TO.N,SCL*%
X151474514Y-98927200D03*
%TO.P,U1,21,EN*%
%TO.N,EN*%
X150974134Y-98927200D03*
%TO.P,U1,22,VDD*%
%TO.N,+5V*%
X150473754Y-98927200D03*
%TO.P,U1,23,VIN*%
%TO.N,Vin*%
X149973374Y-98927200D03*
%TO.P,U1,24,PVCC*%
%TO.N,Net-(U1-PVCC)*%
X149475534Y-98927200D03*
%TO.P,U1,25,GL*%
%TO.N,unconnected-(U1-GL-Pad25)*%
X148975154Y-98927200D03*
%TO.P,U1,26,SW*%
%TO.N,Net-(L1-Pad1)*%
X148228394Y-98927200D03*
%TO.P,U1,27,SW*%
X147730554Y-98927200D03*
%TO.P,U1,28,SW*%
X147230174Y-98927200D03*
%TO.P,U1,29,SW*%
X146729794Y-98927200D03*
%TO.P,U1,30,SW*%
X146229414Y-98927200D03*
D23*
%TO.P,U1,31,SW*%
X145749354Y-99628240D03*
D24*
%TO.P,U1,32,PGND*%
%TO.N,GND*%
X145749354Y-100428340D03*
%TO.P,U1,33,PGND*%
X145749354Y-101899000D03*
D23*
%TO.P,U1,34,PVIN*%
%TO.N,Vin*%
X145749354Y-102658460D03*
%TD*%
D19*
%TO.P,C6,1*%
%TO.N,Vin*%
X137849354Y-102236500D03*
%TO.P,C6,2*%
%TO.N,GND*%
X137849354Y-100161500D03*
%TD*%
%TO.P,C5,1*%
%TO.N,Vin*%
X135749354Y-102236500D03*
%TO.P,C5,2*%
%TO.N,GND*%
X135749354Y-100161500D03*
%TD*%
D11*
%TO.P,R5,1*%
%TO.N,GND*%
X156874354Y-98399000D03*
%TO.P,R5,2*%
%TO.N,Net-(U1-RT{slash}SYNC)*%
X155049354Y-98399000D03*
%TD*%
D25*
%TO.P,H1,1,1*%
%TO.N,Net-(F1-Pad1)*%
X102024354Y-99900000D03*
X102968935Y-97619581D03*
X102968935Y-102180419D03*
X105249354Y-96675000D03*
D26*
X105249354Y-99900000D03*
D25*
X105249354Y-103125000D03*
X107529773Y-97619581D03*
X107529773Y-102180419D03*
X108474354Y-99900000D03*
%TD*%
%TO.P,H3,1,1*%
%TO.N,Vout*%
X182024354Y-89799000D03*
X182968935Y-87518581D03*
X182968935Y-92079419D03*
X185249354Y-86574000D03*
D26*
X185249354Y-89799000D03*
D25*
X185249354Y-93024000D03*
X187529773Y-87518581D03*
X187529773Y-92079419D03*
X188474354Y-89799000D03*
%TD*%
D11*
%TO.P,R3,1*%
%TO.N,GND*%
X156874354Y-101399000D03*
%TO.P,R3,2*%
%TO.N,Net-(U1-ADDR)*%
X155049354Y-101399000D03*
%TD*%
D25*
%TO.P,H4,1,1*%
%TO.N,GND*%
X182024354Y-99899000D03*
X182968935Y-97618581D03*
X182968935Y-102179419D03*
X185249354Y-96674000D03*
D26*
X185249354Y-99899000D03*
D25*
X185249354Y-103124000D03*
X187529773Y-97618581D03*
X187529773Y-102179419D03*
X188474354Y-99899000D03*
%TD*%
D12*
%TO.P,C1,1*%
%TO.N,Net-(U1-PH)*%
X149192054Y-105730120D03*
%TO.P,C1,2*%
%TO.N,Net-(U1-BOOT)*%
X150917054Y-105730120D03*
%TD*%
D27*
%TO.P,C2,1*%
%TO.N,Vin*%
X143949354Y-102061500D03*
%TO.P,C2,2*%
%TO.N,GND*%
X143949354Y-100336500D03*
%TD*%
D13*
%TO.P,C19,1*%
%TO.N,GND*%
X153049354Y-94636500D03*
%TO.P,C19,2*%
%TO.N,+5V*%
X153049354Y-96361500D03*
%TD*%
D11*
%TO.P,R4,1*%
%TO.N,GND*%
X156874354Y-99899000D03*
%TO.P,R4,2*%
%TO.N,Net-(U1-VSET)*%
X155049354Y-99899000D03*
%TD*%
D28*
%TO.P,C9,1*%
%TO.N,Vin*%
X126449354Y-103736500D03*
%TO.P,C9,2*%
%TO.N,GND*%
X126449354Y-98661500D03*
%TD*%
D25*
%TO.P,H2,1,1*%
%TO.N,GND*%
X102024354Y-89799000D03*
X102968935Y-87518581D03*
X102968935Y-92079419D03*
X105249354Y-86574000D03*
D26*
X105249354Y-89799000D03*
D25*
X105249354Y-93024000D03*
X107529773Y-87518581D03*
X107529773Y-92079419D03*
X108474354Y-89799000D03*
%TD*%
D13*
%TO.P,C21,1*%
%TO.N,GND*%
X149449354Y-94636500D03*
%TO.P,C21,2*%
%TO.N,Net-(U1-PVCC)*%
X149449354Y-96361500D03*
%TD*%
D19*
%TO.P,C8,1*%
%TO.N,Vin*%
X142039354Y-102236500D03*
%TO.P,C8,2*%
%TO.N,GND*%
X142039354Y-100161500D03*
%TD*%
D29*
%TO.P,L1,1*%
%TO.N,Net-(L1-Pad1)*%
X147050000Y-84200000D03*
%TO.P,L1,2*%
%TO.N,Vout*%
X156550000Y-84200000D03*
%TD*%
D30*
%TO.P,U3,1,GND*%
%TO.N,GND*%
X122400000Y-88212500D03*
%TO.P,U3,2,VO*%
%TO.N,+5V*%
X124700000Y-88212500D03*
D31*
X124700000Y-81912500D03*
D30*
%TO.P,U3,3,VI*%
%TO.N,Vin*%
X127000000Y-88212500D03*
%TD*%
D19*
%TO.P,C7,1*%
%TO.N,Vin*%
X139949354Y-102236500D03*
%TO.P,C7,2*%
%TO.N,GND*%
X139949354Y-100161500D03*
%TD*%
D32*
%TO.P,J2,1,Pin_1*%
%TO.N,Net-(J2-Pin_1)*%
X160849354Y-110599000D03*
D33*
%TO.P,J2,2,Pin_2*%
%TO.N,Net-(J2-Pin_2)*%
X162849354Y-110599000D03*
%TD*%
D13*
%TO.P,C20,1*%
%TO.N,GND*%
X151149354Y-94636500D03*
%TO.P,C20,2*%
%TO.N,Vin*%
X151149354Y-96361500D03*
%TD*%
D34*
%TO.P,R2,1*%
%TO.N,+5V*%
X154649354Y-96411500D03*
%TO.P,R2,2*%
%TO.N,Pgood*%
X154649354Y-94586500D03*
%TD*%
D32*
%TO.P,J1,1,Pin_1*%
%TO.N,+5V*%
X141349354Y-110599000D03*
D33*
%TO.P,J1,2,Pin_2*%
%TO.N,GND*%
X143349354Y-110599000D03*
%TO.P,J1,3,Pin_3*%
%TO.N,unconnected-(J1-Pin_3-Pad3)*%
X145349354Y-110599000D03*
%TO.P,J1,4,Pin_4*%
%TO.N,EN*%
X147349354Y-110599000D03*
%TO.P,J1,5,Pin_5*%
%TO.N,SCL*%
X149349354Y-110599000D03*
%TO.P,J1,6,Pin_6*%
%TO.N,SDA*%
X151349354Y-110599000D03*
%TO.P,J1,7,Pin_7*%
%TO.N,SALRT*%
X153349354Y-110599000D03*
%TO.P,J1,8,Pin_8*%
%TO.N,Pgood*%
X155349354Y-110599000D03*
%TD*%
D19*
%TO.P,C3,1*%
%TO.N,Vin*%
X131549354Y-102236500D03*
%TO.P,C3,2*%
%TO.N,GND*%
X131549354Y-100161500D03*
%TD*%
D35*
%TO.P,D1,1,K*%
%TO.N,Vin*%
X116500000Y-97300000D03*
%TO.P,D1,2,A*%
%TO.N,GND*%
X116500000Y-91900000D03*
%TD*%
D36*
%TO.N,GND*%
X160285000Y-103601000D03*
%TO.N,+5V*%
X124700000Y-88150000D03*
%TO.N,Vin*%
X127000000Y-88250000D03*
%TO.N,GND*%
X153050000Y-93950000D03*
X151150000Y-93950000D03*
X149450000Y-93950000D03*
D37*
%TO.N,+5V*%
X136950646Y-82749646D03*
X136950646Y-77749646D03*
X112500646Y-77800000D03*
X112500646Y-82800000D03*
D36*
%TO.N,GND*%
X173700646Y-96087500D03*
X171300646Y-95387500D03*
X176900646Y-96087500D03*
X178500646Y-96087500D03*
X175300646Y-96087500D03*
X165200000Y-97050000D03*
X163250000Y-97100000D03*
X164250000Y-98850000D03*
X168200646Y-95387500D03*
X176100646Y-95337500D03*
X168900646Y-96137500D03*
X169700646Y-95387500D03*
X172100646Y-96087500D03*
X170500646Y-96087500D03*
X172900646Y-95387500D03*
X174500646Y-95337500D03*
X164250000Y-95200000D03*
X177700646Y-95337500D03*
%TO.N,Vin*%
X125090000Y-96110000D03*
%TO.N,GND*%
X115900000Y-93800000D03*
X115900000Y-90000000D03*
X117800000Y-93100000D03*
X117800000Y-90700000D03*
X115200000Y-93100000D03*
X115200000Y-90700000D03*
X117800000Y-91900000D03*
X115200000Y-91900000D03*
X117100000Y-93800000D03*
X117100000Y-90000000D03*
X126450000Y-96800000D03*
X143100000Y-100250000D03*
X150650000Y-100030000D03*
X146800000Y-100470000D03*
X146800000Y-101850000D03*
X122400646Y-87050000D03*
X127400000Y-98650000D03*
X151550000Y-101410000D03*
X137850000Y-99400000D03*
X149650000Y-101750000D03*
X151550000Y-102130000D03*
X147700000Y-101850000D03*
X124050646Y-86050000D03*
X151550000Y-100710000D03*
X139950000Y-99400000D03*
X151550000Y-102830000D03*
X150650000Y-100710000D03*
X148750000Y-101750000D03*
X131550000Y-99400000D03*
X133650000Y-99400000D03*
X147700000Y-101150000D03*
X146800000Y-101150000D03*
X138900000Y-100200000D03*
X150650000Y-102130000D03*
X142050000Y-99400000D03*
X143950000Y-99600000D03*
X125850646Y-86000000D03*
X130650000Y-100200000D03*
X126450000Y-100500000D03*
X141000000Y-100200000D03*
X122400646Y-89400000D03*
X127650646Y-86000000D03*
X136800000Y-100200000D03*
X132600000Y-100200000D03*
X150650000Y-102830000D03*
X150650000Y-101410000D03*
X123300646Y-88200000D03*
X134700000Y-100200000D03*
X151550000Y-100030000D03*
X125450000Y-98650000D03*
X135750000Y-99400000D03*
X147700000Y-100470000D03*
%TO.N,Vin*%
X151911854Y-96361500D03*
%TO.N,+5V*%
X153849354Y-96411500D03*
D37*
X132100000Y-82799000D03*
X117300000Y-77799000D03*
X127100000Y-77799000D03*
X132100000Y-77799000D03*
X122100000Y-77799000D03*
X117300000Y-82799000D03*
D36*
%TO.N,EN*%
X151299997Y-97700000D03*
%TO.N,Pgood*%
X153949354Y-101949000D03*
%TO.N,SCL*%
X152100000Y-97700000D03*
%TO.N,SALRT*%
X153949354Y-98499000D03*
%TO.N,SDA*%
X152900000Y-97700000D03*
%TD*%
D38*
%TO.N,+5V*%
X124700000Y-88150000D02*
X124700000Y-81912500D01*
D39*
%TO.N,EN*%
X150974134Y-98475864D02*
X150974134Y-98927200D01*
X151299997Y-98150001D02*
X150974134Y-98475864D01*
X151299997Y-97700000D02*
X151299997Y-98150001D01*
%TO.N,SCL*%
X152100000Y-97900000D02*
X151474514Y-98525486D01*
X151474514Y-98525486D02*
X151474514Y-98927200D01*
X152100000Y-97700000D02*
X152100000Y-97900000D01*
%TO.N,SDA*%
X152881275Y-97700000D02*
X152900000Y-97700000D01*
X151974894Y-98606381D02*
X152881275Y-97700000D01*
X151974894Y-98927200D02*
X151974894Y-98606381D01*
D38*
%TO.N,Net-(C10-Pad2)*%
X136825000Y-95100000D02*
X138450000Y-95100000D01*
D39*
%TO.N,Vout*%
X185249354Y-91250646D02*
X185249354Y-89799000D01*
X172900000Y-103600000D02*
X185249354Y-91250646D01*
X163242500Y-103600000D02*
X172900000Y-103600000D01*
D38*
%TO.N,GND*%
X168900000Y-95362500D02*
X178500000Y-95362500D01*
D39*
%TO.N,Net-(JP2-C)*%
X161200000Y-102500000D02*
X152829894Y-102500000D01*
X161800000Y-103100000D02*
X161200000Y-102500000D01*
X152829894Y-102500000D02*
X152759754Y-102429860D01*
X162600000Y-104900000D02*
X161800000Y-104100000D01*
X163242500Y-104900000D02*
X162600000Y-104900000D01*
X161800000Y-104100000D02*
X161800000Y-103100000D01*
%TO.N,Net-(JP1-C)*%
X159922960Y-104901000D02*
X160285000Y-104901000D01*
X157952200Y-102930240D02*
X159922960Y-104901000D01*
X152759754Y-102930240D02*
X157952200Y-102930240D01*
%TO.N,Net-(J2-Pin_2)*%
X162800000Y-110549646D02*
X162849354Y-110599000D01*
X162800000Y-106642500D02*
X162800000Y-110549646D01*
X163242500Y-106200000D02*
X162800000Y-106642500D01*
%TO.N,Net-(J2-Pin_1)*%
X160849354Y-106765354D02*
X160849354Y-110599000D01*
X160285000Y-106201000D02*
X160849354Y-106765354D01*
%TO.N,Net-(U1-PH)*%
X149475534Y-105446640D02*
X149192054Y-105730120D01*
X149475534Y-103931000D02*
X149475534Y-105446640D01*
%TO.N,Net-(U1-BOOT)*%
X150473754Y-105286820D02*
X150917054Y-105730120D01*
X150473754Y-103931000D02*
X150473754Y-105286820D01*
%TO.N,Vin*%
X151911854Y-96361500D02*
X151149354Y-96361500D01*
X149973374Y-97537480D02*
X151149354Y-96361500D01*
X149973374Y-98927200D02*
X149973374Y-97537480D01*
%TO.N,+5V*%
X152260854Y-97150000D02*
X153049354Y-96361500D01*
D38*
X124700000Y-88212500D02*
X124700000Y-88150000D01*
D39*
X154649354Y-96411500D02*
X153099354Y-96411500D01*
X150894463Y-97150000D02*
X152260854Y-97150000D01*
X150473754Y-98927200D02*
X150473754Y-97570709D01*
X153099354Y-96411500D02*
X153049354Y-96361500D01*
X150473754Y-97570709D02*
X150894463Y-97150000D01*
%TO.N,Net-(U1-PVCC)*%
X149475534Y-98927200D02*
X149475534Y-96387680D01*
X149475534Y-96387680D02*
X149449354Y-96361500D01*
%TO.N,Pgood*%
X153929834Y-101929480D02*
X152759754Y-101929480D01*
X154199354Y-102199000D02*
X153949354Y-101949000D01*
X153949354Y-101949000D02*
X153929834Y-101929480D01*
X155434278Y-102199000D02*
X154199354Y-102199000D01*
X155787854Y-95725000D02*
X155787854Y-101845424D01*
X154649354Y-94586500D02*
X155787854Y-95725000D01*
X155787854Y-101845424D02*
X155434278Y-102199000D01*
%TO.N,SALRT*%
X153949354Y-98499000D02*
X153018234Y-99430120D01*
X153018234Y-99430120D02*
X152759754Y-99430120D01*
%TO.N,Net-(U1-ADDR)*%
X152789854Y-101399000D02*
X155049354Y-101399000D01*
X152759754Y-101429100D02*
X152789854Y-101399000D01*
%TO.N,Net-(U1-VSET)*%
X155049354Y-99899000D02*
X154019634Y-100928720D01*
X154019634Y-100928720D02*
X152759754Y-100928720D01*
X155049354Y-99799000D02*
X155049354Y-99899000D01*
%TO.N,Net-(U1-RT{slash}SYNC)*%
X152759754Y-99927960D02*
X153520394Y-99927960D01*
X155049354Y-98399000D02*
X155049354Y-98199000D01*
X153520394Y-99927960D02*
X155049354Y-98399000D01*
%TD*%
%TA.AperFunction,Conductor*%
%TO.N,+5V*%
G36*
X139143039Y-75232988D02*
G01*
X139188794Y-75285792D01*
X139200000Y-75337303D01*
X139200000Y-84989303D01*
X139180315Y-85056342D01*
X139127511Y-85102097D01*
X139076000Y-85113303D01*
X110424000Y-85113303D01*
X110356961Y-85093618D01*
X110311206Y-85040814D01*
X110300000Y-84989303D01*
X110300000Y-75337303D01*
X110319685Y-75270264D01*
X110372489Y-75224509D01*
X110424000Y-75213303D01*
X139076000Y-75213303D01*
X139143039Y-75232988D01*
G37*
%TD.AperFunction*%
%TD*%
%TA.AperFunction,Conductor*%
%TO.N,Vout*%
G36*
X185252057Y-75199618D02*
G01*
X185609944Y-75215240D01*
X185615933Y-75215648D01*
X185694769Y-75222953D01*
X185699424Y-75223475D01*
X186014623Y-75264968D01*
X186021151Y-75266007D01*
X186094027Y-75279629D01*
X186097947Y-75280430D01*
X186414141Y-75350525D01*
X186421199Y-75352309D01*
X186483267Y-75369969D01*
X186486595Y-75370968D01*
X186540026Y-75387814D01*
X186805180Y-75471414D01*
X186812611Y-75474022D01*
X186857696Y-75491488D01*
X186860151Y-75492472D01*
X187184342Y-75626752D01*
X187192150Y-75630308D01*
X187210351Y-75639371D01*
X187212215Y-75640320D01*
X187354531Y-75714404D01*
X187544325Y-75813204D01*
X187553692Y-75818612D01*
X187882974Y-76028384D01*
X187891836Y-76034589D01*
X188169490Y-76247638D01*
X188201583Y-76272263D01*
X188209866Y-76279212D01*
X188497729Y-76542988D01*
X188505378Y-76550637D01*
X188769154Y-76838495D01*
X188776104Y-76846778D01*
X188962490Y-77089679D01*
X189013785Y-77156527D01*
X189019990Y-77165389D01*
X189229765Y-77494668D01*
X189235174Y-77504036D01*
X189408050Y-77836127D01*
X189409060Y-77838109D01*
X189418056Y-77856174D01*
X189421618Y-77863996D01*
X189555866Y-78188096D01*
X189556931Y-78190754D01*
X189574347Y-78235709D01*
X189576982Y-78243216D01*
X189677418Y-78561755D01*
X189678424Y-78565111D01*
X189696070Y-78627134D01*
X189697864Y-78634227D01*
X189767950Y-78950359D01*
X189768778Y-78954413D01*
X189782376Y-79027155D01*
X189783426Y-79033755D01*
X189824911Y-79348868D01*
X189825443Y-79353612D01*
X189832746Y-79432424D01*
X189833157Y-79438456D01*
X189838035Y-79550183D01*
X189838153Y-79555911D01*
X189800317Y-94276649D01*
X189780460Y-94343637D01*
X189727538Y-94389256D01*
X189676649Y-94400330D01*
X155505997Y-94491940D01*
X155438905Y-94472435D01*
X155393009Y-94419754D01*
X155381666Y-94368422D01*
X155379571Y-93830000D01*
X153629561Y-93830000D01*
X153562522Y-93810315D01*
X153521660Y-93763157D01*
X153520456Y-93763853D01*
X153516849Y-93757605D01*
X153516767Y-93757511D01*
X153516682Y-93757317D01*
X153487054Y-93706000D01*
X153450500Y-93642686D01*
X153357314Y-93549500D01*
X153300250Y-93516554D01*
X153243187Y-93483608D01*
X153179539Y-93466554D01*
X153115892Y-93449500D01*
X152984108Y-93449500D01*
X152856812Y-93483608D01*
X152742686Y-93549500D01*
X152742683Y-93549502D01*
X152649502Y-93642683D01*
X152649500Y-93642686D01*
X152579544Y-93763853D01*
X152577547Y-93762700D01*
X152541162Y-93807854D01*
X152474869Y-93829921D01*
X152470439Y-93830000D01*
X152024000Y-93830000D01*
X151956961Y-93810315D01*
X151911206Y-93757511D01*
X151900000Y-93706000D01*
X151900000Y-79790917D01*
X180949585Y-79790917D01*
X180950083Y-79883446D01*
X180958045Y-80068331D01*
X180973953Y-80252707D01*
X180997781Y-80436238D01*
X181029478Y-80618554D01*
X181068992Y-80799342D01*
X181116246Y-80978262D01*
X181171163Y-81155010D01*
X181233615Y-81329184D01*
X181303525Y-81500564D01*
X181380718Y-81668720D01*
X181380725Y-81668735D01*
X181465095Y-81833443D01*
X181556473Y-81994369D01*
X181556479Y-81994379D01*
X181556481Y-81994382D01*
X181654689Y-82151215D01*
X181759558Y-82303682D01*
X181870902Y-82451514D01*
X181988489Y-82594403D01*
X182112130Y-82732117D01*
X182241564Y-82864365D01*
X182241567Y-82864368D01*
X182376579Y-82990935D01*
X182516911Y-83111575D01*
X182662303Y-83226066D01*
X182812486Y-83334196D01*
X182967182Y-83435765D01*
X183126105Y-83530584D01*
X183126117Y-83530591D01*
X183222093Y-83582390D01*
X183288960Y-83618479D01*
X183455446Y-83699285D01*
X183625254Y-83772855D01*
X183798069Y-83839050D01*
X183973573Y-83897750D01*
X184127143Y-83941864D01*
X184151429Y-83948841D01*
X184151432Y-83948841D01*
X184151440Y-83948844D01*
X184331340Y-83992239D01*
X184417651Y-84009166D01*
X184512943Y-84027855D01*
X184568745Y-84036323D01*
X184695905Y-84055623D01*
X184879895Y-84075495D01*
X185064569Y-84087433D01*
X185249586Y-84091415D01*
X185434603Y-84087433D01*
X185619277Y-84075495D01*
X185803267Y-84055623D01*
X185945974Y-84033963D01*
X185986228Y-84027855D01*
X186036120Y-84018070D01*
X186167832Y-83992239D01*
X186347732Y-83948844D01*
X186525599Y-83897750D01*
X186701103Y-83839050D01*
X186873918Y-83772855D01*
X187043726Y-83699285D01*
X187210212Y-83618479D01*
X187373067Y-83530584D01*
X187531990Y-83435765D01*
X187686686Y-83334196D01*
X187836869Y-83226066D01*
X187982261Y-83111575D01*
X188122593Y-82990935D01*
X188257605Y-82864368D01*
X188387047Y-82732111D01*
X188510679Y-82594407D01*
X188628272Y-82451512D01*
X188739608Y-82303690D01*
X188844482Y-82151215D01*
X188942699Y-81994369D01*
X189034077Y-81833443D01*
X189118447Y-81668735D01*
X189195653Y-81500549D01*
X189265551Y-81329198D01*
X189328013Y-81154998D01*
X189382923Y-80978271D01*
X189430178Y-80799347D01*
X189469693Y-80618555D01*
X189501392Y-80436230D01*
X189525218Y-80252710D01*
X189541127Y-80068335D01*
X189549088Y-79883447D01*
X189549088Y-79698387D01*
X189541127Y-79513499D01*
X189525218Y-79329124D01*
X189501392Y-79145604D01*
X189469693Y-78963279D01*
X189430178Y-78782487D01*
X189382923Y-78603563D01*
X189328013Y-78426836D01*
X189265551Y-78252636D01*
X189195653Y-78081285D01*
X189118447Y-77913099D01*
X189034077Y-77748391D01*
X188942699Y-77587465D01*
X188887451Y-77499237D01*
X188844482Y-77430618D01*
X188739613Y-77278151D01*
X188739608Y-77278144D01*
X188628272Y-77130322D01*
X188569475Y-77058874D01*
X188510682Y-76987430D01*
X188387041Y-76849716D01*
X188257607Y-76717468D01*
X188226141Y-76687970D01*
X188122593Y-76590899D01*
X187982261Y-76470259D01*
X187836869Y-76355768D01*
X187686686Y-76247638D01*
X187531990Y-76146069D01*
X187373067Y-76051250D01*
X187373054Y-76051242D01*
X187210227Y-75963363D01*
X187210225Y-75963362D01*
X187210212Y-75963355D01*
X187043726Y-75882549D01*
X186873918Y-75808979D01*
X186701109Y-75742786D01*
X186699362Y-75742201D01*
X186525599Y-75684084D01*
X186480307Y-75671073D01*
X186347742Y-75632992D01*
X186167824Y-75589593D01*
X185986228Y-75553978D01*
X185843524Y-75532320D01*
X185803267Y-75526211D01*
X185698769Y-75514924D01*
X185619281Y-75506339D01*
X185434589Y-75494400D01*
X185249586Y-75490418D01*
X185064582Y-75494400D01*
X184879890Y-75506339D01*
X184780530Y-75517071D01*
X184695905Y-75526211D01*
X184671195Y-75529961D01*
X184512943Y-75553978D01*
X184331347Y-75589593D01*
X184151429Y-75632992D01*
X183975223Y-75683609D01*
X183973573Y-75684084D01*
X183885821Y-75713434D01*
X183798062Y-75742786D01*
X183625253Y-75808979D01*
X183455455Y-75882545D01*
X183455446Y-75882549D01*
X183388041Y-75915265D01*
X183288944Y-75963363D01*
X183126117Y-76051242D01*
X182967186Y-76146066D01*
X182812480Y-76247642D01*
X182662303Y-76355767D01*
X182516915Y-76470255D01*
X182376570Y-76590907D01*
X182241564Y-76717468D01*
X182112130Y-76849716D01*
X181988489Y-76987430D01*
X181870902Y-77130319D01*
X181759558Y-77278151D01*
X181654689Y-77430618D01*
X181556481Y-77587451D01*
X181465094Y-77748391D01*
X181380718Y-77913113D01*
X181303525Y-78081269D01*
X181233615Y-78252649D01*
X181171163Y-78426823D01*
X181116246Y-78603571D01*
X181068992Y-78782491D01*
X181029478Y-78963279D01*
X180997781Y-79145595D01*
X180973953Y-79329126D01*
X180958045Y-79513502D01*
X180950083Y-79698387D01*
X180949585Y-79790917D01*
X151900000Y-79790917D01*
X151900000Y-75326823D01*
X151919685Y-75259784D01*
X151972489Y-75214029D01*
X152023984Y-75202823D01*
X184894993Y-75199500D01*
X185246649Y-75199500D01*
X185252057Y-75199618D01*
G37*
%TD.AperFunction*%
%TD*%
%TA.AperFunction,Conductor*%
%TO.N,Vin*%
G36*
X125343039Y-94629685D02*
G01*
X125388794Y-94682489D01*
X125400000Y-94734000D01*
X125400000Y-98050093D01*
X125380315Y-98117132D01*
X125327511Y-98162887D01*
X125308097Y-98169866D01*
X125256814Y-98183608D01*
X125256812Y-98183608D01*
X125256812Y-98183609D01*
X125142686Y-98249500D01*
X125142683Y-98249502D01*
X125049502Y-98342683D01*
X125049500Y-98342686D01*
X124983608Y-98456812D01*
X124949500Y-98584108D01*
X124949500Y-98715891D01*
X124983608Y-98843187D01*
X125016121Y-98899500D01*
X125049500Y-98957314D01*
X125142686Y-99050500D01*
X125256814Y-99116392D01*
X125308094Y-99130132D01*
X125367753Y-99166495D01*
X125398283Y-99229341D01*
X125400000Y-99249906D01*
X125400000Y-101200001D01*
X144776002Y-101200019D01*
X144843040Y-101219704D01*
X144888794Y-101272508D01*
X144900000Y-101324019D01*
X144900000Y-102300000D01*
X145164450Y-102300000D01*
X145231489Y-102319685D01*
X145233301Y-102320871D01*
X145264723Y-102341867D01*
X145264725Y-102341867D01*
X145264726Y-102341868D01*
X145264724Y-102341868D01*
X145323201Y-102353499D01*
X145323204Y-102353500D01*
X145323206Y-102353500D01*
X146175504Y-102353500D01*
X146175505Y-102353499D01*
X146195172Y-102349587D01*
X146233982Y-102341868D01*
X146233982Y-102341867D01*
X146233985Y-102341867D01*
X146265367Y-102320897D01*
X146283414Y-102315246D01*
X146299323Y-102305023D01*
X146330282Y-102300571D01*
X146332044Y-102300020D01*
X146334258Y-102300000D01*
X146545197Y-102300000D01*
X146598850Y-102314376D01*
X146599304Y-102313281D01*
X146606807Y-102316388D01*
X146606814Y-102316392D01*
X146734108Y-102350500D01*
X146734110Y-102350500D01*
X146865890Y-102350500D01*
X146865892Y-102350500D01*
X146993186Y-102316392D01*
X146993194Y-102316387D01*
X147000696Y-102313281D01*
X147001149Y-102314376D01*
X147054803Y-102300000D01*
X147445197Y-102300000D01*
X147498850Y-102314376D01*
X147499304Y-102313281D01*
X147506807Y-102316388D01*
X147506814Y-102316392D01*
X147634108Y-102350500D01*
X147634110Y-102350500D01*
X147765890Y-102350500D01*
X147765892Y-102350500D01*
X147893186Y-102316392D01*
X147893194Y-102316387D01*
X147900696Y-102313281D01*
X147901149Y-102314376D01*
X147954803Y-102300000D01*
X149676000Y-102300000D01*
X149743039Y-102319685D01*
X149788794Y-102372489D01*
X149800000Y-102424000D01*
X149800000Y-103072199D01*
X149780315Y-103139238D01*
X149727511Y-103184993D01*
X149672258Y-103196143D01*
X149109774Y-103179160D01*
X149109774Y-104930620D01*
X149090089Y-104997659D01*
X149037285Y-105043414D01*
X148985774Y-105054620D01*
X148839294Y-105054620D01*
X148809704Y-105057394D01*
X148685077Y-105101004D01*
X148578843Y-105179408D01*
X148578842Y-105179409D01*
X148500438Y-105285643D01*
X148456828Y-105410270D01*
X148454054Y-105439859D01*
X148454054Y-105576000D01*
X148434369Y-105643039D01*
X148381565Y-105688794D01*
X148330054Y-105700000D01*
X115329500Y-105700000D01*
X115262461Y-105680315D01*
X115216706Y-105627511D01*
X115205500Y-105576000D01*
X115205500Y-94734000D01*
X115225185Y-94666961D01*
X115277989Y-94621206D01*
X115329500Y-94610000D01*
X125276000Y-94610000D01*
X125343039Y-94629685D01*
G37*
%TD.AperFunction*%
%TD*%
%TA.AperFunction,Conductor*%
%TO.N,Net-(F1-Pad1)*%
G36*
X114943039Y-94619685D02*
G01*
X114988794Y-94672489D01*
X115000000Y-94724000D01*
X115000000Y-105576000D01*
X114980315Y-105643039D01*
X114927511Y-105688794D01*
X114876000Y-105700000D01*
X106188947Y-105700000D01*
X106165083Y-105697682D01*
X105985996Y-105662559D01*
X105843292Y-105640901D01*
X105803035Y-105634792D01*
X105698537Y-105623505D01*
X105619049Y-105614920D01*
X105434357Y-105602981D01*
X105249354Y-105598999D01*
X105064350Y-105602981D01*
X104879658Y-105614920D01*
X104780298Y-105625652D01*
X104695673Y-105634792D01*
X104670963Y-105638542D01*
X104512711Y-105662559D01*
X104333625Y-105697682D01*
X104309761Y-105700000D01*
X100724000Y-105700000D01*
X100656961Y-105680315D01*
X100611206Y-105627511D01*
X100600000Y-105576000D01*
X100600000Y-94805056D01*
X100600001Y-94804643D01*
X100600271Y-94723587D01*
X100620178Y-94656613D01*
X100673135Y-94611035D01*
X100724270Y-94600000D01*
X114876000Y-94600000D01*
X114943039Y-94619685D01*
G37*
%TD.AperFunction*%
%TD*%
%TA.AperFunction,Conductor*%
%TO.N,GND*%
G36*
X109738249Y-75219185D02*
G01*
X109784004Y-75271989D01*
X109792739Y-75332740D01*
X109794816Y-75332889D01*
X109794500Y-75337306D01*
X109794500Y-79649088D01*
X109774815Y-79716127D01*
X109722011Y-79761882D01*
X109652853Y-79771826D01*
X109589297Y-79742801D01*
X109551523Y-79684023D01*
X109546615Y-79654423D01*
X109544191Y-79598137D01*
X109540895Y-79521582D01*
X109524986Y-79337207D01*
X109501160Y-79153687D01*
X109469461Y-78971362D01*
X109455149Y-78905880D01*
X109429947Y-78790574D01*
X109382693Y-78611654D01*
X109375887Y-78589748D01*
X109327781Y-78434919D01*
X109265319Y-78260719D01*
X109195421Y-78089368D01*
X109118215Y-77921182D01*
X109033845Y-77756474D01*
X108942467Y-77595548D01*
X108882159Y-77499240D01*
X108844250Y-77438701D01*
X108739381Y-77286234D01*
X108739376Y-77286227D01*
X108628040Y-77138405D01*
X108559382Y-77054974D01*
X108510450Y-76995513D01*
X108386809Y-76857799D01*
X108257375Y-76725551D01*
X108245787Y-76714688D01*
X108122361Y-76598982D01*
X107982029Y-76478342D01*
X107897530Y-76411802D01*
X107836636Y-76363850D01*
X107719082Y-76279213D01*
X107686454Y-76255721D01*
X107531758Y-76154152D01*
X107465850Y-76114829D01*
X107372822Y-76059325D01*
X107209995Y-75971446D01*
X107209993Y-75971445D01*
X107209980Y-75971438D01*
X107043494Y-75890632D01*
X106873686Y-75817062D01*
X106863585Y-75813193D01*
X106700877Y-75750869D01*
X106699130Y-75750284D01*
X106525367Y-75692167D01*
X106480075Y-75679156D01*
X106347510Y-75641075D01*
X106167592Y-75597676D01*
X105985996Y-75562061D01*
X105843292Y-75540403D01*
X105803035Y-75534294D01*
X105698537Y-75523007D01*
X105619049Y-75514422D01*
X105434357Y-75502483D01*
X105249354Y-75498501D01*
X105064350Y-75502483D01*
X104879658Y-75514422D01*
X104780298Y-75525154D01*
X104695673Y-75534294D01*
X104670963Y-75538044D01*
X104512711Y-75562061D01*
X104331115Y-75597676D01*
X104151197Y-75641075D01*
X103974991Y-75691692D01*
X103973341Y-75692167D01*
X103906889Y-75714393D01*
X103797830Y-75750869D01*
X103625021Y-75817062D01*
X103511488Y-75866251D01*
X103455214Y-75890632D01*
X103404477Y-75915258D01*
X103288712Y-75971446D01*
X103125885Y-76059325D01*
X102966954Y-76154149D01*
X102812248Y-76255725D01*
X102662071Y-76363850D01*
X102516683Y-76478338D01*
X102376338Y-76598990D01*
X102241332Y-76725551D01*
X102111898Y-76857799D01*
X101988257Y-76995513D01*
X101870670Y-77138402D01*
X101759326Y-77286234D01*
X101654457Y-77438701D01*
X101556249Y-77595534D01*
X101464862Y-77756474D01*
X101380486Y-77921196D01*
X101303293Y-78089352D01*
X101233383Y-78260732D01*
X101170931Y-78434906D01*
X101116014Y-78611654D01*
X101068760Y-78790574D01*
X101029246Y-78971362D01*
X100997549Y-79153678D01*
X100973721Y-79337209D01*
X100957813Y-79521585D01*
X100949851Y-79706470D01*
X100949353Y-79799000D01*
X100949851Y-79891529D01*
X100957813Y-80076414D01*
X100973721Y-80260790D01*
X100997549Y-80444321D01*
X101029246Y-80626637D01*
X101068760Y-80807425D01*
X101116014Y-80986345D01*
X101170931Y-81163093D01*
X101233383Y-81337267D01*
X101303293Y-81508647D01*
X101380486Y-81676803D01*
X101380493Y-81676818D01*
X101464863Y-81841526D01*
X101556241Y-82002452D01*
X101556247Y-82002462D01*
X101556249Y-82002465D01*
X101654457Y-82159298D01*
X101759326Y-82311765D01*
X101870670Y-82459597D01*
X101988257Y-82602486D01*
X102111898Y-82740200D01*
X102241332Y-82872448D01*
X102241335Y-82872451D01*
X102376347Y-82999018D01*
X102516679Y-83119658D01*
X102662071Y-83234149D01*
X102812254Y-83342279D01*
X102966950Y-83443848D01*
X103125873Y-83538667D01*
X103125885Y-83538674D01*
X103221861Y-83590473D01*
X103288728Y-83626562D01*
X103455214Y-83707368D01*
X103625022Y-83780938D01*
X103797837Y-83847133D01*
X103973341Y-83905833D01*
X104126911Y-83949947D01*
X104151197Y-83956924D01*
X104151200Y-83956924D01*
X104151208Y-83956927D01*
X104331108Y-84000322D01*
X104417419Y-84017249D01*
X104512711Y-84035938D01*
X104568513Y-84044406D01*
X104695673Y-84063706D01*
X104879663Y-84083578D01*
X105064337Y-84095516D01*
X105249354Y-84099498D01*
X105434371Y-84095516D01*
X105619045Y-84083578D01*
X105803035Y-84063706D01*
X105945742Y-84042046D01*
X105985996Y-84035938D01*
X106035888Y-84026153D01*
X106167600Y-84000322D01*
X106347500Y-83956927D01*
X106525367Y-83905833D01*
X106700871Y-83847133D01*
X106873686Y-83780938D01*
X107043494Y-83707368D01*
X107209980Y-83626562D01*
X107372835Y-83538667D01*
X107531758Y-83443848D01*
X107686454Y-83342279D01*
X107836637Y-83234149D01*
X107982029Y-83119658D01*
X108122361Y-82999018D01*
X108257373Y-82872451D01*
X108386815Y-82740194D01*
X108510447Y-82602490D01*
X108628040Y-82459595D01*
X108739376Y-82311773D01*
X108844250Y-82159298D01*
X108942467Y-82002452D01*
X109033845Y-81841526D01*
X109118215Y-81676818D01*
X109195421Y-81508632D01*
X109265319Y-81337281D01*
X109327781Y-81163081D01*
X109382691Y-80986354D01*
X109429946Y-80807430D01*
X109469461Y-80626638D01*
X109501160Y-80444313D01*
X109524986Y-80260793D01*
X109540895Y-80076418D01*
X109546615Y-79943576D01*
X109569165Y-79877446D01*
X109623889Y-79834005D01*
X109693411Y-79827046D01*
X109755659Y-79858778D01*
X109790870Y-79919127D01*
X109794500Y-79948911D01*
X109794500Y-84989303D01*
X109794501Y-84989312D01*
X109806052Y-85096753D01*
X109806054Y-85096765D01*
X109817260Y-85148275D01*
X109851383Y-85250800D01*
X109851386Y-85250806D01*
X109929171Y-85371840D01*
X109929179Y-85371851D01*
X109974923Y-85424643D01*
X109974926Y-85424646D01*
X109974930Y-85424650D01*
X110083664Y-85518870D01*
X110083667Y-85518871D01*
X110083668Y-85518872D01*
X110177925Y-85561919D01*
X110214541Y-85578641D01*
X110281580Y-85598326D01*
X110281584Y-85598327D01*
X110424000Y-85618803D01*
X124275500Y-85618803D01*
X124342539Y-85638488D01*
X124388294Y-85691292D01*
X124399500Y-85742803D01*
X124399500Y-86888506D01*
X124379815Y-86955545D01*
X124327011Y-87001300D01*
X124291156Y-87010339D01*
X124291305Y-87011470D01*
X124174764Y-87026813D01*
X124174763Y-87026813D01*
X124034770Y-87084800D01*
X123914549Y-87177049D01*
X123822300Y-87297270D01*
X123764313Y-87437263D01*
X123764313Y-87437264D01*
X123749500Y-87549772D01*
X123749500Y-88875227D01*
X123762461Y-88973671D01*
X123764313Y-88987736D01*
X123822302Y-89127733D01*
X123914549Y-89247951D01*
X124034767Y-89340198D01*
X124174764Y-89398187D01*
X124287280Y-89413000D01*
X124287287Y-89413000D01*
X125112713Y-89413000D01*
X125112720Y-89413000D01*
X125225236Y-89398187D01*
X125365233Y-89340198D01*
X125485451Y-89247951D01*
X125577698Y-89127733D01*
X125635687Y-88987736D01*
X125650500Y-88875220D01*
X125650500Y-87549780D01*
X125650499Y-87549772D01*
X126049500Y-87549772D01*
X126049500Y-88875227D01*
X126062461Y-88973671D01*
X126064313Y-88987736D01*
X126122302Y-89127733D01*
X126214549Y-89247951D01*
X126334767Y-89340198D01*
X126474764Y-89398187D01*
X126587280Y-89413000D01*
X126587287Y-89413000D01*
X127412713Y-89413000D01*
X127412720Y-89413000D01*
X127525236Y-89398187D01*
X127665233Y-89340198D01*
X127785451Y-89247951D01*
X127877698Y-89127733D01*
X127935687Y-88987736D01*
X127950500Y-88875220D01*
X127950500Y-87549780D01*
X127935687Y-87437264D01*
X127877698Y-87297267D01*
X127785451Y-87177049D01*
X127665233Y-87084802D01*
X127665229Y-87084800D01*
X127601801Y-87058527D01*
X127525236Y-87026813D01*
X127511171Y-87024961D01*
X127412727Y-87012000D01*
X127412720Y-87012000D01*
X126587280Y-87012000D01*
X126587272Y-87012000D01*
X126474764Y-87026813D01*
X126474763Y-87026813D01*
X126334770Y-87084800D01*
X126214549Y-87177049D01*
X126122300Y-87297270D01*
X126064313Y-87437263D01*
X126064313Y-87437264D01*
X126049500Y-87549772D01*
X125650499Y-87549772D01*
X125635687Y-87437264D01*
X125577698Y-87297267D01*
X125485451Y-87177049D01*
X125365233Y-87084802D01*
X125365229Y-87084800D01*
X125301801Y-87058527D01*
X125225236Y-87026813D01*
X125158756Y-87018060D01*
X125108695Y-87011470D01*
X125108951Y-87009518D01*
X125050774Y-86988208D01*
X125008575Y-86932522D01*
X125000500Y-86888506D01*
X125000500Y-85742803D01*
X125020185Y-85675764D01*
X125072989Y-85630009D01*
X125124500Y-85618803D01*
X139075990Y-85618803D01*
X139076000Y-85618803D01*
X139183456Y-85607250D01*
X139234967Y-85596044D01*
X139269197Y-85584650D01*
X139337497Y-85561919D01*
X139337499Y-85561917D01*
X139337504Y-85561916D01*
X139353460Y-85551661D01*
X139420497Y-85531976D01*
X139487537Y-85551659D01*
X139533293Y-85604462D01*
X139544500Y-85655976D01*
X139544500Y-96626007D01*
X139549197Y-96669686D01*
X139560397Y-96721174D01*
X139562890Y-96731372D01*
X139562891Y-96731375D01*
X139605899Y-96812083D01*
X139605901Y-96812086D01*
X139651660Y-96864895D01*
X139655168Y-96868475D01*
X139669246Y-96882843D01*
X139669247Y-96882844D01*
X139669249Y-96882845D01*
X139712609Y-96907099D01*
X139749063Y-96927490D01*
X139816102Y-96947175D01*
X139874000Y-96955500D01*
X143890500Y-96955500D01*
X143957539Y-96975185D01*
X144003294Y-97027989D01*
X144014500Y-97079500D01*
X144014500Y-99110823D01*
X144015678Y-99132801D01*
X144018511Y-99159144D01*
X144018512Y-99159149D01*
X144042469Y-99235662D01*
X144050247Y-99249906D01*
X144075952Y-99296984D01*
X144075956Y-99296990D01*
X144111001Y-99343806D01*
X144111007Y-99343812D01*
X144111008Y-99343814D01*
X144174517Y-99407323D01*
X144194220Y-99433001D01*
X144216733Y-99471995D01*
X144229119Y-99501898D01*
X144240774Y-99545392D01*
X144245000Y-99577485D01*
X144245000Y-99624113D01*
X144247006Y-99646122D01*
X144247475Y-99656710D01*
X144247515Y-99656970D01*
X144247961Y-99658954D01*
X144249314Y-99666311D01*
X144250298Y-99671664D01*
X144250299Y-99671667D01*
X144257094Y-99708632D01*
X144257154Y-99708768D01*
X144257229Y-99709152D01*
X144264119Y-99724379D01*
X144264262Y-99724700D01*
X144264295Y-99724950D01*
X144270833Y-99743274D01*
X144271145Y-99744446D01*
X144271149Y-99744457D01*
X144283957Y-99768765D01*
X144285696Y-99772067D01*
X144294931Y-99792475D01*
X144299891Y-99799008D01*
X144303717Y-99806270D01*
X144303718Y-99806272D01*
X144338067Y-99853609D01*
X144345180Y-99860936D01*
X144345192Y-99860948D01*
X144352072Y-99866958D01*
X144359282Y-99875464D01*
X144365110Y-99881468D01*
X144382336Y-99897301D01*
X144404143Y-99915166D01*
X144408946Y-99917707D01*
X144411628Y-99919972D01*
X144414530Y-99921386D01*
X144430066Y-99928957D01*
X144433729Y-99930818D01*
X144448083Y-99938411D01*
X144476234Y-99953304D01*
X144479153Y-99954165D01*
X144479153Y-99954164D01*
X144485835Y-99956135D01*
X144493842Y-99960037D01*
X144518740Y-99965841D01*
X144543242Y-99973070D01*
X144601132Y-99981468D01*
X148518244Y-99986342D01*
X148518250Y-99986341D01*
X148518808Y-99986342D01*
X148585823Y-100006110D01*
X148631512Y-100058971D01*
X148642654Y-100110342D01*
X148642654Y-100923644D01*
X148647805Y-100969368D01*
X148687487Y-101051766D01*
X148687488Y-101051767D01*
X148758991Y-101108789D01*
X148825582Y-101123988D01*
X148848149Y-101129139D01*
X148848154Y-101129140D01*
X149914957Y-101129140D01*
X149914957Y-101129139D01*
X149960682Y-101123988D01*
X150043081Y-101084306D01*
X150100103Y-101012803D01*
X150120454Y-100923640D01*
X150120454Y-100314040D01*
X150115302Y-100268312D01*
X150109112Y-100255459D01*
X150075620Y-100185913D01*
X150004117Y-100128891D01*
X149914958Y-100108540D01*
X149914954Y-100108540D01*
X149431654Y-100108540D01*
X149364615Y-100088855D01*
X149318860Y-100036051D01*
X149307654Y-99984540D01*
X149307654Y-99658100D01*
X149327339Y-99591061D01*
X149380143Y-99545306D01*
X149431654Y-99534100D01*
X149622284Y-99534100D01*
X149622285Y-99534099D01*
X149643417Y-99529896D01*
X149692744Y-99520085D01*
X149693182Y-99522287D01*
X149746463Y-99516556D01*
X149763349Y-99521514D01*
X149826621Y-99534099D01*
X149826624Y-99534100D01*
X149826626Y-99534100D01*
X150120124Y-99534100D01*
X150120125Y-99534099D01*
X150141257Y-99529896D01*
X150190584Y-99520085D01*
X150190946Y-99521905D01*
X150245575Y-99516030D01*
X150265350Y-99521836D01*
X150327001Y-99534099D01*
X150327004Y-99534100D01*
X150327006Y-99534100D01*
X150620504Y-99534100D01*
X150620505Y-99534099D01*
X150641637Y-99529896D01*
X150690964Y-99520085D01*
X150691326Y-99521905D01*
X150745955Y-99516030D01*
X150765730Y-99521836D01*
X150827381Y-99534099D01*
X150827384Y-99534100D01*
X150827386Y-99534100D01*
X151120884Y-99534100D01*
X151120885Y-99534099D01*
X151142017Y-99529896D01*
X151191344Y-99520085D01*
X151191706Y-99521905D01*
X151246335Y-99516030D01*
X151266110Y-99521836D01*
X151327761Y-99534099D01*
X151327764Y-99534100D01*
X151327766Y-99534100D01*
X151621264Y-99534100D01*
X151621265Y-99534099D01*
X151642397Y-99529896D01*
X151691724Y-99520085D01*
X151692086Y-99521905D01*
X151746715Y-99516030D01*
X151766490Y-99521836D01*
X151828141Y-99534099D01*
X151828144Y-99534100D01*
X152042583Y-99534100D01*
X152068861Y-99541816D01*
X152095904Y-99546150D01*
X152101900Y-99551517D01*
X152109622Y-99553785D01*
X152127555Y-99574481D01*
X152147964Y-99592749D01*
X152151790Y-99602450D01*
X152155377Y-99606589D01*
X152162107Y-99625085D01*
X152163314Y-99629456D01*
X152164487Y-99635351D01*
X152165263Y-99636513D01*
X152167891Y-99646025D01*
X152167446Y-99673617D01*
X152170397Y-99701055D01*
X152166808Y-99713277D01*
X152166766Y-99715886D01*
X152165470Y-99717832D01*
X152165439Y-99717938D01*
X152152854Y-99781207D01*
X152152854Y-100074712D01*
X152164485Y-100133189D01*
X152164486Y-100133190D01*
X152208801Y-100199512D01*
X152275123Y-100243827D01*
X152275124Y-100243828D01*
X152333601Y-100255459D01*
X152333604Y-100255460D01*
X152333606Y-100255460D01*
X153185904Y-100255460D01*
X153185905Y-100255459D01*
X153200722Y-100252512D01*
X153244383Y-100243828D01*
X153244385Y-100243827D01*
X153310935Y-100199359D01*
X153377612Y-100178480D01*
X153379827Y-100178460D01*
X153570220Y-100178460D01*
X153570222Y-100178460D01*
X153662291Y-100140324D01*
X154149674Y-99652940D01*
X154210996Y-99619456D01*
X154280687Y-99624440D01*
X154336621Y-99666311D01*
X154361038Y-99731776D01*
X154361354Y-99740622D01*
X154361354Y-100181376D01*
X154341669Y-100248415D01*
X154325035Y-100269057D01*
X153952192Y-100641901D01*
X153890869Y-100675386D01*
X153864511Y-100678220D01*
X153379827Y-100678220D01*
X153312788Y-100658535D01*
X153310935Y-100657321D01*
X153244385Y-100612852D01*
X153244383Y-100612851D01*
X153185906Y-100601220D01*
X153185902Y-100601220D01*
X152333606Y-100601220D01*
X152333601Y-100601220D01*
X152275124Y-100612851D01*
X152275123Y-100612852D01*
X152208801Y-100657167D01*
X152164486Y-100723489D01*
X152164485Y-100723490D01*
X152152854Y-100781967D01*
X152152854Y-101075472D01*
X152166869Y-101145930D01*
X152165048Y-101146292D01*
X152170921Y-101200933D01*
X152165117Y-101220696D01*
X152152854Y-101282347D01*
X152152854Y-101575852D01*
X152166869Y-101646310D01*
X152165048Y-101646672D01*
X152170921Y-101701313D01*
X152165117Y-101721076D01*
X152152854Y-101782727D01*
X152152854Y-102076232D01*
X152166869Y-102146690D01*
X152165048Y-102147052D01*
X152170921Y-102201693D01*
X152165117Y-102221456D01*
X152152854Y-102283107D01*
X152152854Y-102576612D01*
X152166869Y-102647070D01*
X152165048Y-102647432D01*
X152170921Y-102702073D01*
X152165117Y-102721836D01*
X152152854Y-102783487D01*
X152152854Y-103076992D01*
X152166869Y-103147449D01*
X152164666Y-103147887D01*
X152165420Y-103154892D01*
X152172351Y-103177164D01*
X152169451Y-103192379D01*
X152170397Y-103201175D01*
X152167891Y-103212175D01*
X152165263Y-103221686D01*
X152164487Y-103222849D01*
X152163314Y-103228743D01*
X152162107Y-103233115D01*
X152145993Y-103259098D01*
X152131818Y-103286200D01*
X152127749Y-103288516D01*
X152125284Y-103292493D01*
X152097681Y-103305640D01*
X152071103Y-103320776D01*
X152064218Y-103321578D01*
X152062204Y-103322538D01*
X152059232Y-103322159D01*
X152042583Y-103324100D01*
X151828141Y-103324100D01*
X151757684Y-103338115D01*
X151757321Y-103336294D01*
X151702681Y-103342167D01*
X151682917Y-103336363D01*
X151621266Y-103324100D01*
X151621262Y-103324100D01*
X151327766Y-103324100D01*
X151327761Y-103324100D01*
X151269284Y-103335731D01*
X151269283Y-103335732D01*
X151202961Y-103380047D01*
X151158646Y-103446369D01*
X151158645Y-103446370D01*
X151147014Y-103504847D01*
X151147014Y-104357152D01*
X151158645Y-104415629D01*
X151158646Y-104415630D01*
X151202961Y-104481952D01*
X151269283Y-104526267D01*
X151269284Y-104526268D01*
X151327761Y-104537899D01*
X151327764Y-104537900D01*
X151327766Y-104537900D01*
X151621264Y-104537900D01*
X151621265Y-104537899D01*
X151635999Y-104534968D01*
X151691724Y-104523885D01*
X151692086Y-104525705D01*
X151746715Y-104519830D01*
X151766490Y-104525636D01*
X151828141Y-104537899D01*
X151828144Y-104537900D01*
X151828146Y-104537900D01*
X152121644Y-104537900D01*
X152121645Y-104537899D01*
X152136462Y-104534952D01*
X152180123Y-104526268D01*
X152180123Y-104526267D01*
X152180125Y-104526267D01*
X152246446Y-104481952D01*
X152290761Y-104415631D01*
X152290761Y-104415629D01*
X152290762Y-104415629D01*
X152302393Y-104357152D01*
X152302394Y-104357150D01*
X152302394Y-103879580D01*
X152322079Y-103812541D01*
X152374883Y-103766786D01*
X152426394Y-103755580D01*
X153185904Y-103755580D01*
X153185905Y-103755579D01*
X153200722Y-103752632D01*
X153244383Y-103743948D01*
X153244383Y-103743947D01*
X153244385Y-103743947D01*
X153310706Y-103699632D01*
X153355021Y-103633311D01*
X153355021Y-103633309D01*
X153355022Y-103633309D01*
X153366653Y-103574832D01*
X153366654Y-103574830D01*
X153366654Y-103304740D01*
X153386339Y-103237701D01*
X153439143Y-103191946D01*
X153490654Y-103180740D01*
X157797077Y-103180740D01*
X157864116Y-103200425D01*
X157884758Y-103217059D01*
X159298181Y-104630481D01*
X159331666Y-104691804D01*
X159334500Y-104718162D01*
X159334500Y-105420752D01*
X159348515Y-105491209D01*
X159347029Y-105491504D01*
X159353030Y-105547319D01*
X159351891Y-105552895D01*
X159329500Y-105650993D01*
X159329500Y-106266832D01*
X159336370Y-106319007D01*
X159336503Y-106320014D01*
X159347013Y-106359236D01*
X159370580Y-106447188D01*
X159391101Y-106496731D01*
X159391108Y-106496745D01*
X159456934Y-106610759D01*
X159489590Y-106653316D01*
X159582683Y-106746409D01*
X159623939Y-106778067D01*
X159625243Y-106779067D01*
X159739257Y-106844893D01*
X159739262Y-106844895D01*
X159739268Y-106844898D01*
X159788811Y-106865419D01*
X159788813Y-106865419D01*
X159788819Y-106865422D01*
X159915986Y-106899497D01*
X159969174Y-106906500D01*
X160474854Y-106906500D01*
X160541893Y-106926185D01*
X160587648Y-106978989D01*
X160598854Y-107030500D01*
X160598854Y-109399500D01*
X160579169Y-109466539D01*
X160526365Y-109512294D01*
X160474854Y-109523500D01*
X160445084Y-109523500D01*
X160414654Y-109526353D01*
X160414652Y-109526353D01*
X160286473Y-109571206D01*
X160286471Y-109571207D01*
X160177204Y-109651850D01*
X160096561Y-109761117D01*
X160096560Y-109761119D01*
X160051707Y-109889298D01*
X160051707Y-109889300D01*
X160048854Y-109919730D01*
X160048854Y-111278269D01*
X160051707Y-111308699D01*
X160051707Y-111308701D01*
X160096521Y-111436769D01*
X160096561Y-111436882D01*
X160177204Y-111546150D01*
X160286472Y-111626793D01*
X160329199Y-111641744D01*
X160414653Y-111671646D01*
X160445084Y-111674500D01*
X160445088Y-111674500D01*
X161253624Y-111674500D01*
X161284053Y-111671646D01*
X161284055Y-111671646D01*
X161348144Y-111649219D01*
X161412236Y-111626793D01*
X161521504Y-111546150D01*
X161602147Y-111436882D01*
X161634227Y-111345203D01*
X161647000Y-111308701D01*
X161647000Y-111308699D01*
X161649854Y-111278269D01*
X161649854Y-109919730D01*
X161647000Y-109889300D01*
X161647000Y-109889298D01*
X161607144Y-109775398D01*
X161602147Y-109761118D01*
X161521504Y-109651850D01*
X161412236Y-109571207D01*
X161412234Y-109571206D01*
X161284054Y-109526353D01*
X161253624Y-109523500D01*
X161253620Y-109523500D01*
X161223854Y-109523500D01*
X161156815Y-109503815D01*
X161111060Y-109451011D01*
X161099854Y-109399500D01*
X161099854Y-106715527D01*
X161097471Y-106703547D01*
X161101177Y-106702809D01*
X161096011Y-106654846D01*
X161112167Y-106614925D01*
X161111037Y-106614273D01*
X161131494Y-106578840D01*
X161178893Y-106496743D01*
X161199422Y-106447181D01*
X161233497Y-106320014D01*
X161240500Y-106266826D01*
X161240500Y-105651000D01*
X161235348Y-105605272D01*
X161234866Y-105604272D01*
X161225184Y-105584166D01*
X161213830Y-105515225D01*
X161222346Y-105482900D01*
X161223863Y-105479236D01*
X161223867Y-105479231D01*
X161235500Y-105420748D01*
X161235500Y-104381252D01*
X161235500Y-104381249D01*
X161235499Y-104381247D01*
X161223868Y-104322770D01*
X161223867Y-104322769D01*
X161179552Y-104256447D01*
X161113230Y-104212132D01*
X161113229Y-104212131D01*
X161054752Y-104200500D01*
X161054748Y-104200500D01*
X159628082Y-104200500D01*
X159561043Y-104180815D01*
X159540401Y-104164181D01*
X158338402Y-102962181D01*
X158304917Y-102900858D01*
X158309901Y-102831166D01*
X158351773Y-102775233D01*
X158417237Y-102750816D01*
X158426083Y-102750500D01*
X161044877Y-102750500D01*
X161111916Y-102770185D01*
X161132558Y-102786819D01*
X161513181Y-103167442D01*
X161546666Y-103228765D01*
X161549500Y-103255123D01*
X161549500Y-104149829D01*
X161575307Y-104212132D01*
X161587636Y-104241897D01*
X161934672Y-104588933D01*
X162255681Y-104909941D01*
X162289166Y-104971264D01*
X162292000Y-104997622D01*
X162292000Y-105419752D01*
X162306015Y-105490209D01*
X162304529Y-105490504D01*
X162310530Y-105546319D01*
X162309391Y-105551895D01*
X162287000Y-105649993D01*
X162287000Y-106265832D01*
X162294002Y-106319007D01*
X162294003Y-106319014D01*
X162328078Y-106446181D01*
X162328080Y-106446188D01*
X162348601Y-106495731D01*
X162348608Y-106495745D01*
X162414434Y-106609759D01*
X162447090Y-106652316D01*
X162513181Y-106718407D01*
X162546666Y-106779730D01*
X162549500Y-106806088D01*
X162549500Y-109498894D01*
X162529815Y-109565933D01*
X162477011Y-109611688D01*
X162472954Y-109613454D01*
X162470181Y-109614602D01*
X162470172Y-109614607D01*
X162339069Y-109702207D01*
X162339061Y-109702213D01*
X162227567Y-109813707D01*
X162227564Y-109813711D01*
X162139963Y-109944814D01*
X162139956Y-109944827D01*
X162079618Y-110090498D01*
X162079615Y-110090510D01*
X162048854Y-110245153D01*
X162048854Y-110952846D01*
X162079615Y-111107489D01*
X162079618Y-111107501D01*
X162139956Y-111253172D01*
X162139963Y-111253185D01*
X162227564Y-111384288D01*
X162227567Y-111384292D01*
X162339061Y-111495786D01*
X162339065Y-111495789D01*
X162470168Y-111583390D01*
X162470181Y-111583397D01*
X162574950Y-111626793D01*
X162615857Y-111643737D01*
X162756164Y-111671646D01*
X162770507Y-111674499D01*
X162770510Y-111674500D01*
X162770512Y-111674500D01*
X162928198Y-111674500D01*
X162928199Y-111674499D01*
X163082851Y-111643737D01*
X163228533Y-111583394D01*
X163359643Y-111495789D01*
X163471143Y-111384289D01*
X163558748Y-111253179D01*
X163619091Y-111107497D01*
X163649854Y-110952842D01*
X163649854Y-110245158D01*
X163649854Y-110245155D01*
X163649853Y-110245153D01*
X163636279Y-110176912D01*
X163619091Y-110090503D01*
X163619089Y-110090498D01*
X163559234Y-109945994D01*
X163559218Y-109945956D01*
X163558748Y-109944821D01*
X163558745Y-109944816D01*
X163558744Y-109944814D01*
X163527799Y-109898502D01*
X180949353Y-109898502D01*
X180949851Y-109991031D01*
X180953839Y-110083638D01*
X180957813Y-110175920D01*
X180962867Y-110234497D01*
X180973721Y-110360292D01*
X180997549Y-110543823D01*
X181029246Y-110726139D01*
X181068760Y-110906927D01*
X181116014Y-111085847D01*
X181170931Y-111262595D01*
X181233383Y-111436769D01*
X181303293Y-111608149D01*
X181333752Y-111674500D01*
X181380493Y-111776320D01*
X181410021Y-111833965D01*
X181464862Y-111941027D01*
X181487198Y-111980362D01*
X181556241Y-112101954D01*
X181556247Y-112101964D01*
X181556249Y-112101967D01*
X181654457Y-112258800D01*
X181759326Y-112411267D01*
X181759332Y-112411275D01*
X181870668Y-112559097D01*
X181871953Y-112560658D01*
X181988257Y-112701988D01*
X182111898Y-112839702D01*
X182194161Y-112923753D01*
X182241335Y-112971953D01*
X182376347Y-113098520D01*
X182516679Y-113219160D01*
X182662071Y-113333651D01*
X182812254Y-113441781D01*
X182966950Y-113543350D01*
X183117947Y-113633440D01*
X183125885Y-113638176D01*
X183215563Y-113686576D01*
X183288728Y-113726064D01*
X183455214Y-113806870D01*
X183625022Y-113880440D01*
X183797837Y-113946635D01*
X183973341Y-114005335D01*
X184126911Y-114049449D01*
X184151197Y-114056426D01*
X184151200Y-114056426D01*
X184151208Y-114056429D01*
X184331108Y-114099824D01*
X184417419Y-114116751D01*
X184512711Y-114135440D01*
X184568513Y-114143908D01*
X184695673Y-114163208D01*
X184879663Y-114183080D01*
X185064337Y-114195018D01*
X185249354Y-114199000D01*
X185434371Y-114195018D01*
X185619045Y-114183080D01*
X185803035Y-114163208D01*
X185945742Y-114141548D01*
X185985996Y-114135440D01*
X186035888Y-114125655D01*
X186167600Y-114099824D01*
X186347500Y-114056429D01*
X186525367Y-114005335D01*
X186700871Y-113946635D01*
X186873686Y-113880440D01*
X187043494Y-113806870D01*
X187209980Y-113726064D01*
X187372835Y-113638169D01*
X187531758Y-113543350D01*
X187686454Y-113441781D01*
X187836637Y-113333651D01*
X187982029Y-113219160D01*
X188122361Y-113098520D01*
X188257373Y-112971953D01*
X188386815Y-112839696D01*
X188510447Y-112701992D01*
X188628040Y-112559097D01*
X188739376Y-112411275D01*
X188844250Y-112258800D01*
X188942467Y-112101954D01*
X189033845Y-111941028D01*
X189118215Y-111776320D01*
X189195421Y-111608134D01*
X189265319Y-111436783D01*
X189327781Y-111262583D01*
X189382691Y-111085856D01*
X189429946Y-110906932D01*
X189469461Y-110726140D01*
X189501160Y-110543815D01*
X189524986Y-110360295D01*
X189540895Y-110175920D01*
X189548856Y-109991032D01*
X189548856Y-109805972D01*
X189548518Y-109798132D01*
X189547802Y-109781500D01*
X189540895Y-109621084D01*
X189524986Y-109436709D01*
X189501160Y-109253189D01*
X189469461Y-109070864D01*
X189429946Y-108890072D01*
X189382691Y-108711148D01*
X189327781Y-108534421D01*
X189273079Y-108381862D01*
X189265324Y-108360234D01*
X189243090Y-108305728D01*
X189195421Y-108188870D01*
X189186896Y-108170300D01*
X189143099Y-108074892D01*
X189118215Y-108020684D01*
X189033845Y-107855976D01*
X188942467Y-107695050D01*
X188884516Y-107602506D01*
X188844250Y-107538203D01*
X188739381Y-107385736D01*
X188739376Y-107385729D01*
X188628040Y-107237907D01*
X188555358Y-107149586D01*
X188510450Y-107095015D01*
X188386809Y-106957301D01*
X188257375Y-106825053D01*
X188208321Y-106779067D01*
X188122361Y-106698484D01*
X187982029Y-106577844D01*
X187982024Y-106577840D01*
X187836636Y-106463352D01*
X187752597Y-106402845D01*
X187686454Y-106355223D01*
X187531758Y-106253654D01*
X187531753Y-106253651D01*
X187372822Y-106158827D01*
X187209995Y-106070948D01*
X187209993Y-106070947D01*
X187209980Y-106070940D01*
X187043494Y-105990134D01*
X186873686Y-105916564D01*
X186823062Y-105897173D01*
X186700877Y-105850371D01*
X186699130Y-105849786D01*
X186525367Y-105791669D01*
X186480075Y-105778658D01*
X186347510Y-105740577D01*
X186167592Y-105697178D01*
X185985996Y-105661563D01*
X185843292Y-105639905D01*
X185803035Y-105633796D01*
X185698537Y-105622509D01*
X185619049Y-105613924D01*
X185434357Y-105601985D01*
X185249354Y-105598003D01*
X185064350Y-105601985D01*
X184879658Y-105613924D01*
X184780298Y-105624656D01*
X184695673Y-105633796D01*
X184670963Y-105637546D01*
X184512711Y-105661563D01*
X184331115Y-105697178D01*
X184151197Y-105740577D01*
X183974991Y-105791194D01*
X183973341Y-105791669D01*
X183920726Y-105809267D01*
X183797830Y-105850371D01*
X183625021Y-105916564D01*
X183483246Y-105977989D01*
X183455214Y-105990134D01*
X183331935Y-106049969D01*
X183288712Y-106070948D01*
X183125885Y-106158827D01*
X182966954Y-106253651D01*
X182812248Y-106355227D01*
X182662071Y-106463352D01*
X182516683Y-106577840D01*
X182376338Y-106698492D01*
X182241332Y-106825053D01*
X182111898Y-106957301D01*
X181988257Y-107095015D01*
X181870670Y-107237904D01*
X181759326Y-107385736D01*
X181654457Y-107538203D01*
X181556249Y-107695036D01*
X181464862Y-107855976D01*
X181380486Y-108020698D01*
X181303293Y-108188854D01*
X181233383Y-108360234D01*
X181170931Y-108534408D01*
X181116014Y-108711156D01*
X181068760Y-108890076D01*
X181029246Y-109070864D01*
X180997549Y-109253180D01*
X180973721Y-109436711D01*
X180967200Y-109512294D01*
X180958373Y-109614602D01*
X180957813Y-109621087D01*
X180949851Y-109805972D01*
X180949353Y-109898502D01*
X163527799Y-109898502D01*
X163471143Y-109813711D01*
X163471140Y-109813707D01*
X163359646Y-109702213D01*
X163359642Y-109702210D01*
X163228539Y-109614609D01*
X163228530Y-109614604D01*
X163127047Y-109572569D01*
X163072644Y-109528728D01*
X163050579Y-109462434D01*
X163050500Y-109458008D01*
X163050500Y-107029500D01*
X163070185Y-106962461D01*
X163122989Y-106916706D01*
X163174500Y-106905500D01*
X163558320Y-106905500D01*
X163558326Y-106905500D01*
X163611514Y-106898497D01*
X163738681Y-106864422D01*
X163788243Y-106843893D01*
X163902257Y-106778067D01*
X163944817Y-106745409D01*
X164037909Y-106652317D01*
X164070567Y-106609757D01*
X164136393Y-106495743D01*
X164156922Y-106446181D01*
X164190997Y-106319014D01*
X164198000Y-106265826D01*
X164198000Y-105650000D01*
X164192848Y-105604272D01*
X164191747Y-105601986D01*
X164182684Y-105583166D01*
X164171330Y-105514225D01*
X164179846Y-105481900D01*
X164181363Y-105478236D01*
X164181367Y-105478231D01*
X164193000Y-105419748D01*
X164193000Y-104380252D01*
X164193000Y-104380249D01*
X164192999Y-104380247D01*
X164178985Y-104309790D01*
X164180471Y-104309494D01*
X164174468Y-104253685D01*
X164175608Y-104248101D01*
X164177647Y-104239164D01*
X164177649Y-104239163D01*
X164198000Y-104150000D01*
X164198000Y-103974500D01*
X164217685Y-103907461D01*
X164270489Y-103861706D01*
X164322000Y-103850500D01*
X172949826Y-103850500D01*
X172949828Y-103850500D01*
X173041897Y-103812364D01*
X182192281Y-94661977D01*
X182253602Y-94628494D01*
X182279620Y-94625660D01*
X189677200Y-94605829D01*
X189711431Y-94602101D01*
X189780206Y-94614412D01*
X189831409Y-94661952D01*
X189848854Y-94725372D01*
X189848854Y-109896293D01*
X189848736Y-109901702D01*
X189833110Y-110259555D01*
X189832699Y-110265587D01*
X189825399Y-110344369D01*
X189824867Y-110349113D01*
X189783382Y-110664222D01*
X189782332Y-110670822D01*
X189768729Y-110743593D01*
X189767901Y-110747647D01*
X189697815Y-111063781D01*
X189696020Y-111070877D01*
X189678393Y-111132827D01*
X189677388Y-111136179D01*
X189576935Y-111454776D01*
X189574301Y-111462282D01*
X189556895Y-111507213D01*
X189555829Y-111509873D01*
X189421585Y-111833965D01*
X189418023Y-111841785D01*
X189408990Y-111859925D01*
X189407980Y-111861909D01*
X189235134Y-112193940D01*
X189229725Y-112203308D01*
X189019957Y-112532576D01*
X189013753Y-112541438D01*
X188776067Y-112851194D01*
X188769113Y-112859481D01*
X188505346Y-113147329D01*
X188497697Y-113154978D01*
X188209840Y-113418748D01*
X188201553Y-113425701D01*
X187891809Y-113663372D01*
X187882947Y-113669577D01*
X187553669Y-113879347D01*
X187544301Y-113884756D01*
X187212215Y-114057627D01*
X187210227Y-114058639D01*
X187192143Y-114067643D01*
X187184327Y-114071203D01*
X186860251Y-114205436D01*
X186857592Y-114206501D01*
X186812625Y-114223921D01*
X186805119Y-114226555D01*
X186486572Y-114326990D01*
X186483217Y-114327996D01*
X186421222Y-114345634D01*
X186414128Y-114347428D01*
X186098000Y-114417510D01*
X186093944Y-114418338D01*
X186021175Y-114431939D01*
X186014577Y-114432989D01*
X185699468Y-114474471D01*
X185694724Y-114475003D01*
X185615948Y-114482302D01*
X185609916Y-114482713D01*
X185250903Y-114498386D01*
X185245650Y-114498504D01*
X105252131Y-114598495D01*
X105246566Y-114598377D01*
X104882664Y-114582485D01*
X104876633Y-114582074D01*
X104792023Y-114574234D01*
X104787277Y-114573702D01*
X104469003Y-114531797D01*
X104462403Y-114530746D01*
X104383835Y-114516058D01*
X104379783Y-114515231D01*
X104060620Y-114444472D01*
X104053523Y-114442677D01*
X103985726Y-114423386D01*
X103982373Y-114422381D01*
X103660945Y-114321032D01*
X103653441Y-114318398D01*
X103631778Y-114310006D01*
X103602718Y-114298748D01*
X103600090Y-114297695D01*
X103273365Y-114162358D01*
X103265546Y-114158797D01*
X103241592Y-114146869D01*
X103239608Y-114145858D01*
X102904427Y-113971372D01*
X102895058Y-113965963D01*
X102866278Y-113947628D01*
X102558417Y-113751495D01*
X102549557Y-113745291D01*
X102450886Y-113669577D01*
X102232895Y-113502305D01*
X102224612Y-113495355D01*
X102167553Y-113443070D01*
X101930326Y-113225689D01*
X101922677Y-113218040D01*
X101814071Y-113099516D01*
X101653011Y-112923749D01*
X101646062Y-112915466D01*
X101615408Y-112875517D01*
X101403083Y-112598806D01*
X101396878Y-112589945D01*
X101306704Y-112448400D01*
X101182410Y-112253296D01*
X101177003Y-112243929D01*
X101002520Y-111908748D01*
X101001530Y-111906803D01*
X100989562Y-111882767D01*
X100986027Y-111875007D01*
X100850655Y-111548187D01*
X100849714Y-111545841D01*
X100829966Y-111494863D01*
X100827345Y-111487393D01*
X100822528Y-111472116D01*
X100725992Y-111165941D01*
X100724992Y-111162602D01*
X100721599Y-111150676D01*
X100705713Y-111094843D01*
X100703921Y-111087759D01*
X100703718Y-111086843D01*
X100633151Y-110768536D01*
X100632332Y-110764520D01*
X100625157Y-110726139D01*
X100617639Y-110685924D01*
X100616601Y-110679402D01*
X100574679Y-110360967D01*
X100574164Y-110356380D01*
X100566320Y-110271729D01*
X100565912Y-110265733D01*
X100560726Y-110146955D01*
X100560610Y-110141332D01*
X100571001Y-106026289D01*
X100590855Y-105959302D01*
X100643775Y-105913681D01*
X100712651Y-105903868D01*
X100724000Y-105905500D01*
X103106277Y-105905500D01*
X103173316Y-105925185D01*
X103219071Y-105977989D01*
X103229015Y-106047147D01*
X103199990Y-106110703D01*
X103165171Y-106138621D01*
X103125885Y-106159823D01*
X102966954Y-106254647D01*
X102812248Y-106356223D01*
X102662071Y-106464348D01*
X102516683Y-106578836D01*
X102421107Y-106661000D01*
X102377497Y-106698492D01*
X102376338Y-106699488D01*
X102241332Y-106826049D01*
X102111898Y-106958297D01*
X101988257Y-107096011D01*
X101870670Y-107238900D01*
X101759326Y-107386732D01*
X101654457Y-107539199D01*
X101556249Y-107696032D01*
X101464862Y-107856972D01*
X101380486Y-108021694D01*
X101303293Y-108189850D01*
X101233383Y-108361230D01*
X101170931Y-108535404D01*
X101116014Y-108712152D01*
X101068760Y-108891072D01*
X101029246Y-109071860D01*
X100997549Y-109254176D01*
X100973721Y-109437707D01*
X100962658Y-109565933D01*
X100958558Y-109613454D01*
X100957813Y-109622083D01*
X100949851Y-109806968D01*
X100949353Y-109899498D01*
X100949851Y-109992027D01*
X100956030Y-110135515D01*
X100957813Y-110176916D01*
X100962867Y-110235493D01*
X100973721Y-110361288D01*
X100997549Y-110544819D01*
X101029246Y-110727135D01*
X101068760Y-110907923D01*
X101116014Y-111086843D01*
X101122433Y-111107501D01*
X101170621Y-111262595D01*
X101170931Y-111263591D01*
X101233383Y-111437765D01*
X101303293Y-111609145D01*
X101333295Y-111674500D01*
X101380493Y-111777316D01*
X101422809Y-111859925D01*
X101464862Y-111942023D01*
X101466693Y-111945247D01*
X101556241Y-112102950D01*
X101556247Y-112102960D01*
X101556249Y-112102963D01*
X101654457Y-112259796D01*
X101759326Y-112412263D01*
X101759332Y-112412271D01*
X101869919Y-112559099D01*
X101870670Y-112560095D01*
X101988257Y-112702984D01*
X102111898Y-112840698D01*
X102188571Y-112919038D01*
X102241335Y-112972949D01*
X102376347Y-113099516D01*
X102516679Y-113220156D01*
X102662071Y-113334647D01*
X102812254Y-113442777D01*
X102966950Y-113544346D01*
X103125873Y-113639165D01*
X103125885Y-113639172D01*
X103182221Y-113669577D01*
X103288728Y-113727060D01*
X103455214Y-113807866D01*
X103625022Y-113881436D01*
X103797837Y-113947631D01*
X103973341Y-114006331D01*
X104126911Y-114050445D01*
X104151197Y-114057422D01*
X104151200Y-114057422D01*
X104151208Y-114057425D01*
X104331108Y-114100820D01*
X104417419Y-114117747D01*
X104512711Y-114136436D01*
X104568513Y-114144904D01*
X104695673Y-114164204D01*
X104879663Y-114184076D01*
X105064337Y-114196014D01*
X105249354Y-114199996D01*
X105434371Y-114196014D01*
X105619045Y-114184076D01*
X105803035Y-114164204D01*
X105945742Y-114142544D01*
X105985996Y-114136436D01*
X106035888Y-114126651D01*
X106167600Y-114100820D01*
X106347500Y-114057425D01*
X106525367Y-114006331D01*
X106700871Y-113947631D01*
X106873686Y-113881436D01*
X107043494Y-113807866D01*
X107209980Y-113727060D01*
X107372835Y-113639165D01*
X107531758Y-113544346D01*
X107686454Y-113442777D01*
X107836637Y-113334647D01*
X107982029Y-113220156D01*
X108122361Y-113099516D01*
X108257373Y-112972949D01*
X108386815Y-112840692D01*
X108510447Y-112702988D01*
X108628040Y-112560093D01*
X108739376Y-112412271D01*
X108844250Y-112259796D01*
X108942467Y-112102950D01*
X109033845Y-111942024D01*
X109118215Y-111777316D01*
X109195421Y-111609130D01*
X109265319Y-111437779D01*
X109327781Y-111263579D01*
X109382691Y-111086852D01*
X109429946Y-110907928D01*
X109469461Y-110727136D01*
X109501160Y-110544811D01*
X109524986Y-110361291D01*
X109540895Y-110176916D01*
X109548856Y-109992028D01*
X109548856Y-109806968D01*
X109540895Y-109622080D01*
X109524986Y-109437705D01*
X109501160Y-109254185D01*
X109469461Y-109071860D01*
X109429946Y-108891068D01*
X109429946Y-108891066D01*
X109402037Y-108785391D01*
X109395512Y-108760687D01*
X123593100Y-108760687D01*
X123593100Y-111914741D01*
X123595376Y-111945246D01*
X123595377Y-111945249D01*
X123628740Y-112030403D01*
X123628741Y-112030404D01*
X123628740Y-112030404D01*
X123695740Y-112092645D01*
X123695741Y-112092646D01*
X123695745Y-112092649D01*
X125049865Y-112875517D01*
X125049876Y-112875523D01*
X125124532Y-112918678D01*
X125124578Y-112918704D01*
X125125158Y-112919039D01*
X125298625Y-113019253D01*
X125298678Y-113019284D01*
X125299134Y-113019547D01*
X125299195Y-113019583D01*
X125466524Y-113116174D01*
X125466591Y-113116212D01*
X125533805Y-113154978D01*
X125624857Y-113207492D01*
X125625031Y-113207593D01*
X125625240Y-113207713D01*
X125625270Y-113207731D01*
X125773662Y-113293238D01*
X125773744Y-113293285D01*
X125910425Y-113371961D01*
X125910519Y-113372015D01*
X125984103Y-113414319D01*
X126033593Y-113442772D01*
X126033992Y-113443001D01*
X126034112Y-113443070D01*
X126142883Y-113505506D01*
X126143046Y-113505599D01*
X126235619Y-113558625D01*
X126235840Y-113558751D01*
X126235841Y-113558752D01*
X126310737Y-113601520D01*
X126311149Y-113601755D01*
X126346857Y-113622036D01*
X126366935Y-113633440D01*
X126367642Y-113633839D01*
X126377146Y-113639172D01*
X126390782Y-113646824D01*
X126402776Y-113653554D01*
X126407142Y-113655936D01*
X126411590Y-113658292D01*
X126419952Y-113662723D01*
X126422501Y-113664051D01*
X126511140Y-113686577D01*
X126511141Y-113686576D01*
X126511142Y-113686577D01*
X126555957Y-113677494D01*
X126600774Y-113668412D01*
X126600777Y-113668410D01*
X126600779Y-113668410D01*
X126601785Y-113667954D01*
X126603543Y-113667161D01*
X126617013Y-113660472D01*
X126639699Y-113648151D01*
X126642104Y-113646824D01*
X126686325Y-113622036D01*
X126687122Y-113621587D01*
X126751386Y-113585187D01*
X126751794Y-113584955D01*
X126834606Y-113537799D01*
X126834858Y-113537656D01*
X126934726Y-113480601D01*
X126934905Y-113480498D01*
X127050336Y-113414398D01*
X127050362Y-113414443D01*
X127050448Y-113414387D01*
X127050425Y-113414347D01*
X127050474Y-113414319D01*
X127179972Y-113340030D01*
X127180084Y-113339965D01*
X127322158Y-113258343D01*
X127322255Y-113258288D01*
X127360543Y-113236263D01*
X127475317Y-113170243D01*
X127475450Y-113170166D01*
X127475793Y-113169968D01*
X127638241Y-113076417D01*
X127638323Y-113076370D01*
X127809161Y-112977883D01*
X127809240Y-112977838D01*
X127986678Y-112875441D01*
X127986716Y-112875418D01*
X129345187Y-112091072D01*
X129370206Y-112074055D01*
X129427386Y-112002678D01*
X129447933Y-111913560D01*
X129451410Y-110340230D01*
X129452339Y-109919730D01*
X140548854Y-109919730D01*
X140548854Y-111278269D01*
X140551707Y-111308699D01*
X140551707Y-111308701D01*
X140596521Y-111436769D01*
X140596561Y-111436882D01*
X140677204Y-111546150D01*
X140786472Y-111626793D01*
X140829199Y-111641744D01*
X140914653Y-111671646D01*
X140945084Y-111674500D01*
X140945088Y-111674500D01*
X141753624Y-111674500D01*
X141784053Y-111671646D01*
X141784055Y-111671646D01*
X141848144Y-111649219D01*
X141912236Y-111626793D01*
X142021504Y-111546150D01*
X142102147Y-111436882D01*
X142134227Y-111345203D01*
X142147000Y-111308701D01*
X142147000Y-111308699D01*
X142149854Y-111278269D01*
X142149854Y-110245153D01*
X144548854Y-110245153D01*
X144548854Y-110952846D01*
X144579615Y-111107489D01*
X144579618Y-111107501D01*
X144639956Y-111253172D01*
X144639963Y-111253185D01*
X144727564Y-111384288D01*
X144727567Y-111384292D01*
X144839061Y-111495786D01*
X144839065Y-111495789D01*
X144970168Y-111583390D01*
X144970181Y-111583397D01*
X145074950Y-111626793D01*
X145115857Y-111643737D01*
X145256164Y-111671646D01*
X145270507Y-111674499D01*
X145270510Y-111674500D01*
X145270512Y-111674500D01*
X145428198Y-111674500D01*
X145428199Y-111674499D01*
X145582851Y-111643737D01*
X145728533Y-111583394D01*
X145859643Y-111495789D01*
X145971143Y-111384289D01*
X146058748Y-111253179D01*
X146119091Y-111107497D01*
X146149854Y-110952842D01*
X146149854Y-110245158D01*
X146149854Y-110245155D01*
X146149853Y-110245153D01*
X146548854Y-110245153D01*
X146548854Y-110952846D01*
X146579615Y-111107489D01*
X146579618Y-111107501D01*
X146639956Y-111253172D01*
X146639963Y-111253185D01*
X146727564Y-111384288D01*
X146727567Y-111384292D01*
X146839061Y-111495786D01*
X146839065Y-111495789D01*
X146970168Y-111583390D01*
X146970181Y-111583397D01*
X147074950Y-111626793D01*
X147115857Y-111643737D01*
X147256164Y-111671646D01*
X147270507Y-111674499D01*
X147270510Y-111674500D01*
X147270512Y-111674500D01*
X147428198Y-111674500D01*
X147428199Y-111674499D01*
X147582851Y-111643737D01*
X147728533Y-111583394D01*
X147859643Y-111495789D01*
X147971143Y-111384289D01*
X148058748Y-111253179D01*
X148119091Y-111107497D01*
X148149854Y-110952842D01*
X148149854Y-110245158D01*
X148149854Y-110245155D01*
X148149853Y-110245153D01*
X148548854Y-110245153D01*
X148548854Y-110952846D01*
X148579615Y-111107489D01*
X148579618Y-111107501D01*
X148639956Y-111253172D01*
X148639963Y-111253185D01*
X148727564Y-111384288D01*
X148727567Y-111384292D01*
X148839061Y-111495786D01*
X148839065Y-111495789D01*
X148970168Y-111583390D01*
X148970181Y-111583397D01*
X149074950Y-111626793D01*
X149115857Y-111643737D01*
X149256164Y-111671646D01*
X149270507Y-111674499D01*
X149270510Y-111674500D01*
X149270512Y-111674500D01*
X149428198Y-111674500D01*
X149428199Y-111674499D01*
X149582851Y-111643737D01*
X149728533Y-111583394D01*
X149859643Y-111495789D01*
X149971143Y-111384289D01*
X150058748Y-111253179D01*
X150119091Y-111107497D01*
X150149854Y-110952842D01*
X150149854Y-110245158D01*
X150149854Y-110245155D01*
X150149853Y-110245153D01*
X150548854Y-110245153D01*
X150548854Y-110952846D01*
X150579615Y-111107489D01*
X150579618Y-111107501D01*
X150639956Y-111253172D01*
X150639963Y-111253185D01*
X150727564Y-111384288D01*
X150727567Y-111384292D01*
X150839061Y-111495786D01*
X150839065Y-111495789D01*
X150970168Y-111583390D01*
X150970181Y-111583397D01*
X151074950Y-111626793D01*
X151115857Y-111643737D01*
X151256164Y-111671646D01*
X151270507Y-111674499D01*
X151270510Y-111674500D01*
X151270512Y-111674500D01*
X151428198Y-111674500D01*
X151428199Y-111674499D01*
X151582851Y-111643737D01*
X151728533Y-111583394D01*
X151859643Y-111495789D01*
X151971143Y-111384289D01*
X152058748Y-111253179D01*
X152119091Y-111107497D01*
X152149854Y-110952842D01*
X152149854Y-110245158D01*
X152149854Y-110245155D01*
X152149853Y-110245153D01*
X152548854Y-110245153D01*
X152548854Y-110952846D01*
X152579615Y-111107489D01*
X152579618Y-111107501D01*
X152639956Y-111253172D01*
X152639963Y-111253185D01*
X152727564Y-111384288D01*
X152727567Y-111384292D01*
X152839061Y-111495786D01*
X152839065Y-111495789D01*
X152970168Y-111583390D01*
X152970181Y-111583397D01*
X153074950Y-111626793D01*
X153115857Y-111643737D01*
X153256164Y-111671646D01*
X153270507Y-111674499D01*
X153270510Y-111674500D01*
X153270512Y-111674500D01*
X153428198Y-111674500D01*
X153428199Y-111674499D01*
X153582851Y-111643737D01*
X153728533Y-111583394D01*
X153859643Y-111495789D01*
X153971143Y-111384289D01*
X154058748Y-111253179D01*
X154119091Y-111107497D01*
X154149854Y-110952842D01*
X154149854Y-110245158D01*
X154149854Y-110245155D01*
X154149853Y-110245153D01*
X154548854Y-110245153D01*
X154548854Y-110952846D01*
X154579615Y-111107489D01*
X154579618Y-111107501D01*
X154639956Y-111253172D01*
X154639963Y-111253185D01*
X154727564Y-111384288D01*
X154727567Y-111384292D01*
X154839061Y-111495786D01*
X154839065Y-111495789D01*
X154970168Y-111583390D01*
X154970181Y-111583397D01*
X155074950Y-111626793D01*
X155115857Y-111643737D01*
X155256164Y-111671646D01*
X155270507Y-111674499D01*
X155270510Y-111674500D01*
X155270512Y-111674500D01*
X155428198Y-111674500D01*
X155428199Y-111674499D01*
X155582851Y-111643737D01*
X155728533Y-111583394D01*
X155859643Y-111495789D01*
X155971143Y-111384289D01*
X156058748Y-111253179D01*
X156119091Y-111107497D01*
X156149854Y-110952842D01*
X156149854Y-110245158D01*
X156149854Y-110245155D01*
X156149853Y-110245153D01*
X156136279Y-110176912D01*
X156119091Y-110090503D01*
X156119089Y-110090498D01*
X156058751Y-109944827D01*
X156058744Y-109944814D01*
X155971143Y-109813711D01*
X155971140Y-109813707D01*
X155859646Y-109702213D01*
X155859642Y-109702210D01*
X155728539Y-109614609D01*
X155728526Y-109614602D01*
X155582855Y-109554264D01*
X155582843Y-109554261D01*
X155428199Y-109523500D01*
X155428196Y-109523500D01*
X155270512Y-109523500D01*
X155270509Y-109523500D01*
X155115864Y-109554261D01*
X155115852Y-109554264D01*
X154970181Y-109614602D01*
X154970168Y-109614609D01*
X154839065Y-109702210D01*
X154839061Y-109702213D01*
X154727567Y-109813707D01*
X154727564Y-109813711D01*
X154639963Y-109944814D01*
X154639956Y-109944827D01*
X154579618Y-110090498D01*
X154579615Y-110090510D01*
X154548854Y-110245153D01*
X154149853Y-110245153D01*
X154136279Y-110176912D01*
X154119091Y-110090503D01*
X154119089Y-110090498D01*
X154058751Y-109944827D01*
X154058744Y-109944814D01*
X153971143Y-109813711D01*
X153971140Y-109813707D01*
X153859646Y-109702213D01*
X153859642Y-109702210D01*
X153728539Y-109614609D01*
X153728526Y-109614602D01*
X153582855Y-109554264D01*
X153582843Y-109554261D01*
X153428199Y-109523500D01*
X153428196Y-109523500D01*
X153270512Y-109523500D01*
X153270509Y-109523500D01*
X153115864Y-109554261D01*
X153115852Y-109554264D01*
X152970181Y-109614602D01*
X152970168Y-109614609D01*
X152839065Y-109702210D01*
X152839061Y-109702213D01*
X152727567Y-109813707D01*
X152727564Y-109813711D01*
X152639963Y-109944814D01*
X152639956Y-109944827D01*
X152579618Y-110090498D01*
X152579615Y-110090510D01*
X152548854Y-110245153D01*
X152149853Y-110245153D01*
X152136279Y-110176912D01*
X152119091Y-110090503D01*
X152119089Y-110090498D01*
X152058751Y-109944827D01*
X152058744Y-109944814D01*
X151971143Y-109813711D01*
X151971140Y-109813707D01*
X151859646Y-109702213D01*
X151859642Y-109702210D01*
X151728539Y-109614609D01*
X151728526Y-109614602D01*
X151582855Y-109554264D01*
X151582843Y-109554261D01*
X151428199Y-109523500D01*
X151428196Y-109523500D01*
X151270512Y-109523500D01*
X151270509Y-109523500D01*
X151115864Y-109554261D01*
X151115852Y-109554264D01*
X150970181Y-109614602D01*
X150970168Y-109614609D01*
X150839065Y-109702210D01*
X150839061Y-109702213D01*
X150727567Y-109813707D01*
X150727564Y-109813711D01*
X150639963Y-109944814D01*
X150639956Y-109944827D01*
X150579618Y-110090498D01*
X150579615Y-110090510D01*
X150548854Y-110245153D01*
X150149853Y-110245153D01*
X150136279Y-110176912D01*
X150119091Y-110090503D01*
X150119089Y-110090498D01*
X150058751Y-109944827D01*
X150058744Y-109944814D01*
X149971143Y-109813711D01*
X149971140Y-109813707D01*
X149859646Y-109702213D01*
X149859642Y-109702210D01*
X149728539Y-109614609D01*
X149728526Y-109614602D01*
X149582855Y-109554264D01*
X149582843Y-109554261D01*
X149428199Y-109523500D01*
X149428196Y-109523500D01*
X149270512Y-109523500D01*
X149270509Y-109523500D01*
X149115864Y-109554261D01*
X149115852Y-109554264D01*
X148970181Y-109614602D01*
X148970168Y-109614609D01*
X148839065Y-109702210D01*
X148839061Y-109702213D01*
X148727567Y-109813707D01*
X148727564Y-109813711D01*
X148639963Y-109944814D01*
X148639956Y-109944827D01*
X148579618Y-110090498D01*
X148579615Y-110090510D01*
X148548854Y-110245153D01*
X148149853Y-110245153D01*
X148136279Y-110176912D01*
X148119091Y-110090503D01*
X148119089Y-110090498D01*
X148058751Y-109944827D01*
X148058744Y-109944814D01*
X147971143Y-109813711D01*
X147971140Y-109813707D01*
X147859646Y-109702213D01*
X147859642Y-109702210D01*
X147728539Y-109614609D01*
X147728526Y-109614602D01*
X147582855Y-109554264D01*
X147582843Y-109554261D01*
X147428199Y-109523500D01*
X147428196Y-109523500D01*
X147270512Y-109523500D01*
X147270509Y-109523500D01*
X147115864Y-109554261D01*
X147115852Y-109554264D01*
X146970181Y-109614602D01*
X146970168Y-109614609D01*
X146839065Y-109702210D01*
X146839061Y-109702213D01*
X146727567Y-109813707D01*
X146727564Y-109813711D01*
X146639963Y-109944814D01*
X146639956Y-109944827D01*
X146579618Y-110090498D01*
X146579615Y-110090510D01*
X146548854Y-110245153D01*
X146149853Y-110245153D01*
X146136279Y-110176912D01*
X146119091Y-110090503D01*
X146119089Y-110090498D01*
X146058751Y-109944827D01*
X146058744Y-109944814D01*
X145971143Y-109813711D01*
X145971140Y-109813707D01*
X145859646Y-109702213D01*
X145859642Y-109702210D01*
X145728539Y-109614609D01*
X145728526Y-109614602D01*
X145582855Y-109554264D01*
X145582843Y-109554261D01*
X145428199Y-109523500D01*
X145428196Y-109523500D01*
X145270512Y-109523500D01*
X145270509Y-109523500D01*
X145115864Y-109554261D01*
X145115852Y-109554264D01*
X144970181Y-109614602D01*
X144970168Y-109614609D01*
X144839065Y-109702210D01*
X144839061Y-109702213D01*
X144727567Y-109813707D01*
X144727564Y-109813711D01*
X144639963Y-109944814D01*
X144639956Y-109944827D01*
X144579618Y-110090498D01*
X144579615Y-110090510D01*
X144548854Y-110245153D01*
X142149854Y-110245153D01*
X142149854Y-109919730D01*
X142147000Y-109889300D01*
X142147000Y-109889298D01*
X142107144Y-109775398D01*
X142102147Y-109761118D01*
X142021504Y-109651850D01*
X141912236Y-109571207D01*
X141912234Y-109571206D01*
X141784054Y-109526353D01*
X141753624Y-109523500D01*
X141753620Y-109523500D01*
X140945088Y-109523500D01*
X140945084Y-109523500D01*
X140914654Y-109526353D01*
X140914652Y-109526353D01*
X140786473Y-109571206D01*
X140786471Y-109571207D01*
X140677204Y-109651850D01*
X140596561Y-109761117D01*
X140596560Y-109761119D01*
X140551707Y-109889298D01*
X140551707Y-109889300D01*
X140548854Y-109919730D01*
X129452339Y-109919730D01*
X129454887Y-108766899D01*
X129452586Y-108735774D01*
X129419156Y-108650647D01*
X129352101Y-108588455D01*
X128028699Y-107824756D01*
X128028699Y-107824755D01*
X128028695Y-107824754D01*
X128014572Y-107816603D01*
X127993591Y-107804495D01*
X127993589Y-107804494D01*
X127993588Y-107804493D01*
X127811944Y-107699669D01*
X127811942Y-107699668D01*
X127643583Y-107602506D01*
X127643581Y-107602505D01*
X127519380Y-107530824D01*
X127519378Y-107530823D01*
X127333302Y-107423427D01*
X127333300Y-107423426D01*
X127267988Y-107385729D01*
X127194021Y-107343036D01*
X127067484Y-107269996D01*
X126955254Y-107205210D01*
X126955252Y-107205208D01*
X126955252Y-107205209D01*
X126868977Y-107155401D01*
X126868971Y-107155397D01*
X126779976Y-107104012D01*
X126779976Y-107104011D01*
X126779966Y-107104006D01*
X126724817Y-107072157D01*
X126679909Y-107046210D01*
X126663778Y-107036873D01*
X126652835Y-107030500D01*
X126622208Y-107012664D01*
X126593873Y-106998953D01*
X126503438Y-106985320D01*
X126503437Y-106985320D01*
X126503436Y-106985320D01*
X126503434Y-106985320D01*
X126416044Y-107012276D01*
X126416041Y-107012277D01*
X123695860Y-108582717D01*
X123695830Y-108582736D01*
X123670475Y-108600023D01*
X123670474Y-108600024D01*
X123613451Y-108671528D01*
X123593100Y-108760687D01*
X109395512Y-108760687D01*
X109382693Y-108712152D01*
X109382384Y-108711156D01*
X109327781Y-108535417D01*
X109272722Y-108381862D01*
X109265324Y-108361230D01*
X109264918Y-108360234D01*
X109195421Y-108189866D01*
X109194956Y-108188854D01*
X109118221Y-108021694D01*
X109118215Y-108021680D01*
X109033845Y-107856972D01*
X108942467Y-107696046D01*
X108883981Y-107602647D01*
X108844250Y-107539199D01*
X108739381Y-107386732D01*
X108706469Y-107343034D01*
X108628040Y-107238903D01*
X108569243Y-107167455D01*
X108510450Y-107096011D01*
X108386809Y-106958297D01*
X108257375Y-106826049D01*
X108256313Y-106825053D01*
X108122361Y-106699480D01*
X107982029Y-106578840D01*
X107836637Y-106464349D01*
X107835252Y-106463352D01*
X107774802Y-106419828D01*
X107686454Y-106356219D01*
X107531758Y-106254650D01*
X107397582Y-106174596D01*
X107372822Y-106159823D01*
X107333537Y-106138621D01*
X107283890Y-106089458D01*
X107268705Y-106021258D01*
X107292802Y-105955675D01*
X107348530Y-105913531D01*
X107392431Y-105905500D01*
X114875991Y-105905500D01*
X114876000Y-105905500D01*
X114919684Y-105900803D01*
X114948875Y-105894452D01*
X114971174Y-105889602D01*
X114971190Y-105889598D01*
X114971195Y-105889597D01*
X114981373Y-105887110D01*
X115044727Y-105853349D01*
X115113145Y-105839194D01*
X115163573Y-105854561D01*
X115204563Y-105877490D01*
X115271602Y-105897175D01*
X115329500Y-105905500D01*
X115329504Y-105905500D01*
X148330366Y-105905500D01*
X148397405Y-105925185D01*
X148443160Y-105977989D01*
X148453825Y-106017925D01*
X148454054Y-106020367D01*
X148454054Y-106020376D01*
X148456072Y-106041900D01*
X148456829Y-106049972D01*
X148500438Y-106174596D01*
X148578842Y-106280830D01*
X148578843Y-106280831D01*
X148685077Y-106359235D01*
X148685078Y-106359235D01*
X148685079Y-106359236D01*
X148809705Y-106402845D01*
X148809704Y-106402845D01*
X148839294Y-106405620D01*
X148839298Y-106405620D01*
X149544814Y-106405620D01*
X149574403Y-106402845D01*
X149699029Y-106359236D01*
X149805265Y-106280831D01*
X149883670Y-106174595D01*
X149927279Y-106049969D01*
X149929500Y-106026289D01*
X149930054Y-106020380D01*
X149930054Y-105439859D01*
X149927279Y-105410270D01*
X149883669Y-105285643D01*
X149805266Y-105179410D01*
X149805263Y-105179408D01*
X149776398Y-105158104D01*
X149734149Y-105102455D01*
X149726034Y-105058335D01*
X149726034Y-104661900D01*
X149728584Y-104653214D01*
X149727296Y-104644253D01*
X149738274Y-104620212D01*
X149745719Y-104594861D01*
X149752559Y-104588933D01*
X149756321Y-104580697D01*
X149778555Y-104566407D01*
X149798523Y-104549106D01*
X149809037Y-104546818D01*
X149815099Y-104542923D01*
X149850034Y-104537900D01*
X150099254Y-104537900D01*
X150166293Y-104557585D01*
X150212048Y-104610389D01*
X150223254Y-104661900D01*
X150223254Y-105270818D01*
X150216295Y-105311774D01*
X150181830Y-105410266D01*
X150181828Y-105410275D01*
X150179054Y-105439859D01*
X150179054Y-106020380D01*
X150181828Y-106049969D01*
X150225438Y-106174596D01*
X150303842Y-106280830D01*
X150303843Y-106280831D01*
X150410077Y-106359235D01*
X150410078Y-106359235D01*
X150410079Y-106359236D01*
X150534705Y-106402845D01*
X150534704Y-106402845D01*
X150564294Y-106405620D01*
X150564298Y-106405620D01*
X151269814Y-106405620D01*
X151299403Y-106402845D01*
X151424029Y-106359236D01*
X151530265Y-106280831D01*
X151608670Y-106174595D01*
X151652279Y-106049969D01*
X151654500Y-106026289D01*
X151655054Y-106020380D01*
X151655054Y-105439859D01*
X151652279Y-105410270D01*
X151608669Y-105285643D01*
X151530265Y-105179409D01*
X151530264Y-105179408D01*
X151424030Y-105101004D01*
X151299402Y-105057394D01*
X151299403Y-105057394D01*
X151269814Y-105054620D01*
X151269810Y-105054620D01*
X150848254Y-105054620D01*
X150781215Y-105034935D01*
X150735460Y-104982131D01*
X150724254Y-104930620D01*
X150724254Y-104551072D01*
X150743939Y-104484033D01*
X150745153Y-104482179D01*
X150745303Y-104481953D01*
X150745306Y-104481952D01*
X150789621Y-104415631D01*
X150801254Y-104357148D01*
X150801254Y-103504852D01*
X150801254Y-103504849D01*
X150801253Y-103504847D01*
X150789622Y-103446370D01*
X150789621Y-103446369D01*
X150745306Y-103380047D01*
X150678984Y-103335732D01*
X150678983Y-103335731D01*
X150620506Y-103324100D01*
X150620502Y-103324100D01*
X150327006Y-103324100D01*
X150327001Y-103324100D01*
X150256544Y-103338115D01*
X150256196Y-103336367D01*
X150202754Y-103342379D01*
X150183695Y-103339134D01*
X150178605Y-103335733D01*
X150120122Y-103324100D01*
X150095378Y-103324100D01*
X150085045Y-103322341D01*
X150062685Y-103311423D01*
X150038816Y-103304415D01*
X150031838Y-103296362D01*
X150022260Y-103291686D01*
X150009351Y-103270410D01*
X149993061Y-103251611D01*
X149991544Y-103241063D01*
X149986016Y-103231952D01*
X149986658Y-103207080D01*
X149983117Y-103182453D01*
X149986879Y-103165163D01*
X149997172Y-103130108D01*
X149997172Y-103130106D01*
X149997175Y-103130097D01*
X150005500Y-103072199D01*
X150005500Y-102424000D01*
X150000803Y-102380316D01*
X149996897Y-102362364D01*
X149989602Y-102328825D01*
X149989348Y-102327789D01*
X149987110Y-102318627D01*
X149944100Y-102237915D01*
X149898345Y-102185111D01*
X149898339Y-102185104D01*
X149880757Y-102167160D01*
X149880756Y-102167159D01*
X149880754Y-102167157D01*
X149880752Y-102167156D01*
X149880750Y-102167154D01*
X149800940Y-102122511D01*
X149800935Y-102122509D01*
X149733903Y-102102826D01*
X149733899Y-102102825D01*
X149733898Y-102102825D01*
X149676000Y-102094500D01*
X147954803Y-102094500D01*
X147954795Y-102094500D01*
X147901619Y-102101501D01*
X147901600Y-102101505D01*
X147889752Y-102104680D01*
X147889660Y-102104705D01*
X147840017Y-102117963D01*
X147839999Y-102117894D01*
X147754508Y-102140801D01*
X147754423Y-102140798D01*
X147722512Y-102145000D01*
X147677489Y-102145000D01*
X147645396Y-102140775D01*
X147543609Y-102113502D01*
X147541393Y-102112886D01*
X147535890Y-102111299D01*
X147528166Y-102109073D01*
X147524703Y-102108432D01*
X147511317Y-102104963D01*
X147511079Y-102104821D01*
X147510333Y-102104703D01*
X147498400Y-102101506D01*
X147498380Y-102101501D01*
X147445204Y-102094500D01*
X147445197Y-102094500D01*
X147054803Y-102094500D01*
X147054795Y-102094500D01*
X147001619Y-102101501D01*
X147001600Y-102101505D01*
X146989752Y-102104680D01*
X146989660Y-102104705D01*
X146940017Y-102117963D01*
X146939999Y-102117894D01*
X146854508Y-102140801D01*
X146854423Y-102140798D01*
X146822512Y-102145000D01*
X146777489Y-102145000D01*
X146745396Y-102140775D01*
X146643609Y-102113502D01*
X146641393Y-102112886D01*
X146635890Y-102111299D01*
X146628166Y-102109073D01*
X146624703Y-102108432D01*
X146611317Y-102104963D01*
X146611079Y-102104821D01*
X146610333Y-102104703D01*
X146598400Y-102101506D01*
X146598380Y-102101501D01*
X146545204Y-102094500D01*
X146545197Y-102094500D01*
X146334258Y-102094500D01*
X146332402Y-102094508D01*
X146330188Y-102094528D01*
X146301305Y-102099072D01*
X146301031Y-102097163D01*
X146270072Y-102101615D01*
X146222303Y-102119430D01*
X146222111Y-102119468D01*
X146222007Y-102119135D01*
X146219034Y-102120065D01*
X146219023Y-102120068D01*
X146203964Y-102124784D01*
X146203957Y-102124786D01*
X146194845Y-102129146D01*
X146194666Y-102129231D01*
X146189752Y-102131571D01*
X146188230Y-102132140D01*
X146187280Y-102132749D01*
X146180573Y-102135945D01*
X146173412Y-102137093D01*
X146127242Y-102148000D01*
X145371837Y-102148000D01*
X145319857Y-102136579D01*
X145289387Y-102122510D01*
X145289385Y-102122509D01*
X145289382Y-102122508D01*
X145222350Y-102102825D01*
X145211848Y-102101315D01*
X145148294Y-102072288D01*
X145110522Y-102013508D01*
X145105500Y-101978578D01*
X145105500Y-101324027D01*
X145105499Y-101324011D01*
X145100803Y-101280334D01*
X145089595Y-101228815D01*
X145087111Y-101218652D01*
X145087110Y-101218651D01*
X145087110Y-101218648D01*
X145044102Y-101137936D01*
X144998348Y-101085132D01*
X144998347Y-101085131D01*
X144998341Y-101085124D01*
X144980759Y-101067180D01*
X144980758Y-101067179D01*
X144980756Y-101067177D01*
X144900938Y-101022529D01*
X144900935Y-101022528D01*
X144900933Y-101022527D01*
X144854638Y-101008933D01*
X144833900Y-101002844D01*
X144804276Y-100998584D01*
X144775996Y-100994518D01*
X144776000Y-100994518D01*
X125729500Y-100994501D01*
X125662460Y-100974816D01*
X125616706Y-100922012D01*
X125605500Y-100870501D01*
X125605500Y-99249896D01*
X125604787Y-99232817D01*
X125604787Y-99232808D01*
X125603070Y-99212243D01*
X125583126Y-99139546D01*
X125569173Y-99110823D01*
X125552605Y-99076717D01*
X125552599Y-99076707D01*
X125552596Y-99076700D01*
X125540250Y-99054804D01*
X125474707Y-98991021D01*
X125474706Y-98991020D01*
X125474703Y-98991018D01*
X125415055Y-98954662D01*
X125415037Y-98954652D01*
X125361279Y-98931633D01*
X125361272Y-98931630D01*
X125351895Y-98929118D01*
X125321995Y-98916733D01*
X125302498Y-98905477D01*
X125283000Y-98894219D01*
X125257320Y-98874514D01*
X125225485Y-98842679D01*
X125205778Y-98816996D01*
X125183265Y-98778001D01*
X125170878Y-98748096D01*
X125159225Y-98704605D01*
X125155000Y-98672512D01*
X125155000Y-98627484D01*
X125159223Y-98595398D01*
X125170879Y-98551893D01*
X125183263Y-98521997D01*
X125205780Y-98482998D01*
X125225478Y-98457327D01*
X125257323Y-98425482D01*
X125282999Y-98405781D01*
X125321995Y-98383266D01*
X125351902Y-98370877D01*
X125361285Y-98368364D01*
X125377615Y-98363250D01*
X125397029Y-98356271D01*
X125397031Y-98356269D01*
X125397033Y-98356269D01*
X125435135Y-98333967D01*
X125462085Y-98318193D01*
X125488487Y-98295315D01*
X125514885Y-98272442D01*
X125514886Y-98272440D01*
X125514889Y-98272438D01*
X125532843Y-98254847D01*
X125577490Y-98175030D01*
X125597175Y-98107991D01*
X125605500Y-98050093D01*
X125605500Y-94809739D01*
X136087000Y-94809739D01*
X136087000Y-95390260D01*
X136089774Y-95419849D01*
X136133384Y-95544476D01*
X136211788Y-95650710D01*
X136211789Y-95650711D01*
X136318023Y-95729115D01*
X136318024Y-95729115D01*
X136318025Y-95729116D01*
X136442651Y-95772725D01*
X136442650Y-95772725D01*
X136472240Y-95775500D01*
X136472244Y-95775500D01*
X137177760Y-95775500D01*
X137207349Y-95772725D01*
X137215468Y-95769884D01*
X137331975Y-95729116D01*
X137438211Y-95650711D01*
X137516616Y-95544475D01*
X137537937Y-95483545D01*
X137551555Y-95464557D01*
X137561265Y-95443297D01*
X137571541Y-95436693D01*
X137578659Y-95426769D01*
X137600382Y-95418157D01*
X137620043Y-95405523D01*
X137639209Y-95402767D01*
X137643612Y-95401022D01*
X137654978Y-95400500D01*
X137670022Y-95400500D01*
X137737061Y-95420185D01*
X137782816Y-95472989D01*
X137787063Y-95483545D01*
X137808383Y-95544475D01*
X137808384Y-95544476D01*
X137886788Y-95650710D01*
X137886789Y-95650711D01*
X137993023Y-95729115D01*
X137993024Y-95729115D01*
X137993025Y-95729116D01*
X138117651Y-95772725D01*
X138117650Y-95772725D01*
X138147240Y-95775500D01*
X138147244Y-95775500D01*
X138752760Y-95775500D01*
X138782349Y-95772725D01*
X138790468Y-95769884D01*
X138906975Y-95729116D01*
X139013211Y-95650711D01*
X139091616Y-95544475D01*
X139135225Y-95419849D01*
X139135384Y-95418157D01*
X139138000Y-95390260D01*
X139138000Y-94809739D01*
X139135225Y-94780150D01*
X139107421Y-94700694D01*
X139091616Y-94655525D01*
X139079276Y-94638805D01*
X139013211Y-94549289D01*
X139013210Y-94549288D01*
X138906976Y-94470884D01*
X138782348Y-94427274D01*
X138782349Y-94427274D01*
X138752760Y-94424500D01*
X138752756Y-94424500D01*
X138147244Y-94424500D01*
X138147240Y-94424500D01*
X138117650Y-94427274D01*
X137993023Y-94470884D01*
X137886789Y-94549288D01*
X137886788Y-94549289D01*
X137808384Y-94655523D01*
X137808383Y-94655524D01*
X137787063Y-94716455D01*
X137773444Y-94735442D01*
X137763735Y-94756703D01*
X137753458Y-94763306D01*
X137746341Y-94773231D01*
X137724617Y-94781842D01*
X137704957Y-94794477D01*
X137685790Y-94797232D01*
X137681388Y-94798978D01*
X137670022Y-94799500D01*
X137654978Y-94799500D01*
X137587939Y-94779815D01*
X137542184Y-94727011D01*
X137537937Y-94716455D01*
X137516616Y-94655524D01*
X137516615Y-94655523D01*
X137438211Y-94549289D01*
X137438210Y-94549288D01*
X137331976Y-94470884D01*
X137207348Y-94427274D01*
X137207349Y-94427274D01*
X137177760Y-94424500D01*
X137177756Y-94424500D01*
X136472244Y-94424500D01*
X136472240Y-94424500D01*
X136442650Y-94427274D01*
X136318023Y-94470884D01*
X136211789Y-94549288D01*
X136211788Y-94549289D01*
X136133384Y-94655523D01*
X136089774Y-94780150D01*
X136087000Y-94809739D01*
X125605500Y-94809739D01*
X125605500Y-94734000D01*
X125600803Y-94690316D01*
X125595304Y-94665037D01*
X125589602Y-94638825D01*
X125589348Y-94637789D01*
X125587110Y-94628627D01*
X125544100Y-94547915D01*
X125498345Y-94495111D01*
X125498339Y-94495104D01*
X125480757Y-94477160D01*
X125480756Y-94477159D01*
X125480754Y-94477157D01*
X125480752Y-94477156D01*
X125480750Y-94477154D01*
X125400940Y-94432511D01*
X125400935Y-94432509D01*
X125333903Y-94412826D01*
X125333899Y-94412825D01*
X125333898Y-94412825D01*
X125276000Y-94404500D01*
X115329500Y-94404500D01*
X115329492Y-94404500D01*
X115285813Y-94409197D01*
X115234325Y-94420397D01*
X115224127Y-94422890D01*
X115224123Y-94422892D01*
X115169927Y-94451771D01*
X115101506Y-94465925D01*
X115051080Y-94450558D01*
X115018814Y-94432510D01*
X115000937Y-94422510D01*
X115000936Y-94422509D01*
X115000935Y-94422509D01*
X114933903Y-94402826D01*
X114933899Y-94402825D01*
X114933898Y-94402825D01*
X114876000Y-94394500D01*
X100725776Y-94394500D01*
X100658737Y-94374815D01*
X100612982Y-94322011D01*
X100601777Y-94270088D01*
X100602556Y-94035500D01*
X100649687Y-79849227D01*
X100649855Y-79801273D01*
X100649864Y-79801242D01*
X100649972Y-79796297D01*
X100651040Y-79771826D01*
X100665531Y-79439920D01*
X100665937Y-79433956D01*
X100673562Y-79351670D01*
X100674081Y-79347042D01*
X100715153Y-79035070D01*
X100716191Y-79028548D01*
X100730468Y-78952170D01*
X100731258Y-78948305D01*
X100800632Y-78635375D01*
X100802396Y-78628402D01*
X100821119Y-78562597D01*
X100822095Y-78559340D01*
X100921437Y-78244267D01*
X100924036Y-78236860D01*
X100943071Y-78187723D01*
X100944083Y-78185201D01*
X101076725Y-77864972D01*
X101080265Y-77857199D01*
X101091613Y-77834410D01*
X101092578Y-77832513D01*
X101263572Y-77504035D01*
X101268974Y-77494680D01*
X101478762Y-77165373D01*
X101484944Y-77156545D01*
X101722634Y-76846778D01*
X101729584Y-76838496D01*
X101993367Y-76550625D01*
X102000994Y-76542998D01*
X102288878Y-76279198D01*
X102297130Y-76272274D01*
X102606902Y-76034575D01*
X102615733Y-76028392D01*
X102945044Y-75818594D01*
X102954385Y-75813200D01*
X103283110Y-75642074D01*
X103284686Y-75641272D01*
X103307561Y-75629881D01*
X103315278Y-75626366D01*
X103635710Y-75493636D01*
X103638107Y-75492676D01*
X103687191Y-75473661D01*
X103694601Y-75471059D01*
X104009753Y-75371690D01*
X104012957Y-75370729D01*
X104078756Y-75352007D01*
X104085740Y-75350242D01*
X104398615Y-75280876D01*
X104402533Y-75280075D01*
X104478867Y-75265805D01*
X104485457Y-75264756D01*
X104797390Y-75223686D01*
X104802030Y-75223166D01*
X104884285Y-75215543D01*
X104890305Y-75215133D01*
X105245585Y-75199618D01*
X105250995Y-75199500D01*
X109671210Y-75199500D01*
X109738249Y-75219185D01*
G37*
%TD.AperFunction*%
%TA.AperFunction,Conductor*%
G36*
X181284628Y-94648013D02*
G01*
X181330524Y-94700694D01*
X181340653Y-94769826D01*
X181311798Y-94833459D01*
X181305549Y-94840189D01*
X172832558Y-103313181D01*
X172771235Y-103346666D01*
X172744877Y-103349500D01*
X164234105Y-103349500D01*
X164167066Y-103329815D01*
X164126718Y-103287500D01*
X164125967Y-103286200D01*
X164070567Y-103190243D01*
X164064589Y-103182453D01*
X164037909Y-103147683D01*
X163944816Y-103054590D01*
X163902259Y-103021934D01*
X163788245Y-102956108D01*
X163788231Y-102956101D01*
X163738688Y-102935580D01*
X163738681Y-102935578D01*
X163611514Y-102901503D01*
X163611509Y-102901502D01*
X163611507Y-102901502D01*
X163558332Y-102894500D01*
X163558326Y-102894500D01*
X162926674Y-102894500D01*
X162926667Y-102894500D01*
X162873492Y-102901502D01*
X162873486Y-102901503D01*
X162746311Y-102935580D01*
X162696768Y-102956101D01*
X162696754Y-102956108D01*
X162582740Y-103021934D01*
X162540183Y-103054590D01*
X162447090Y-103147683D01*
X162414434Y-103190240D01*
X162348608Y-103304254D01*
X162348601Y-103304268D01*
X162328080Y-103353811D01*
X162328078Y-103353819D01*
X162294273Y-103479974D01*
X162257910Y-103539633D01*
X162195062Y-103570162D01*
X162125687Y-103561867D01*
X162071809Y-103517382D01*
X162050535Y-103450829D01*
X162050500Y-103447879D01*
X162050500Y-103050173D01*
X162050499Y-103050170D01*
X162012364Y-102958103D01*
X161941897Y-102887636D01*
X161341897Y-102287636D01*
X161330963Y-102283107D01*
X161249829Y-102249500D01*
X161249828Y-102249500D01*
X156037401Y-102249500D01*
X155970362Y-102229815D01*
X155924607Y-102177011D01*
X155914663Y-102107853D01*
X155943688Y-102044297D01*
X155949720Y-102037819D01*
X155974031Y-102013508D01*
X156000218Y-101987321D01*
X156038354Y-101895252D01*
X156038354Y-101795596D01*
X156038354Y-95675172D01*
X156000218Y-95583103D01*
X155929751Y-95512636D01*
X155361173Y-94944058D01*
X155346469Y-94917130D01*
X155329877Y-94891312D01*
X155328985Y-94885111D01*
X155327688Y-94882735D01*
X155324854Y-94856377D01*
X155324854Y-94814528D01*
X155344539Y-94747489D01*
X155397343Y-94701734D01*
X155466171Y-94691744D01*
X155506548Y-94697439D01*
X181217538Y-94628508D01*
X181284628Y-94648013D01*
G37*
%TD.AperFunction*%
%TA.AperFunction,Conductor*%
G36*
X149504601Y-93659223D02*
G01*
X149548102Y-93670879D01*
X149577999Y-93683263D01*
X149617000Y-93705780D01*
X149642679Y-93725485D01*
X149674513Y-93757319D01*
X149694218Y-93782998D01*
X149729709Y-93844470D01*
X149729710Y-93844472D01*
X149732040Y-93848509D01*
X149732502Y-93849568D01*
X149734281Y-93852392D01*
X149735472Y-93854455D01*
X149735485Y-93854476D01*
X149754245Y-93886963D01*
X149764830Y-93900861D01*
X149765602Y-93902085D01*
X149795675Y-93936791D01*
X149811362Y-93954895D01*
X149819146Y-93962839D01*
X149828948Y-93972843D01*
X149828949Y-93972844D01*
X149828951Y-93972845D01*
X149902445Y-94013955D01*
X149908765Y-94017490D01*
X149975804Y-94037175D01*
X150033702Y-94045500D01*
X150033706Y-94045500D01*
X150566293Y-94045500D01*
X150566298Y-94045500D01*
X150569960Y-94045467D01*
X150574392Y-94045388D01*
X150574398Y-94045387D01*
X150574399Y-94045387D01*
X150591471Y-94042463D01*
X150635639Y-94034901D01*
X150701932Y-94012832D01*
X150725248Y-94003450D01*
X150797039Y-93946791D01*
X150840878Y-93892386D01*
X150860663Y-93859030D01*
X150861578Y-93859559D01*
X150906315Y-93782072D01*
X150906818Y-93781234D01*
X150907898Y-93780237D01*
X150925482Y-93757321D01*
X150957322Y-93725481D01*
X150982985Y-93705787D01*
X151022005Y-93683259D01*
X151051893Y-93670880D01*
X151095397Y-93659223D01*
X151127485Y-93655000D01*
X151172512Y-93655000D01*
X151204605Y-93659225D01*
X151261941Y-93674588D01*
X151281355Y-93681567D01*
X151286790Y-93684049D01*
X151286793Y-93684050D01*
X151331142Y-93699399D01*
X151336449Y-93701155D01*
X151336454Y-93701155D01*
X151336457Y-93701156D01*
X151427595Y-93708609D01*
X151427598Y-93708609D01*
X151427598Y-93708608D01*
X151427600Y-93708609D01*
X151496758Y-93698665D01*
X151521373Y-93693573D01*
X151525142Y-93691564D01*
X151529323Y-93690699D01*
X151529714Y-93690558D01*
X151529734Y-93690614D01*
X151593559Y-93677407D01*
X151658772Y-93702487D01*
X151700074Y-93758843D01*
X151704623Y-93774633D01*
X151710396Y-93801167D01*
X151710403Y-93801195D01*
X151712890Y-93811373D01*
X151755900Y-93892085D01*
X151764564Y-93902084D01*
X151801660Y-93944895D01*
X151819242Y-93962839D01*
X151819246Y-93962843D01*
X151819247Y-93962844D01*
X151819249Y-93962845D01*
X151899059Y-94007488D01*
X151899063Y-94007490D01*
X151966102Y-94027175D01*
X152024000Y-94035500D01*
X152024004Y-94035500D01*
X152470434Y-94035500D01*
X152470439Y-94035500D01*
X152474103Y-94035467D01*
X152478533Y-94035388D01*
X152478540Y-94035387D01*
X152539773Y-94024902D01*
X152606066Y-94002835D01*
X152629386Y-93993453D01*
X152701177Y-93936794D01*
X152737562Y-93891640D01*
X152737561Y-93891639D01*
X152756500Y-93868136D01*
X152756537Y-93868090D01*
X152756758Y-93867816D01*
X152756759Y-93867814D01*
X152757292Y-93867153D01*
X152758646Y-93864638D01*
X152805780Y-93782998D01*
X152825476Y-93757329D01*
X152857326Y-93725478D01*
X152882996Y-93705781D01*
X152921997Y-93683263D01*
X152951905Y-93670877D01*
X152995394Y-93659225D01*
X153027485Y-93655000D01*
X153072513Y-93655000D01*
X153104601Y-93659223D01*
X153148102Y-93670879D01*
X153177999Y-93683263D01*
X153217000Y-93705780D01*
X153242679Y-93725485D01*
X153274513Y-93757319D01*
X153294219Y-93783000D01*
X153351858Y-93882835D01*
X153355162Y-93884848D01*
X153357159Y-93887098D01*
X153360311Y-93890738D01*
X153369890Y-93903710D01*
X153373899Y-93906440D01*
X153398923Y-93935319D01*
X153407199Y-93944871D01*
X153407229Y-93944904D01*
X153417013Y-93954889D01*
X153424807Y-93962843D01*
X153504624Y-94007490D01*
X153571663Y-94027175D01*
X153629561Y-94035500D01*
X153878377Y-94035500D01*
X153945416Y-94055185D01*
X153991171Y-94107989D01*
X154001115Y-94177147D01*
X153995418Y-94200456D01*
X153976628Y-94254151D01*
X153973854Y-94283739D01*
X153973854Y-94889260D01*
X153976628Y-94918849D01*
X154020238Y-95043476D01*
X154098642Y-95149710D01*
X154098643Y-95149711D01*
X154204877Y-95228115D01*
X154204878Y-95228115D01*
X154204879Y-95228116D01*
X154329505Y-95271725D01*
X154329504Y-95271725D01*
X154359094Y-95274500D01*
X154931731Y-95274500D01*
X154998770Y-95294185D01*
X155019412Y-95310819D01*
X155501035Y-95792442D01*
X155534520Y-95853765D01*
X155537354Y-95880123D01*
X155537354Y-95964560D01*
X155517669Y-96031599D01*
X155464865Y-96077354D01*
X155395707Y-96087298D01*
X155332151Y-96058273D01*
X155296313Y-96005516D01*
X155287087Y-95979150D01*
X155278470Y-95954525D01*
X155246347Y-95911000D01*
X155200065Y-95848289D01*
X155200064Y-95848288D01*
X155093830Y-95769884D01*
X154969202Y-95726274D01*
X154969203Y-95726274D01*
X154939614Y-95723500D01*
X154939610Y-95723500D01*
X154359098Y-95723500D01*
X154359094Y-95723500D01*
X154329504Y-95726274D01*
X154204877Y-95769884D01*
X154098645Y-95848286D01*
X154098638Y-95848293D01*
X154079923Y-95873652D01*
X154024275Y-95915902D01*
X153971995Y-95923748D01*
X153959829Y-95922945D01*
X153915246Y-95911000D01*
X153783462Y-95911000D01*
X153782515Y-95911253D01*
X153774589Y-95910731D01*
X153745468Y-95900053D01*
X153715709Y-95891315D01*
X153711900Y-95887745D01*
X153708990Y-95886678D01*
X153704653Y-95880951D01*
X153682978Y-95860633D01*
X153600065Y-95748289D01*
X153600064Y-95748288D01*
X153493830Y-95669884D01*
X153369202Y-95626274D01*
X153369203Y-95626274D01*
X153339614Y-95623500D01*
X153339610Y-95623500D01*
X152759098Y-95623500D01*
X152759094Y-95623500D01*
X152729504Y-95626274D01*
X152604877Y-95669884D01*
X152498643Y-95748288D01*
X152498642Y-95748289D01*
X152420239Y-95854522D01*
X152404878Y-95898420D01*
X152364155Y-95955195D01*
X152299202Y-95980941D01*
X152230641Y-95967484D01*
X152225837Y-95964850D01*
X152105043Y-95895109D01*
X152105040Y-95895108D01*
X151977746Y-95861000D01*
X151845962Y-95861000D01*
X151845847Y-95861000D01*
X151778808Y-95841315D01*
X151746077Y-95810633D01*
X151700065Y-95748289D01*
X151700064Y-95748288D01*
X151593830Y-95669884D01*
X151469202Y-95626274D01*
X151469203Y-95626274D01*
X151439614Y-95623500D01*
X151439610Y-95623500D01*
X150859098Y-95623500D01*
X150859094Y-95623500D01*
X150829504Y-95626274D01*
X150704877Y-95669884D01*
X150598643Y-95748288D01*
X150598642Y-95748289D01*
X150520238Y-95854523D01*
X150476628Y-95979150D01*
X150473854Y-96008739D01*
X150473854Y-96631376D01*
X150465209Y-96660816D01*
X150458686Y-96690803D01*
X150454931Y-96695818D01*
X150454169Y-96698415D01*
X150437535Y-96719057D01*
X150335260Y-96821332D01*
X150273937Y-96854817D01*
X150204245Y-96849833D01*
X150148312Y-96807961D01*
X150123895Y-96742497D01*
X150124121Y-96722071D01*
X150124854Y-96714256D01*
X150124854Y-96008739D01*
X150122079Y-95979150D01*
X150092671Y-95895108D01*
X150078470Y-95854525D01*
X150077909Y-95853765D01*
X150000065Y-95748289D01*
X150000064Y-95748288D01*
X149893830Y-95669884D01*
X149769202Y-95626274D01*
X149769203Y-95626274D01*
X149739614Y-95623500D01*
X149739610Y-95623500D01*
X149159098Y-95623500D01*
X149159094Y-95623500D01*
X149129505Y-95626274D01*
X149076119Y-95644955D01*
X149006340Y-95648516D01*
X148945713Y-95613787D01*
X148913486Y-95551793D01*
X148911165Y-95527692D01*
X148913723Y-94131380D01*
X148933531Y-94064378D01*
X148986418Y-94018719D01*
X148998554Y-94013956D01*
X149001932Y-94012832D01*
X149025248Y-94003450D01*
X149097039Y-93946791D01*
X149140878Y-93892386D01*
X149160663Y-93859030D01*
X149161578Y-93859559D01*
X149206315Y-93782072D01*
X149206818Y-93781234D01*
X149207898Y-93780237D01*
X149225482Y-93757321D01*
X149257322Y-93725481D01*
X149282985Y-93705787D01*
X149322005Y-93683259D01*
X149351893Y-93670880D01*
X149395397Y-93659223D01*
X149427485Y-93655000D01*
X149472513Y-93655000D01*
X149504601Y-93659223D01*
G37*
%TD.AperFunction*%
%TD*%
%TA.AperFunction,Conductor*%
%TO.N,Net-(L1-Pad1)*%
G36*
X151483039Y-75219685D02*
G01*
X151528794Y-75272489D01*
X151540000Y-75324000D01*
X151540000Y-93382463D01*
X151520315Y-93449502D01*
X151467511Y-93495257D01*
X151398353Y-93505201D01*
X151354004Y-93489852D01*
X151343193Y-93483610D01*
X151343188Y-93483609D01*
X151343187Y-93483608D01*
X151343186Y-93483608D01*
X151215892Y-93449500D01*
X151084108Y-93449500D01*
X150956812Y-93483608D01*
X150842686Y-93549500D01*
X150842683Y-93549502D01*
X150749502Y-93642683D01*
X150749498Y-93642689D01*
X150683611Y-93756807D01*
X150680862Y-93763447D01*
X150637023Y-93817852D01*
X150570730Y-93839921D01*
X150566298Y-93840000D01*
X150033702Y-93840000D01*
X149966663Y-93820315D01*
X149920908Y-93767511D01*
X149919138Y-93763447D01*
X149916394Y-93756821D01*
X149916392Y-93756814D01*
X149850500Y-93642686D01*
X149757314Y-93549500D01*
X149663363Y-93495257D01*
X149643187Y-93483608D01*
X149579539Y-93466554D01*
X149515892Y-93449500D01*
X149384108Y-93449500D01*
X149256812Y-93483608D01*
X149142686Y-93549500D01*
X149142683Y-93549502D01*
X149049502Y-93642683D01*
X149049498Y-93642689D01*
X148983611Y-93756807D01*
X148980862Y-93763447D01*
X148937023Y-93817852D01*
X148870730Y-93839921D01*
X148866298Y-93840000D01*
X148708757Y-93840000D01*
X148700513Y-98341439D01*
X148683767Y-98403441D01*
X148679164Y-98411372D01*
X148663005Y-98431637D01*
X148661144Y-98439789D01*
X148659287Y-98442569D01*
X148658359Y-98447229D01*
X148658359Y-98447231D01*
X148651335Y-98482542D01*
X148650610Y-98485935D01*
X148642655Y-98520793D01*
X148642654Y-98520802D01*
X148642654Y-99656842D01*
X148622969Y-99723881D01*
X148570165Y-99769636D01*
X148518500Y-99780842D01*
X144601388Y-99775968D01*
X144571178Y-99767056D01*
X144540502Y-99759904D01*
X144537292Y-99757061D01*
X144534373Y-99756200D01*
X144512566Y-99738335D01*
X144506738Y-99732331D01*
X144500065Y-99723289D01*
X144492647Y-99717814D01*
X144485524Y-99710476D01*
X144473808Y-99688240D01*
X144458612Y-99668222D01*
X144456119Y-99654666D01*
X144452955Y-99648661D01*
X144453613Y-99641042D01*
X144450500Y-99624109D01*
X144450500Y-99534110D01*
X144450500Y-99534108D01*
X144416392Y-99406814D01*
X144350500Y-99292686D01*
X144257314Y-99199500D01*
X144257313Y-99199499D01*
X144256318Y-99198504D01*
X144222834Y-99137180D01*
X144220000Y-99110823D01*
X144220000Y-96750000D01*
X139874000Y-96750000D01*
X139806961Y-96730315D01*
X139761206Y-96677511D01*
X139750000Y-96626000D01*
X139750000Y-75324000D01*
X139769685Y-75256961D01*
X139822489Y-75211206D01*
X139874000Y-75200000D01*
X151416000Y-75200000D01*
X151483039Y-75219685D01*
G37*
%TD.AperFunction*%
%TD*%
M02*
