%TF.GenerationSoftware,KiCad,Pcbnew,9.0.4*%
%TF.CreationDate,2025-09-17T13:52:31+02:00*%
%TF.ProjectId,switching_psu,73776974-6368-4696-9e67-5f7073752e6b,rev?*%
%TF.SameCoordinates,Original*%
%TF.FileFunction,Legend,Top*%
%TF.FilePolarity,Positive*%
%FSLAX46Y46*%
G04 Gerber Fmt 4.6, Leading zero omitted, Abs format (unit mm)*
G04 Created by KiCad (PCBNEW 9.0.4) date 2025-09-17 13:52:31*
%MOMM*%
%LPD*%
G01*
G04 APERTURE LIST*
%ADD10C,0.150000*%
%ADD11C,0.120000*%
%ADD12C,0.152400*%
G04 APERTURE END LIST*
D10*
X139195833Y-94054819D02*
X138862500Y-93578628D01*
X138624405Y-94054819D02*
X138624405Y-93054819D01*
X138624405Y-93054819D02*
X139005357Y-93054819D01*
X139005357Y-93054819D02*
X139100595Y-93102438D01*
X139100595Y-93102438D02*
X139148214Y-93150057D01*
X139148214Y-93150057D02*
X139195833Y-93245295D01*
X139195833Y-93245295D02*
X139195833Y-93388152D01*
X139195833Y-93388152D02*
X139148214Y-93483390D01*
X139148214Y-93483390D02*
X139100595Y-93531009D01*
X139100595Y-93531009D02*
X139005357Y-93578628D01*
X139005357Y-93578628D02*
X138624405Y-93578628D01*
X140148214Y-94054819D02*
X139576786Y-94054819D01*
X139862500Y-94054819D02*
X139862500Y-93054819D01*
X139862500Y-93054819D02*
X139767262Y-93197676D01*
X139767262Y-93197676D02*
X139672024Y-93292914D01*
X139672024Y-93292914D02*
X139576786Y-93340533D01*
X135319642Y-94029580D02*
X135272023Y-94077200D01*
X135272023Y-94077200D02*
X135129166Y-94124819D01*
X135129166Y-94124819D02*
X135033928Y-94124819D01*
X135033928Y-94124819D02*
X134891071Y-94077200D01*
X134891071Y-94077200D02*
X134795833Y-93981961D01*
X134795833Y-93981961D02*
X134748214Y-93886723D01*
X134748214Y-93886723D02*
X134700595Y-93696247D01*
X134700595Y-93696247D02*
X134700595Y-93553390D01*
X134700595Y-93553390D02*
X134748214Y-93362914D01*
X134748214Y-93362914D02*
X134795833Y-93267676D01*
X134795833Y-93267676D02*
X134891071Y-93172438D01*
X134891071Y-93172438D02*
X135033928Y-93124819D01*
X135033928Y-93124819D02*
X135129166Y-93124819D01*
X135129166Y-93124819D02*
X135272023Y-93172438D01*
X135272023Y-93172438D02*
X135319642Y-93220057D01*
X136272023Y-94124819D02*
X135700595Y-94124819D01*
X135986309Y-94124819D02*
X135986309Y-93124819D01*
X135986309Y-93124819D02*
X135891071Y-93267676D01*
X135891071Y-93267676D02*
X135795833Y-93362914D01*
X135795833Y-93362914D02*
X135700595Y-93410533D01*
X136891071Y-93124819D02*
X136986309Y-93124819D01*
X136986309Y-93124819D02*
X137081547Y-93172438D01*
X137081547Y-93172438D02*
X137129166Y-93220057D01*
X137129166Y-93220057D02*
X137176785Y-93315295D01*
X137176785Y-93315295D02*
X137224404Y-93505771D01*
X137224404Y-93505771D02*
X137224404Y-93743866D01*
X137224404Y-93743866D02*
X137176785Y-93934342D01*
X137176785Y-93934342D02*
X137129166Y-94029580D01*
X137129166Y-94029580D02*
X137081547Y-94077200D01*
X137081547Y-94077200D02*
X136986309Y-94124819D01*
X136986309Y-94124819D02*
X136891071Y-94124819D01*
X136891071Y-94124819D02*
X136795833Y-94077200D01*
X136795833Y-94077200D02*
X136748214Y-94029580D01*
X136748214Y-94029580D02*
X136700595Y-93934342D01*
X136700595Y-93934342D02*
X136652976Y-93743866D01*
X136652976Y-93743866D02*
X136652976Y-93505771D01*
X136652976Y-93505771D02*
X136700595Y-93315295D01*
X136700595Y-93315295D02*
X136748214Y-93220057D01*
X136748214Y-93220057D02*
X136795833Y-93172438D01*
X136795833Y-93172438D02*
X136891071Y-93124819D01*
X175619580Y-99080357D02*
X175667200Y-99127976D01*
X175667200Y-99127976D02*
X175714819Y-99270833D01*
X175714819Y-99270833D02*
X175714819Y-99366071D01*
X175714819Y-99366071D02*
X175667200Y-99508928D01*
X175667200Y-99508928D02*
X175571961Y-99604166D01*
X175571961Y-99604166D02*
X175476723Y-99651785D01*
X175476723Y-99651785D02*
X175286247Y-99699404D01*
X175286247Y-99699404D02*
X175143390Y-99699404D01*
X175143390Y-99699404D02*
X174952914Y-99651785D01*
X174952914Y-99651785D02*
X174857676Y-99604166D01*
X174857676Y-99604166D02*
X174762438Y-99508928D01*
X174762438Y-99508928D02*
X174714819Y-99366071D01*
X174714819Y-99366071D02*
X174714819Y-99270833D01*
X174714819Y-99270833D02*
X174762438Y-99127976D01*
X174762438Y-99127976D02*
X174810057Y-99080357D01*
X175714819Y-98127976D02*
X175714819Y-98699404D01*
X175714819Y-98413690D02*
X174714819Y-98413690D01*
X174714819Y-98413690D02*
X174857676Y-98508928D01*
X174857676Y-98508928D02*
X174952914Y-98604166D01*
X174952914Y-98604166D02*
X175000533Y-98699404D01*
X174810057Y-97747023D02*
X174762438Y-97699404D01*
X174762438Y-97699404D02*
X174714819Y-97604166D01*
X174714819Y-97604166D02*
X174714819Y-97366071D01*
X174714819Y-97366071D02*
X174762438Y-97270833D01*
X174762438Y-97270833D02*
X174810057Y-97223214D01*
X174810057Y-97223214D02*
X174905295Y-97175595D01*
X174905295Y-97175595D02*
X175000533Y-97175595D01*
X175000533Y-97175595D02*
X175143390Y-97223214D01*
X175143390Y-97223214D02*
X175714819Y-97794642D01*
X175714819Y-97794642D02*
X175714819Y-97175595D01*
X177219580Y-99080357D02*
X177267200Y-99127976D01*
X177267200Y-99127976D02*
X177314819Y-99270833D01*
X177314819Y-99270833D02*
X177314819Y-99366071D01*
X177314819Y-99366071D02*
X177267200Y-99508928D01*
X177267200Y-99508928D02*
X177171961Y-99604166D01*
X177171961Y-99604166D02*
X177076723Y-99651785D01*
X177076723Y-99651785D02*
X176886247Y-99699404D01*
X176886247Y-99699404D02*
X176743390Y-99699404D01*
X176743390Y-99699404D02*
X176552914Y-99651785D01*
X176552914Y-99651785D02*
X176457676Y-99604166D01*
X176457676Y-99604166D02*
X176362438Y-99508928D01*
X176362438Y-99508928D02*
X176314819Y-99366071D01*
X176314819Y-99366071D02*
X176314819Y-99270833D01*
X176314819Y-99270833D02*
X176362438Y-99127976D01*
X176362438Y-99127976D02*
X176410057Y-99080357D01*
X177314819Y-98127976D02*
X177314819Y-98699404D01*
X177314819Y-98413690D02*
X176314819Y-98413690D01*
X176314819Y-98413690D02*
X176457676Y-98508928D01*
X176457676Y-98508928D02*
X176552914Y-98604166D01*
X176552914Y-98604166D02*
X176600533Y-98699404D01*
X176743390Y-97556547D02*
X176695771Y-97651785D01*
X176695771Y-97651785D02*
X176648152Y-97699404D01*
X176648152Y-97699404D02*
X176552914Y-97747023D01*
X176552914Y-97747023D02*
X176505295Y-97747023D01*
X176505295Y-97747023D02*
X176410057Y-97699404D01*
X176410057Y-97699404D02*
X176362438Y-97651785D01*
X176362438Y-97651785D02*
X176314819Y-97556547D01*
X176314819Y-97556547D02*
X176314819Y-97366071D01*
X176314819Y-97366071D02*
X176362438Y-97270833D01*
X176362438Y-97270833D02*
X176410057Y-97223214D01*
X176410057Y-97223214D02*
X176505295Y-97175595D01*
X176505295Y-97175595D02*
X176552914Y-97175595D01*
X176552914Y-97175595D02*
X176648152Y-97223214D01*
X176648152Y-97223214D02*
X176695771Y-97270833D01*
X176695771Y-97270833D02*
X176743390Y-97366071D01*
X176743390Y-97366071D02*
X176743390Y-97556547D01*
X176743390Y-97556547D02*
X176791009Y-97651785D01*
X176791009Y-97651785D02*
X176838628Y-97699404D01*
X176838628Y-97699404D02*
X176933866Y-97747023D01*
X176933866Y-97747023D02*
X177124342Y-97747023D01*
X177124342Y-97747023D02*
X177219580Y-97699404D01*
X177219580Y-97699404D02*
X177267200Y-97651785D01*
X177267200Y-97651785D02*
X177314819Y-97556547D01*
X177314819Y-97556547D02*
X177314819Y-97366071D01*
X177314819Y-97366071D02*
X177267200Y-97270833D01*
X177267200Y-97270833D02*
X177219580Y-97223214D01*
X177219580Y-97223214D02*
X177124342Y-97175595D01*
X177124342Y-97175595D02*
X176933866Y-97175595D01*
X176933866Y-97175595D02*
X176838628Y-97223214D01*
X176838628Y-97223214D02*
X176791009Y-97270833D01*
X176791009Y-97270833D02*
X176743390Y-97366071D01*
X169219580Y-99080357D02*
X169267200Y-99127976D01*
X169267200Y-99127976D02*
X169314819Y-99270833D01*
X169314819Y-99270833D02*
X169314819Y-99366071D01*
X169314819Y-99366071D02*
X169267200Y-99508928D01*
X169267200Y-99508928D02*
X169171961Y-99604166D01*
X169171961Y-99604166D02*
X169076723Y-99651785D01*
X169076723Y-99651785D02*
X168886247Y-99699404D01*
X168886247Y-99699404D02*
X168743390Y-99699404D01*
X168743390Y-99699404D02*
X168552914Y-99651785D01*
X168552914Y-99651785D02*
X168457676Y-99604166D01*
X168457676Y-99604166D02*
X168362438Y-99508928D01*
X168362438Y-99508928D02*
X168314819Y-99366071D01*
X168314819Y-99366071D02*
X168314819Y-99270833D01*
X168314819Y-99270833D02*
X168362438Y-99127976D01*
X168362438Y-99127976D02*
X168410057Y-99080357D01*
X169314819Y-98127976D02*
X169314819Y-98699404D01*
X169314819Y-98413690D02*
X168314819Y-98413690D01*
X168314819Y-98413690D02*
X168457676Y-98508928D01*
X168457676Y-98508928D02*
X168552914Y-98604166D01*
X168552914Y-98604166D02*
X168600533Y-98699404D01*
X168314819Y-97270833D02*
X168314819Y-97461309D01*
X168314819Y-97461309D02*
X168362438Y-97556547D01*
X168362438Y-97556547D02*
X168410057Y-97604166D01*
X168410057Y-97604166D02*
X168552914Y-97699404D01*
X168552914Y-97699404D02*
X168743390Y-97747023D01*
X168743390Y-97747023D02*
X169124342Y-97747023D01*
X169124342Y-97747023D02*
X169219580Y-97699404D01*
X169219580Y-97699404D02*
X169267200Y-97651785D01*
X169267200Y-97651785D02*
X169314819Y-97556547D01*
X169314819Y-97556547D02*
X169314819Y-97366071D01*
X169314819Y-97366071D02*
X169267200Y-97270833D01*
X169267200Y-97270833D02*
X169219580Y-97223214D01*
X169219580Y-97223214D02*
X169124342Y-97175595D01*
X169124342Y-97175595D02*
X168886247Y-97175595D01*
X168886247Y-97175595D02*
X168791009Y-97223214D01*
X168791009Y-97223214D02*
X168743390Y-97270833D01*
X168743390Y-97270833D02*
X168695771Y-97366071D01*
X168695771Y-97366071D02*
X168695771Y-97556547D01*
X168695771Y-97556547D02*
X168743390Y-97651785D01*
X168743390Y-97651785D02*
X168791009Y-97699404D01*
X168791009Y-97699404D02*
X168886247Y-97747023D01*
X172419580Y-99080357D02*
X172467200Y-99127976D01*
X172467200Y-99127976D02*
X172514819Y-99270833D01*
X172514819Y-99270833D02*
X172514819Y-99366071D01*
X172514819Y-99366071D02*
X172467200Y-99508928D01*
X172467200Y-99508928D02*
X172371961Y-99604166D01*
X172371961Y-99604166D02*
X172276723Y-99651785D01*
X172276723Y-99651785D02*
X172086247Y-99699404D01*
X172086247Y-99699404D02*
X171943390Y-99699404D01*
X171943390Y-99699404D02*
X171752914Y-99651785D01*
X171752914Y-99651785D02*
X171657676Y-99604166D01*
X171657676Y-99604166D02*
X171562438Y-99508928D01*
X171562438Y-99508928D02*
X171514819Y-99366071D01*
X171514819Y-99366071D02*
X171514819Y-99270833D01*
X171514819Y-99270833D02*
X171562438Y-99127976D01*
X171562438Y-99127976D02*
X171610057Y-99080357D01*
X172514819Y-98127976D02*
X172514819Y-98699404D01*
X172514819Y-98413690D02*
X171514819Y-98413690D01*
X171514819Y-98413690D02*
X171657676Y-98508928D01*
X171657676Y-98508928D02*
X171752914Y-98604166D01*
X171752914Y-98604166D02*
X171800533Y-98699404D01*
X171848152Y-97270833D02*
X172514819Y-97270833D01*
X171467200Y-97508928D02*
X172181485Y-97747023D01*
X172181485Y-97747023D02*
X172181485Y-97127976D01*
X178819580Y-99080357D02*
X178867200Y-99127976D01*
X178867200Y-99127976D02*
X178914819Y-99270833D01*
X178914819Y-99270833D02*
X178914819Y-99366071D01*
X178914819Y-99366071D02*
X178867200Y-99508928D01*
X178867200Y-99508928D02*
X178771961Y-99604166D01*
X178771961Y-99604166D02*
X178676723Y-99651785D01*
X178676723Y-99651785D02*
X178486247Y-99699404D01*
X178486247Y-99699404D02*
X178343390Y-99699404D01*
X178343390Y-99699404D02*
X178152914Y-99651785D01*
X178152914Y-99651785D02*
X178057676Y-99604166D01*
X178057676Y-99604166D02*
X177962438Y-99508928D01*
X177962438Y-99508928D02*
X177914819Y-99366071D01*
X177914819Y-99366071D02*
X177914819Y-99270833D01*
X177914819Y-99270833D02*
X177962438Y-99127976D01*
X177962438Y-99127976D02*
X178010057Y-99080357D01*
X178914819Y-98127976D02*
X178914819Y-98699404D01*
X178914819Y-98413690D02*
X177914819Y-98413690D01*
X177914819Y-98413690D02*
X178057676Y-98508928D01*
X178057676Y-98508928D02*
X178152914Y-98604166D01*
X178152914Y-98604166D02*
X178200533Y-98699404D01*
X177914819Y-97794642D02*
X177914819Y-97127976D01*
X177914819Y-97127976D02*
X178914819Y-97556547D01*
X166659580Y-100442857D02*
X166707200Y-100490476D01*
X166707200Y-100490476D02*
X166754819Y-100633333D01*
X166754819Y-100633333D02*
X166754819Y-100728571D01*
X166754819Y-100728571D02*
X166707200Y-100871428D01*
X166707200Y-100871428D02*
X166611961Y-100966666D01*
X166611961Y-100966666D02*
X166516723Y-101014285D01*
X166516723Y-101014285D02*
X166326247Y-101061904D01*
X166326247Y-101061904D02*
X166183390Y-101061904D01*
X166183390Y-101061904D02*
X165992914Y-101014285D01*
X165992914Y-101014285D02*
X165897676Y-100966666D01*
X165897676Y-100966666D02*
X165802438Y-100871428D01*
X165802438Y-100871428D02*
X165754819Y-100728571D01*
X165754819Y-100728571D02*
X165754819Y-100633333D01*
X165754819Y-100633333D02*
X165802438Y-100490476D01*
X165802438Y-100490476D02*
X165850057Y-100442857D01*
X166754819Y-99490476D02*
X166754819Y-100061904D01*
X166754819Y-99776190D02*
X165754819Y-99776190D01*
X165754819Y-99776190D02*
X165897676Y-99871428D01*
X165897676Y-99871428D02*
X165992914Y-99966666D01*
X165992914Y-99966666D02*
X166040533Y-100061904D01*
X166754819Y-98538095D02*
X166754819Y-99109523D01*
X166754819Y-98823809D02*
X165754819Y-98823809D01*
X165754819Y-98823809D02*
X165897676Y-98919047D01*
X165897676Y-98919047D02*
X165992914Y-99014285D01*
X165992914Y-99014285D02*
X166040533Y-99109523D01*
X174019580Y-99080357D02*
X174067200Y-99127976D01*
X174067200Y-99127976D02*
X174114819Y-99270833D01*
X174114819Y-99270833D02*
X174114819Y-99366071D01*
X174114819Y-99366071D02*
X174067200Y-99508928D01*
X174067200Y-99508928D02*
X173971961Y-99604166D01*
X173971961Y-99604166D02*
X173876723Y-99651785D01*
X173876723Y-99651785D02*
X173686247Y-99699404D01*
X173686247Y-99699404D02*
X173543390Y-99699404D01*
X173543390Y-99699404D02*
X173352914Y-99651785D01*
X173352914Y-99651785D02*
X173257676Y-99604166D01*
X173257676Y-99604166D02*
X173162438Y-99508928D01*
X173162438Y-99508928D02*
X173114819Y-99366071D01*
X173114819Y-99366071D02*
X173114819Y-99270833D01*
X173114819Y-99270833D02*
X173162438Y-99127976D01*
X173162438Y-99127976D02*
X173210057Y-99080357D01*
X174114819Y-98127976D02*
X174114819Y-98699404D01*
X174114819Y-98413690D02*
X173114819Y-98413690D01*
X173114819Y-98413690D02*
X173257676Y-98508928D01*
X173257676Y-98508928D02*
X173352914Y-98604166D01*
X173352914Y-98604166D02*
X173400533Y-98699404D01*
X173114819Y-97794642D02*
X173114819Y-97175595D01*
X173114819Y-97175595D02*
X173495771Y-97508928D01*
X173495771Y-97508928D02*
X173495771Y-97366071D01*
X173495771Y-97366071D02*
X173543390Y-97270833D01*
X173543390Y-97270833D02*
X173591009Y-97223214D01*
X173591009Y-97223214D02*
X173686247Y-97175595D01*
X173686247Y-97175595D02*
X173924342Y-97175595D01*
X173924342Y-97175595D02*
X174019580Y-97223214D01*
X174019580Y-97223214D02*
X174067200Y-97270833D01*
X174067200Y-97270833D02*
X174114819Y-97366071D01*
X174114819Y-97366071D02*
X174114819Y-97651785D01*
X174114819Y-97651785D02*
X174067200Y-97747023D01*
X174067200Y-97747023D02*
X174019580Y-97794642D01*
X170819580Y-99080357D02*
X170867200Y-99127976D01*
X170867200Y-99127976D02*
X170914819Y-99270833D01*
X170914819Y-99270833D02*
X170914819Y-99366071D01*
X170914819Y-99366071D02*
X170867200Y-99508928D01*
X170867200Y-99508928D02*
X170771961Y-99604166D01*
X170771961Y-99604166D02*
X170676723Y-99651785D01*
X170676723Y-99651785D02*
X170486247Y-99699404D01*
X170486247Y-99699404D02*
X170343390Y-99699404D01*
X170343390Y-99699404D02*
X170152914Y-99651785D01*
X170152914Y-99651785D02*
X170057676Y-99604166D01*
X170057676Y-99604166D02*
X169962438Y-99508928D01*
X169962438Y-99508928D02*
X169914819Y-99366071D01*
X169914819Y-99366071D02*
X169914819Y-99270833D01*
X169914819Y-99270833D02*
X169962438Y-99127976D01*
X169962438Y-99127976D02*
X170010057Y-99080357D01*
X170914819Y-98127976D02*
X170914819Y-98699404D01*
X170914819Y-98413690D02*
X169914819Y-98413690D01*
X169914819Y-98413690D02*
X170057676Y-98508928D01*
X170057676Y-98508928D02*
X170152914Y-98604166D01*
X170152914Y-98604166D02*
X170200533Y-98699404D01*
X169914819Y-97223214D02*
X169914819Y-97699404D01*
X169914819Y-97699404D02*
X170391009Y-97747023D01*
X170391009Y-97747023D02*
X170343390Y-97699404D01*
X170343390Y-97699404D02*
X170295771Y-97604166D01*
X170295771Y-97604166D02*
X170295771Y-97366071D01*
X170295771Y-97366071D02*
X170343390Y-97270833D01*
X170343390Y-97270833D02*
X170391009Y-97223214D01*
X170391009Y-97223214D02*
X170486247Y-97175595D01*
X170486247Y-97175595D02*
X170724342Y-97175595D01*
X170724342Y-97175595D02*
X170819580Y-97223214D01*
X170819580Y-97223214D02*
X170867200Y-97270833D01*
X170867200Y-97270833D02*
X170914819Y-97366071D01*
X170914819Y-97366071D02*
X170914819Y-97604166D01*
X170914819Y-97604166D02*
X170867200Y-97699404D01*
X170867200Y-97699404D02*
X170819580Y-97747023D01*
X157797319Y-106334333D02*
X158511604Y-106334333D01*
X158511604Y-106334333D02*
X158654461Y-106381952D01*
X158654461Y-106381952D02*
X158749700Y-106477190D01*
X158749700Y-106477190D02*
X158797319Y-106620047D01*
X158797319Y-106620047D02*
X158797319Y-106715285D01*
X158797319Y-105858142D02*
X157797319Y-105858142D01*
X157797319Y-105858142D02*
X157797319Y-105477190D01*
X157797319Y-105477190D02*
X157844938Y-105381952D01*
X157844938Y-105381952D02*
X157892557Y-105334333D01*
X157892557Y-105334333D02*
X157987795Y-105286714D01*
X157987795Y-105286714D02*
X158130652Y-105286714D01*
X158130652Y-105286714D02*
X158225890Y-105334333D01*
X158225890Y-105334333D02*
X158273509Y-105381952D01*
X158273509Y-105381952D02*
X158321128Y-105477190D01*
X158321128Y-105477190D02*
X158321128Y-105858142D01*
X158797319Y-104334333D02*
X158797319Y-104905761D01*
X158797319Y-104620047D02*
X157797319Y-104620047D01*
X157797319Y-104620047D02*
X157940176Y-104715285D01*
X157940176Y-104715285D02*
X158035414Y-104810523D01*
X158035414Y-104810523D02*
X158083033Y-104905761D01*
X164797319Y-106233333D02*
X165511604Y-106233333D01*
X165511604Y-106233333D02*
X165654461Y-106280952D01*
X165654461Y-106280952D02*
X165749700Y-106376190D01*
X165749700Y-106376190D02*
X165797319Y-106519047D01*
X165797319Y-106519047D02*
X165797319Y-106614285D01*
X165797319Y-105757142D02*
X164797319Y-105757142D01*
X164797319Y-105757142D02*
X164797319Y-105376190D01*
X164797319Y-105376190D02*
X164844938Y-105280952D01*
X164844938Y-105280952D02*
X164892557Y-105233333D01*
X164892557Y-105233333D02*
X164987795Y-105185714D01*
X164987795Y-105185714D02*
X165130652Y-105185714D01*
X165130652Y-105185714D02*
X165225890Y-105233333D01*
X165225890Y-105233333D02*
X165273509Y-105280952D01*
X165273509Y-105280952D02*
X165321128Y-105376190D01*
X165321128Y-105376190D02*
X165321128Y-105757142D01*
X164892557Y-104804761D02*
X164844938Y-104757142D01*
X164844938Y-104757142D02*
X164797319Y-104661904D01*
X164797319Y-104661904D02*
X164797319Y-104423809D01*
X164797319Y-104423809D02*
X164844938Y-104328571D01*
X164844938Y-104328571D02*
X164892557Y-104280952D01*
X164892557Y-104280952D02*
X164987795Y-104233333D01*
X164987795Y-104233333D02*
X165083033Y-104233333D01*
X165083033Y-104233333D02*
X165225890Y-104280952D01*
X165225890Y-104280952D02*
X165797319Y-104852380D01*
X165797319Y-104852380D02*
X165797319Y-104233333D01*
X114966666Y-102931009D02*
X114633333Y-102931009D01*
X114633333Y-103454819D02*
X114633333Y-102454819D01*
X114633333Y-102454819D02*
X115109523Y-102454819D01*
X116014285Y-103454819D02*
X115442857Y-103454819D01*
X115728571Y-103454819D02*
X115728571Y-102454819D01*
X115728571Y-102454819D02*
X115633333Y-102597676D01*
X115633333Y-102597676D02*
X115538095Y-102692914D01*
X115538095Y-102692914D02*
X115442857Y-102740533D01*
X134018934Y-98265666D02*
X134066554Y-98313285D01*
X134066554Y-98313285D02*
X134114173Y-98456142D01*
X134114173Y-98456142D02*
X134114173Y-98551380D01*
X134114173Y-98551380D02*
X134066554Y-98694237D01*
X134066554Y-98694237D02*
X133971315Y-98789475D01*
X133971315Y-98789475D02*
X133876077Y-98837094D01*
X133876077Y-98837094D02*
X133685601Y-98884713D01*
X133685601Y-98884713D02*
X133542744Y-98884713D01*
X133542744Y-98884713D02*
X133352268Y-98837094D01*
X133352268Y-98837094D02*
X133257030Y-98789475D01*
X133257030Y-98789475D02*
X133161792Y-98694237D01*
X133161792Y-98694237D02*
X133114173Y-98551380D01*
X133114173Y-98551380D02*
X133114173Y-98456142D01*
X133114173Y-98456142D02*
X133161792Y-98313285D01*
X133161792Y-98313285D02*
X133209411Y-98265666D01*
X133447506Y-97408523D02*
X134114173Y-97408523D01*
X133066554Y-97646618D02*
X133780839Y-97884713D01*
X133780839Y-97884713D02*
X133780839Y-97265666D01*
X145754819Y-106761904D02*
X146564342Y-106761904D01*
X146564342Y-106761904D02*
X146659580Y-106714285D01*
X146659580Y-106714285D02*
X146707200Y-106666666D01*
X146707200Y-106666666D02*
X146754819Y-106571428D01*
X146754819Y-106571428D02*
X146754819Y-106380952D01*
X146754819Y-106380952D02*
X146707200Y-106285714D01*
X146707200Y-106285714D02*
X146659580Y-106238095D01*
X146659580Y-106238095D02*
X146564342Y-106190476D01*
X146564342Y-106190476D02*
X145754819Y-106190476D01*
X146754819Y-105190476D02*
X146754819Y-105761904D01*
X146754819Y-105476190D02*
X145754819Y-105476190D01*
X145754819Y-105476190D02*
X145897676Y-105571428D01*
X145897676Y-105571428D02*
X145992914Y-105666666D01*
X145992914Y-105666666D02*
X146040533Y-105761904D01*
X138218934Y-98265666D02*
X138266554Y-98313285D01*
X138266554Y-98313285D02*
X138314173Y-98456142D01*
X138314173Y-98456142D02*
X138314173Y-98551380D01*
X138314173Y-98551380D02*
X138266554Y-98694237D01*
X138266554Y-98694237D02*
X138171315Y-98789475D01*
X138171315Y-98789475D02*
X138076077Y-98837094D01*
X138076077Y-98837094D02*
X137885601Y-98884713D01*
X137885601Y-98884713D02*
X137742744Y-98884713D01*
X137742744Y-98884713D02*
X137552268Y-98837094D01*
X137552268Y-98837094D02*
X137457030Y-98789475D01*
X137457030Y-98789475D02*
X137361792Y-98694237D01*
X137361792Y-98694237D02*
X137314173Y-98551380D01*
X137314173Y-98551380D02*
X137314173Y-98456142D01*
X137314173Y-98456142D02*
X137361792Y-98313285D01*
X137361792Y-98313285D02*
X137409411Y-98265666D01*
X137314173Y-97408523D02*
X137314173Y-97598999D01*
X137314173Y-97598999D02*
X137361792Y-97694237D01*
X137361792Y-97694237D02*
X137409411Y-97741856D01*
X137409411Y-97741856D02*
X137552268Y-97837094D01*
X137552268Y-97837094D02*
X137742744Y-97884713D01*
X137742744Y-97884713D02*
X138123696Y-97884713D01*
X138123696Y-97884713D02*
X138218934Y-97837094D01*
X138218934Y-97837094D02*
X138266554Y-97789475D01*
X138266554Y-97789475D02*
X138314173Y-97694237D01*
X138314173Y-97694237D02*
X138314173Y-97503761D01*
X138314173Y-97503761D02*
X138266554Y-97408523D01*
X138266554Y-97408523D02*
X138218934Y-97360904D01*
X138218934Y-97360904D02*
X138123696Y-97313285D01*
X138123696Y-97313285D02*
X137885601Y-97313285D01*
X137885601Y-97313285D02*
X137790363Y-97360904D01*
X137790363Y-97360904D02*
X137742744Y-97408523D01*
X137742744Y-97408523D02*
X137695125Y-97503761D01*
X137695125Y-97503761D02*
X137695125Y-97694237D01*
X137695125Y-97694237D02*
X137742744Y-97789475D01*
X137742744Y-97789475D02*
X137790363Y-97837094D01*
X137790363Y-97837094D02*
X137885601Y-97884713D01*
X136118934Y-98265666D02*
X136166554Y-98313285D01*
X136166554Y-98313285D02*
X136214173Y-98456142D01*
X136214173Y-98456142D02*
X136214173Y-98551380D01*
X136214173Y-98551380D02*
X136166554Y-98694237D01*
X136166554Y-98694237D02*
X136071315Y-98789475D01*
X136071315Y-98789475D02*
X135976077Y-98837094D01*
X135976077Y-98837094D02*
X135785601Y-98884713D01*
X135785601Y-98884713D02*
X135642744Y-98884713D01*
X135642744Y-98884713D02*
X135452268Y-98837094D01*
X135452268Y-98837094D02*
X135357030Y-98789475D01*
X135357030Y-98789475D02*
X135261792Y-98694237D01*
X135261792Y-98694237D02*
X135214173Y-98551380D01*
X135214173Y-98551380D02*
X135214173Y-98456142D01*
X135214173Y-98456142D02*
X135261792Y-98313285D01*
X135261792Y-98313285D02*
X135309411Y-98265666D01*
X135214173Y-97360904D02*
X135214173Y-97837094D01*
X135214173Y-97837094D02*
X135690363Y-97884713D01*
X135690363Y-97884713D02*
X135642744Y-97837094D01*
X135642744Y-97837094D02*
X135595125Y-97741856D01*
X135595125Y-97741856D02*
X135595125Y-97503761D01*
X135595125Y-97503761D02*
X135642744Y-97408523D01*
X135642744Y-97408523D02*
X135690363Y-97360904D01*
X135690363Y-97360904D02*
X135785601Y-97313285D01*
X135785601Y-97313285D02*
X136023696Y-97313285D01*
X136023696Y-97313285D02*
X136118934Y-97360904D01*
X136118934Y-97360904D02*
X136166554Y-97408523D01*
X136166554Y-97408523D02*
X136214173Y-97503761D01*
X136214173Y-97503761D02*
X136214173Y-97741856D01*
X136214173Y-97741856D02*
X136166554Y-97837094D01*
X136166554Y-97837094D02*
X136118934Y-97884713D01*
X158582687Y-98853819D02*
X158249354Y-98377628D01*
X158011259Y-98853819D02*
X158011259Y-97853819D01*
X158011259Y-97853819D02*
X158392211Y-97853819D01*
X158392211Y-97853819D02*
X158487449Y-97901438D01*
X158487449Y-97901438D02*
X158535068Y-97949057D01*
X158535068Y-97949057D02*
X158582687Y-98044295D01*
X158582687Y-98044295D02*
X158582687Y-98187152D01*
X158582687Y-98187152D02*
X158535068Y-98282390D01*
X158535068Y-98282390D02*
X158487449Y-98330009D01*
X158487449Y-98330009D02*
X158392211Y-98377628D01*
X158392211Y-98377628D02*
X158011259Y-98377628D01*
X159487449Y-97853819D02*
X159011259Y-97853819D01*
X159011259Y-97853819D02*
X158963640Y-98330009D01*
X158963640Y-98330009D02*
X159011259Y-98282390D01*
X159011259Y-98282390D02*
X159106497Y-98234771D01*
X159106497Y-98234771D02*
X159344592Y-98234771D01*
X159344592Y-98234771D02*
X159439830Y-98282390D01*
X159439830Y-98282390D02*
X159487449Y-98330009D01*
X159487449Y-98330009D02*
X159535068Y-98425247D01*
X159535068Y-98425247D02*
X159535068Y-98663342D01*
X159535068Y-98663342D02*
X159487449Y-98758580D01*
X159487449Y-98758580D02*
X159439830Y-98806200D01*
X159439830Y-98806200D02*
X159344592Y-98853819D01*
X159344592Y-98853819D02*
X159106497Y-98853819D01*
X159106497Y-98853819D02*
X159011259Y-98806200D01*
X159011259Y-98806200D02*
X158963640Y-98758580D01*
X158582687Y-101853819D02*
X158249354Y-101377628D01*
X158011259Y-101853819D02*
X158011259Y-100853819D01*
X158011259Y-100853819D02*
X158392211Y-100853819D01*
X158392211Y-100853819D02*
X158487449Y-100901438D01*
X158487449Y-100901438D02*
X158535068Y-100949057D01*
X158535068Y-100949057D02*
X158582687Y-101044295D01*
X158582687Y-101044295D02*
X158582687Y-101187152D01*
X158582687Y-101187152D02*
X158535068Y-101282390D01*
X158535068Y-101282390D02*
X158487449Y-101330009D01*
X158487449Y-101330009D02*
X158392211Y-101377628D01*
X158392211Y-101377628D02*
X158011259Y-101377628D01*
X158916021Y-100853819D02*
X159535068Y-100853819D01*
X159535068Y-100853819D02*
X159201735Y-101234771D01*
X159201735Y-101234771D02*
X159344592Y-101234771D01*
X159344592Y-101234771D02*
X159439830Y-101282390D01*
X159439830Y-101282390D02*
X159487449Y-101330009D01*
X159487449Y-101330009D02*
X159535068Y-101425247D01*
X159535068Y-101425247D02*
X159535068Y-101663342D01*
X159535068Y-101663342D02*
X159487449Y-101758580D01*
X159487449Y-101758580D02*
X159439830Y-101806200D01*
X159439830Y-101806200D02*
X159344592Y-101853819D01*
X159344592Y-101853819D02*
X159058878Y-101853819D01*
X159058878Y-101853819D02*
X158963640Y-101806200D01*
X158963640Y-101806200D02*
X158916021Y-101758580D01*
X152633333Y-106059580D02*
X152585714Y-106107200D01*
X152585714Y-106107200D02*
X152442857Y-106154819D01*
X152442857Y-106154819D02*
X152347619Y-106154819D01*
X152347619Y-106154819D02*
X152204762Y-106107200D01*
X152204762Y-106107200D02*
X152109524Y-106011961D01*
X152109524Y-106011961D02*
X152061905Y-105916723D01*
X152061905Y-105916723D02*
X152014286Y-105726247D01*
X152014286Y-105726247D02*
X152014286Y-105583390D01*
X152014286Y-105583390D02*
X152061905Y-105392914D01*
X152061905Y-105392914D02*
X152109524Y-105297676D01*
X152109524Y-105297676D02*
X152204762Y-105202438D01*
X152204762Y-105202438D02*
X152347619Y-105154819D01*
X152347619Y-105154819D02*
X152442857Y-105154819D01*
X152442857Y-105154819D02*
X152585714Y-105202438D01*
X152585714Y-105202438D02*
X152633333Y-105250057D01*
X153585714Y-106154819D02*
X153014286Y-106154819D01*
X153300000Y-106154819D02*
X153300000Y-105154819D01*
X153300000Y-105154819D02*
X153204762Y-105297676D01*
X153204762Y-105297676D02*
X153109524Y-105392914D01*
X153109524Y-105392914D02*
X153014286Y-105440533D01*
X144308934Y-98265666D02*
X144356554Y-98313285D01*
X144356554Y-98313285D02*
X144404173Y-98456142D01*
X144404173Y-98456142D02*
X144404173Y-98551380D01*
X144404173Y-98551380D02*
X144356554Y-98694237D01*
X144356554Y-98694237D02*
X144261315Y-98789475D01*
X144261315Y-98789475D02*
X144166077Y-98837094D01*
X144166077Y-98837094D02*
X143975601Y-98884713D01*
X143975601Y-98884713D02*
X143832744Y-98884713D01*
X143832744Y-98884713D02*
X143642268Y-98837094D01*
X143642268Y-98837094D02*
X143547030Y-98789475D01*
X143547030Y-98789475D02*
X143451792Y-98694237D01*
X143451792Y-98694237D02*
X143404173Y-98551380D01*
X143404173Y-98551380D02*
X143404173Y-98456142D01*
X143404173Y-98456142D02*
X143451792Y-98313285D01*
X143451792Y-98313285D02*
X143499411Y-98265666D01*
X143499411Y-97884713D02*
X143451792Y-97837094D01*
X143451792Y-97837094D02*
X143404173Y-97741856D01*
X143404173Y-97741856D02*
X143404173Y-97503761D01*
X143404173Y-97503761D02*
X143451792Y-97408523D01*
X143451792Y-97408523D02*
X143499411Y-97360904D01*
X143499411Y-97360904D02*
X143594649Y-97313285D01*
X143594649Y-97313285D02*
X143689887Y-97313285D01*
X143689887Y-97313285D02*
X143832744Y-97360904D01*
X143832744Y-97360904D02*
X144404173Y-97932332D01*
X144404173Y-97932332D02*
X144404173Y-97313285D01*
X153408934Y-92841857D02*
X153456554Y-92889476D01*
X153456554Y-92889476D02*
X153504173Y-93032333D01*
X153504173Y-93032333D02*
X153504173Y-93127571D01*
X153504173Y-93127571D02*
X153456554Y-93270428D01*
X153456554Y-93270428D02*
X153361315Y-93365666D01*
X153361315Y-93365666D02*
X153266077Y-93413285D01*
X153266077Y-93413285D02*
X153075601Y-93460904D01*
X153075601Y-93460904D02*
X152932744Y-93460904D01*
X152932744Y-93460904D02*
X152742268Y-93413285D01*
X152742268Y-93413285D02*
X152647030Y-93365666D01*
X152647030Y-93365666D02*
X152551792Y-93270428D01*
X152551792Y-93270428D02*
X152504173Y-93127571D01*
X152504173Y-93127571D02*
X152504173Y-93032333D01*
X152504173Y-93032333D02*
X152551792Y-92889476D01*
X152551792Y-92889476D02*
X152599411Y-92841857D01*
X153504173Y-91889476D02*
X153504173Y-92460904D01*
X153504173Y-92175190D02*
X152504173Y-92175190D01*
X152504173Y-92175190D02*
X152647030Y-92270428D01*
X152647030Y-92270428D02*
X152742268Y-92365666D01*
X152742268Y-92365666D02*
X152789887Y-92460904D01*
X153504173Y-91413285D02*
X153504173Y-91222809D01*
X153504173Y-91222809D02*
X153456554Y-91127571D01*
X153456554Y-91127571D02*
X153408934Y-91079952D01*
X153408934Y-91079952D02*
X153266077Y-90984714D01*
X153266077Y-90984714D02*
X153075601Y-90937095D01*
X153075601Y-90937095D02*
X152694649Y-90937095D01*
X152694649Y-90937095D02*
X152599411Y-90984714D01*
X152599411Y-90984714D02*
X152551792Y-91032333D01*
X152551792Y-91032333D02*
X152504173Y-91127571D01*
X152504173Y-91127571D02*
X152504173Y-91318047D01*
X152504173Y-91318047D02*
X152551792Y-91413285D01*
X152551792Y-91413285D02*
X152599411Y-91460904D01*
X152599411Y-91460904D02*
X152694649Y-91508523D01*
X152694649Y-91508523D02*
X152932744Y-91508523D01*
X152932744Y-91508523D02*
X153027982Y-91460904D01*
X153027982Y-91460904D02*
X153075601Y-91413285D01*
X153075601Y-91413285D02*
X153123220Y-91318047D01*
X153123220Y-91318047D02*
X153123220Y-91127571D01*
X153123220Y-91127571D02*
X153075601Y-91032333D01*
X153075601Y-91032333D02*
X153027982Y-90984714D01*
X153027982Y-90984714D02*
X152932744Y-90937095D01*
X158582687Y-100353819D02*
X158249354Y-99877628D01*
X158011259Y-100353819D02*
X158011259Y-99353819D01*
X158011259Y-99353819D02*
X158392211Y-99353819D01*
X158392211Y-99353819D02*
X158487449Y-99401438D01*
X158487449Y-99401438D02*
X158535068Y-99449057D01*
X158535068Y-99449057D02*
X158582687Y-99544295D01*
X158582687Y-99544295D02*
X158582687Y-99687152D01*
X158582687Y-99687152D02*
X158535068Y-99782390D01*
X158535068Y-99782390D02*
X158487449Y-99830009D01*
X158487449Y-99830009D02*
X158392211Y-99877628D01*
X158392211Y-99877628D02*
X158011259Y-99877628D01*
X159439830Y-99687152D02*
X159439830Y-100353819D01*
X159201735Y-99306200D02*
X158963640Y-100020485D01*
X158963640Y-100020485D02*
X159582687Y-100020485D01*
X129109580Y-96566666D02*
X129157200Y-96614285D01*
X129157200Y-96614285D02*
X129204819Y-96757142D01*
X129204819Y-96757142D02*
X129204819Y-96852380D01*
X129204819Y-96852380D02*
X129157200Y-96995237D01*
X129157200Y-96995237D02*
X129061961Y-97090475D01*
X129061961Y-97090475D02*
X128966723Y-97138094D01*
X128966723Y-97138094D02*
X128776247Y-97185713D01*
X128776247Y-97185713D02*
X128633390Y-97185713D01*
X128633390Y-97185713D02*
X128442914Y-97138094D01*
X128442914Y-97138094D02*
X128347676Y-97090475D01*
X128347676Y-97090475D02*
X128252438Y-96995237D01*
X128252438Y-96995237D02*
X128204819Y-96852380D01*
X128204819Y-96852380D02*
X128204819Y-96757142D01*
X128204819Y-96757142D02*
X128252438Y-96614285D01*
X128252438Y-96614285D02*
X128300057Y-96566666D01*
X129204819Y-96090475D02*
X129204819Y-95899999D01*
X129204819Y-95899999D02*
X129157200Y-95804761D01*
X129157200Y-95804761D02*
X129109580Y-95757142D01*
X129109580Y-95757142D02*
X128966723Y-95661904D01*
X128966723Y-95661904D02*
X128776247Y-95614285D01*
X128776247Y-95614285D02*
X128395295Y-95614285D01*
X128395295Y-95614285D02*
X128300057Y-95661904D01*
X128300057Y-95661904D02*
X128252438Y-95709523D01*
X128252438Y-95709523D02*
X128204819Y-95804761D01*
X128204819Y-95804761D02*
X128204819Y-95995237D01*
X128204819Y-95995237D02*
X128252438Y-96090475D01*
X128252438Y-96090475D02*
X128300057Y-96138094D01*
X128300057Y-96138094D02*
X128395295Y-96185713D01*
X128395295Y-96185713D02*
X128633390Y-96185713D01*
X128633390Y-96185713D02*
X128728628Y-96138094D01*
X128728628Y-96138094D02*
X128776247Y-96090475D01*
X128776247Y-96090475D02*
X128823866Y-95995237D01*
X128823866Y-95995237D02*
X128823866Y-95804761D01*
X128823866Y-95804761D02*
X128776247Y-95709523D01*
X128776247Y-95709523D02*
X128728628Y-95661904D01*
X128728628Y-95661904D02*
X128633390Y-95614285D01*
X149808934Y-92904357D02*
X149856554Y-92951976D01*
X149856554Y-92951976D02*
X149904173Y-93094833D01*
X149904173Y-93094833D02*
X149904173Y-93190071D01*
X149904173Y-93190071D02*
X149856554Y-93332928D01*
X149856554Y-93332928D02*
X149761315Y-93428166D01*
X149761315Y-93428166D02*
X149666077Y-93475785D01*
X149666077Y-93475785D02*
X149475601Y-93523404D01*
X149475601Y-93523404D02*
X149332744Y-93523404D01*
X149332744Y-93523404D02*
X149142268Y-93475785D01*
X149142268Y-93475785D02*
X149047030Y-93428166D01*
X149047030Y-93428166D02*
X148951792Y-93332928D01*
X148951792Y-93332928D02*
X148904173Y-93190071D01*
X148904173Y-93190071D02*
X148904173Y-93094833D01*
X148904173Y-93094833D02*
X148951792Y-92951976D01*
X148951792Y-92951976D02*
X148999411Y-92904357D01*
X148999411Y-92523404D02*
X148951792Y-92475785D01*
X148951792Y-92475785D02*
X148904173Y-92380547D01*
X148904173Y-92380547D02*
X148904173Y-92142452D01*
X148904173Y-92142452D02*
X148951792Y-92047214D01*
X148951792Y-92047214D02*
X148999411Y-91999595D01*
X148999411Y-91999595D02*
X149094649Y-91951976D01*
X149094649Y-91951976D02*
X149189887Y-91951976D01*
X149189887Y-91951976D02*
X149332744Y-91999595D01*
X149332744Y-91999595D02*
X149904173Y-92571023D01*
X149904173Y-92571023D02*
X149904173Y-91951976D01*
X149904173Y-90999595D02*
X149904173Y-91571023D01*
X149904173Y-91285309D02*
X148904173Y-91285309D01*
X148904173Y-91285309D02*
X149047030Y-91380547D01*
X149047030Y-91380547D02*
X149142268Y-91475785D01*
X149142268Y-91475785D02*
X149189887Y-91571023D01*
X142408934Y-98265666D02*
X142456554Y-98313285D01*
X142456554Y-98313285D02*
X142504173Y-98456142D01*
X142504173Y-98456142D02*
X142504173Y-98551380D01*
X142504173Y-98551380D02*
X142456554Y-98694237D01*
X142456554Y-98694237D02*
X142361315Y-98789475D01*
X142361315Y-98789475D02*
X142266077Y-98837094D01*
X142266077Y-98837094D02*
X142075601Y-98884713D01*
X142075601Y-98884713D02*
X141932744Y-98884713D01*
X141932744Y-98884713D02*
X141742268Y-98837094D01*
X141742268Y-98837094D02*
X141647030Y-98789475D01*
X141647030Y-98789475D02*
X141551792Y-98694237D01*
X141551792Y-98694237D02*
X141504173Y-98551380D01*
X141504173Y-98551380D02*
X141504173Y-98456142D01*
X141504173Y-98456142D02*
X141551792Y-98313285D01*
X141551792Y-98313285D02*
X141599411Y-98265666D01*
X141932744Y-97694237D02*
X141885125Y-97789475D01*
X141885125Y-97789475D02*
X141837506Y-97837094D01*
X141837506Y-97837094D02*
X141742268Y-97884713D01*
X141742268Y-97884713D02*
X141694649Y-97884713D01*
X141694649Y-97884713D02*
X141599411Y-97837094D01*
X141599411Y-97837094D02*
X141551792Y-97789475D01*
X141551792Y-97789475D02*
X141504173Y-97694237D01*
X141504173Y-97694237D02*
X141504173Y-97503761D01*
X141504173Y-97503761D02*
X141551792Y-97408523D01*
X141551792Y-97408523D02*
X141599411Y-97360904D01*
X141599411Y-97360904D02*
X141694649Y-97313285D01*
X141694649Y-97313285D02*
X141742268Y-97313285D01*
X141742268Y-97313285D02*
X141837506Y-97360904D01*
X141837506Y-97360904D02*
X141885125Y-97408523D01*
X141885125Y-97408523D02*
X141932744Y-97503761D01*
X141932744Y-97503761D02*
X141932744Y-97694237D01*
X141932744Y-97694237D02*
X141980363Y-97789475D01*
X141980363Y-97789475D02*
X142027982Y-97837094D01*
X142027982Y-97837094D02*
X142123220Y-97884713D01*
X142123220Y-97884713D02*
X142313696Y-97884713D01*
X142313696Y-97884713D02*
X142408934Y-97837094D01*
X142408934Y-97837094D02*
X142456554Y-97789475D01*
X142456554Y-97789475D02*
X142504173Y-97694237D01*
X142504173Y-97694237D02*
X142504173Y-97503761D01*
X142504173Y-97503761D02*
X142456554Y-97408523D01*
X142456554Y-97408523D02*
X142408934Y-97360904D01*
X142408934Y-97360904D02*
X142313696Y-97313285D01*
X142313696Y-97313285D02*
X142123220Y-97313285D01*
X142123220Y-97313285D02*
X142027982Y-97360904D01*
X142027982Y-97360904D02*
X141980363Y-97408523D01*
X141980363Y-97408523D02*
X141932744Y-97503761D01*
X142983333Y-84654819D02*
X142507143Y-84654819D01*
X142507143Y-84654819D02*
X142507143Y-83654819D01*
X143840476Y-84654819D02*
X143269048Y-84654819D01*
X143554762Y-84654819D02*
X143554762Y-83654819D01*
X143554762Y-83654819D02*
X143459524Y-83797676D01*
X143459524Y-83797676D02*
X143364286Y-83892914D01*
X143364286Y-83892914D02*
X143269048Y-83940533D01*
X119038741Y-87668319D02*
X119038741Y-88477842D01*
X119038741Y-88477842D02*
X119086360Y-88573080D01*
X119086360Y-88573080D02*
X119133979Y-88620700D01*
X119133979Y-88620700D02*
X119229217Y-88668319D01*
X119229217Y-88668319D02*
X119419693Y-88668319D01*
X119419693Y-88668319D02*
X119514931Y-88620700D01*
X119514931Y-88620700D02*
X119562550Y-88573080D01*
X119562550Y-88573080D02*
X119610169Y-88477842D01*
X119610169Y-88477842D02*
X119610169Y-87668319D01*
X119991122Y-87668319D02*
X120610169Y-87668319D01*
X120610169Y-87668319D02*
X120276836Y-88049271D01*
X120276836Y-88049271D02*
X120419693Y-88049271D01*
X120419693Y-88049271D02*
X120514931Y-88096890D01*
X120514931Y-88096890D02*
X120562550Y-88144509D01*
X120562550Y-88144509D02*
X120610169Y-88239747D01*
X120610169Y-88239747D02*
X120610169Y-88477842D01*
X120610169Y-88477842D02*
X120562550Y-88573080D01*
X120562550Y-88573080D02*
X120514931Y-88620700D01*
X120514931Y-88620700D02*
X120419693Y-88668319D01*
X120419693Y-88668319D02*
X120133979Y-88668319D01*
X120133979Y-88668319D02*
X120038741Y-88620700D01*
X120038741Y-88620700D02*
X119991122Y-88573080D01*
X140318934Y-98265666D02*
X140366554Y-98313285D01*
X140366554Y-98313285D02*
X140414173Y-98456142D01*
X140414173Y-98456142D02*
X140414173Y-98551380D01*
X140414173Y-98551380D02*
X140366554Y-98694237D01*
X140366554Y-98694237D02*
X140271315Y-98789475D01*
X140271315Y-98789475D02*
X140176077Y-98837094D01*
X140176077Y-98837094D02*
X139985601Y-98884713D01*
X139985601Y-98884713D02*
X139842744Y-98884713D01*
X139842744Y-98884713D02*
X139652268Y-98837094D01*
X139652268Y-98837094D02*
X139557030Y-98789475D01*
X139557030Y-98789475D02*
X139461792Y-98694237D01*
X139461792Y-98694237D02*
X139414173Y-98551380D01*
X139414173Y-98551380D02*
X139414173Y-98456142D01*
X139414173Y-98456142D02*
X139461792Y-98313285D01*
X139461792Y-98313285D02*
X139509411Y-98265666D01*
X139414173Y-97932332D02*
X139414173Y-97265666D01*
X139414173Y-97265666D02*
X140414173Y-97694237D01*
X167166666Y-110054819D02*
X167166666Y-110769104D01*
X167166666Y-110769104D02*
X167119047Y-110911961D01*
X167119047Y-110911961D02*
X167023809Y-111007200D01*
X167023809Y-111007200D02*
X166880952Y-111054819D01*
X166880952Y-111054819D02*
X166785714Y-111054819D01*
X167595238Y-110150057D02*
X167642857Y-110102438D01*
X167642857Y-110102438D02*
X167738095Y-110054819D01*
X167738095Y-110054819D02*
X167976190Y-110054819D01*
X167976190Y-110054819D02*
X168071428Y-110102438D01*
X168071428Y-110102438D02*
X168119047Y-110150057D01*
X168119047Y-110150057D02*
X168166666Y-110245295D01*
X168166666Y-110245295D02*
X168166666Y-110340533D01*
X168166666Y-110340533D02*
X168119047Y-110483390D01*
X168119047Y-110483390D02*
X167547619Y-111054819D01*
X167547619Y-111054819D02*
X168166666Y-111054819D01*
X151508934Y-92904357D02*
X151556554Y-92951976D01*
X151556554Y-92951976D02*
X151604173Y-93094833D01*
X151604173Y-93094833D02*
X151604173Y-93190071D01*
X151604173Y-93190071D02*
X151556554Y-93332928D01*
X151556554Y-93332928D02*
X151461315Y-93428166D01*
X151461315Y-93428166D02*
X151366077Y-93475785D01*
X151366077Y-93475785D02*
X151175601Y-93523404D01*
X151175601Y-93523404D02*
X151032744Y-93523404D01*
X151032744Y-93523404D02*
X150842268Y-93475785D01*
X150842268Y-93475785D02*
X150747030Y-93428166D01*
X150747030Y-93428166D02*
X150651792Y-93332928D01*
X150651792Y-93332928D02*
X150604173Y-93190071D01*
X150604173Y-93190071D02*
X150604173Y-93094833D01*
X150604173Y-93094833D02*
X150651792Y-92951976D01*
X150651792Y-92951976D02*
X150699411Y-92904357D01*
X150699411Y-92523404D02*
X150651792Y-92475785D01*
X150651792Y-92475785D02*
X150604173Y-92380547D01*
X150604173Y-92380547D02*
X150604173Y-92142452D01*
X150604173Y-92142452D02*
X150651792Y-92047214D01*
X150651792Y-92047214D02*
X150699411Y-91999595D01*
X150699411Y-91999595D02*
X150794649Y-91951976D01*
X150794649Y-91951976D02*
X150889887Y-91951976D01*
X150889887Y-91951976D02*
X151032744Y-91999595D01*
X151032744Y-91999595D02*
X151604173Y-92571023D01*
X151604173Y-92571023D02*
X151604173Y-91951976D01*
X150604173Y-91332928D02*
X150604173Y-91237690D01*
X150604173Y-91237690D02*
X150651792Y-91142452D01*
X150651792Y-91142452D02*
X150699411Y-91094833D01*
X150699411Y-91094833D02*
X150794649Y-91047214D01*
X150794649Y-91047214D02*
X150985125Y-90999595D01*
X150985125Y-90999595D02*
X151223220Y-90999595D01*
X151223220Y-90999595D02*
X151413696Y-91047214D01*
X151413696Y-91047214D02*
X151508934Y-91094833D01*
X151508934Y-91094833D02*
X151556554Y-91142452D01*
X151556554Y-91142452D02*
X151604173Y-91237690D01*
X151604173Y-91237690D02*
X151604173Y-91332928D01*
X151604173Y-91332928D02*
X151556554Y-91428166D01*
X151556554Y-91428166D02*
X151508934Y-91475785D01*
X151508934Y-91475785D02*
X151413696Y-91523404D01*
X151413696Y-91523404D02*
X151223220Y-91571023D01*
X151223220Y-91571023D02*
X150985125Y-91571023D01*
X150985125Y-91571023D02*
X150794649Y-91523404D01*
X150794649Y-91523404D02*
X150699411Y-91475785D01*
X150699411Y-91475785D02*
X150651792Y-91428166D01*
X150651792Y-91428166D02*
X150604173Y-91332928D01*
X155104173Y-92878166D02*
X154627982Y-93211499D01*
X155104173Y-93449594D02*
X154104173Y-93449594D01*
X154104173Y-93449594D02*
X154104173Y-93068642D01*
X154104173Y-93068642D02*
X154151792Y-92973404D01*
X154151792Y-92973404D02*
X154199411Y-92925785D01*
X154199411Y-92925785D02*
X154294649Y-92878166D01*
X154294649Y-92878166D02*
X154437506Y-92878166D01*
X154437506Y-92878166D02*
X154532744Y-92925785D01*
X154532744Y-92925785D02*
X154580363Y-92973404D01*
X154580363Y-92973404D02*
X154627982Y-93068642D01*
X154627982Y-93068642D02*
X154627982Y-93449594D01*
X154199411Y-92497213D02*
X154151792Y-92449594D01*
X154151792Y-92449594D02*
X154104173Y-92354356D01*
X154104173Y-92354356D02*
X154104173Y-92116261D01*
X154104173Y-92116261D02*
X154151792Y-92021023D01*
X154151792Y-92021023D02*
X154199411Y-91973404D01*
X154199411Y-91973404D02*
X154294649Y-91925785D01*
X154294649Y-91925785D02*
X154389887Y-91925785D01*
X154389887Y-91925785D02*
X154532744Y-91973404D01*
X154532744Y-91973404D02*
X155104173Y-92544832D01*
X155104173Y-92544832D02*
X155104173Y-91925785D01*
X136666666Y-110054819D02*
X136666666Y-110769104D01*
X136666666Y-110769104D02*
X136619047Y-110911961D01*
X136619047Y-110911961D02*
X136523809Y-111007200D01*
X136523809Y-111007200D02*
X136380952Y-111054819D01*
X136380952Y-111054819D02*
X136285714Y-111054819D01*
X137666666Y-111054819D02*
X137095238Y-111054819D01*
X137380952Y-111054819D02*
X137380952Y-110054819D01*
X137380952Y-110054819D02*
X137285714Y-110197676D01*
X137285714Y-110197676D02*
X137190476Y-110292914D01*
X137190476Y-110292914D02*
X137095238Y-110340533D01*
X131918934Y-98265666D02*
X131966554Y-98313285D01*
X131966554Y-98313285D02*
X132014173Y-98456142D01*
X132014173Y-98456142D02*
X132014173Y-98551380D01*
X132014173Y-98551380D02*
X131966554Y-98694237D01*
X131966554Y-98694237D02*
X131871315Y-98789475D01*
X131871315Y-98789475D02*
X131776077Y-98837094D01*
X131776077Y-98837094D02*
X131585601Y-98884713D01*
X131585601Y-98884713D02*
X131442744Y-98884713D01*
X131442744Y-98884713D02*
X131252268Y-98837094D01*
X131252268Y-98837094D02*
X131157030Y-98789475D01*
X131157030Y-98789475D02*
X131061792Y-98694237D01*
X131061792Y-98694237D02*
X131014173Y-98551380D01*
X131014173Y-98551380D02*
X131014173Y-98456142D01*
X131014173Y-98456142D02*
X131061792Y-98313285D01*
X131061792Y-98313285D02*
X131109411Y-98265666D01*
X131014173Y-97932332D02*
X131014173Y-97313285D01*
X131014173Y-97313285D02*
X131395125Y-97646618D01*
X131395125Y-97646618D02*
X131395125Y-97503761D01*
X131395125Y-97503761D02*
X131442744Y-97408523D01*
X131442744Y-97408523D02*
X131490363Y-97360904D01*
X131490363Y-97360904D02*
X131585601Y-97313285D01*
X131585601Y-97313285D02*
X131823696Y-97313285D01*
X131823696Y-97313285D02*
X131918934Y-97360904D01*
X131918934Y-97360904D02*
X131966554Y-97408523D01*
X131966554Y-97408523D02*
X132014173Y-97503761D01*
X132014173Y-97503761D02*
X132014173Y-97789475D01*
X132014173Y-97789475D02*
X131966554Y-97884713D01*
X131966554Y-97884713D02*
X131918934Y-97932332D01*
X112171905Y-95067319D02*
X112171905Y-94067319D01*
X112171905Y-94067319D02*
X112410000Y-94067319D01*
X112410000Y-94067319D02*
X112552857Y-94114938D01*
X112552857Y-94114938D02*
X112648095Y-94210176D01*
X112648095Y-94210176D02*
X112695714Y-94305414D01*
X112695714Y-94305414D02*
X112743333Y-94495890D01*
X112743333Y-94495890D02*
X112743333Y-94638747D01*
X112743333Y-94638747D02*
X112695714Y-94829223D01*
X112695714Y-94829223D02*
X112648095Y-94924461D01*
X112648095Y-94924461D02*
X112552857Y-95019700D01*
X112552857Y-95019700D02*
X112410000Y-95067319D01*
X112410000Y-95067319D02*
X112171905Y-95067319D01*
X113695714Y-95067319D02*
X113124286Y-95067319D01*
X113410000Y-95067319D02*
X113410000Y-94067319D01*
X113410000Y-94067319D02*
X113314762Y-94210176D01*
X113314762Y-94210176D02*
X113219524Y-94305414D01*
X113219524Y-94305414D02*
X113124286Y-94353033D01*
D11*
%TO.C,R1*%
X139617224Y-95622500D02*
X139107776Y-95622500D01*
X139617224Y-94577500D02*
X139107776Y-94577500D01*
%TO.C,C10*%
X135816233Y-95610000D02*
X136108767Y-95610000D01*
X135816233Y-94590000D02*
X136108767Y-94590000D01*
%TO.C,C12*%
X175810000Y-94353733D02*
X175810000Y-94646267D01*
X174790000Y-94353733D02*
X174790000Y-94646267D01*
%TO.C,C18*%
X177410000Y-94353733D02*
X177410000Y-94646267D01*
X176390000Y-94353733D02*
X176390000Y-94646267D01*
%TO.C,C16*%
X169410000Y-94353733D02*
X169410000Y-94646267D01*
X168390000Y-94353733D02*
X168390000Y-94646267D01*
%TO.C,C14*%
X172610000Y-94353733D02*
X172610000Y-94646267D01*
X171590000Y-94353733D02*
X171590000Y-94646267D01*
%TO.C,C17*%
X179010000Y-94353733D02*
X179010000Y-94646267D01*
X177990000Y-94353733D02*
X177990000Y-94646267D01*
%TO.C,C11*%
X160839354Y-92154437D02*
X160839354Y-97910000D01*
X160839354Y-97910000D02*
X163189354Y-97910000D01*
X161903791Y-91090000D02*
X160839354Y-92154437D01*
X161903791Y-91090000D02*
X163189354Y-91090000D01*
X166594917Y-91090000D02*
X165309354Y-91090000D01*
X166594917Y-91090000D02*
X167659354Y-92154437D01*
X167659354Y-92154437D02*
X167659354Y-97910000D01*
X167659354Y-97910000D02*
X165309354Y-97910000D01*
%TO.C,C13*%
X174210000Y-94353733D02*
X174210000Y-94646267D01*
X173190000Y-94353733D02*
X173190000Y-94646267D01*
%TO.C,C15*%
X171010000Y-94353733D02*
X171010000Y-94646267D01*
X169990000Y-94353733D02*
X169990000Y-94646267D01*
%TO.C,JP1*%
X161285000Y-106251000D02*
G75*
G02*
X160585000Y-106951000I-700000J0D01*
G01*
X160585000Y-102851000D02*
G75*
G02*
X161285000Y-103551000I1J-699999D01*
G01*
X159985000Y-106951000D02*
G75*
G02*
X159285000Y-106251000I0J700000D01*
G01*
X159285000Y-103551000D02*
G75*
G02*
X159985000Y-102851000I699999J1D01*
G01*
X161285000Y-103501000D02*
X161285000Y-106301000D01*
X160585000Y-106951000D02*
X159985000Y-106951000D01*
X159985000Y-102851000D02*
X160585000Y-102851000D01*
X159285000Y-106301000D02*
X159285000Y-103501000D01*
X159085000Y-103701000D02*
X158785000Y-104001000D01*
X159085000Y-103701000D02*
X158785000Y-103401000D01*
X158785000Y-103401000D02*
X158785000Y-104001000D01*
%TO.C,JP2*%
X164242500Y-106250000D02*
G75*
G02*
X163542500Y-106950000I-700000J0D01*
G01*
X163542500Y-102850000D02*
G75*
G02*
X164242500Y-103550000I1J-699999D01*
G01*
X162942500Y-106950000D02*
G75*
G02*
X162242500Y-106250000I0J700000D01*
G01*
X162242500Y-103550000D02*
G75*
G02*
X162942500Y-102850000I699999J1D01*
G01*
X164242500Y-103500000D02*
X164242500Y-106300000D01*
X163542500Y-106950000D02*
X162942500Y-106950000D01*
X162942500Y-102850000D02*
X163542500Y-102850000D01*
X162242500Y-106300000D02*
X162242500Y-103500000D01*
X162042500Y-103700000D02*
X161742500Y-104000000D01*
X162042500Y-103700000D02*
X161742500Y-103400000D01*
X161742500Y-103400000D02*
X161742500Y-104000000D01*
%TO.C,F1*%
X114697936Y-101910000D02*
X115902064Y-101910000D01*
X114697936Y-100090000D02*
X115902064Y-100090000D01*
%TO.C,C4*%
X132914354Y-101460252D02*
X132914354Y-100937748D01*
X134384354Y-101460252D02*
X134384354Y-100937748D01*
D12*
%TO.C,U1*%
X145622354Y-99143100D02*
X145622354Y-98800200D01*
X145622354Y-101312260D02*
X145622354Y-101015080D01*
X152434634Y-98800200D02*
X152886754Y-98800200D01*
X152886754Y-98800200D02*
X152886754Y-98970380D01*
X152886754Y-103887820D02*
X152886754Y-104058000D01*
X152886754Y-104058000D02*
X152434634Y-104058000D01*
D11*
%TO.C,C6*%
X137114354Y-101460252D02*
X137114354Y-100937748D01*
X138584354Y-101460252D02*
X138584354Y-100937748D01*
%TO.C,C5*%
X135014354Y-101460252D02*
X135014354Y-100937748D01*
X136484354Y-101460252D02*
X136484354Y-100937748D01*
%TO.C,R5*%
X156216578Y-97876500D02*
X155707130Y-97876500D01*
X156216578Y-98921500D02*
X155707130Y-98921500D01*
%TO.C,R3*%
X156216578Y-100876500D02*
X155707130Y-100876500D01*
X156216578Y-101921500D02*
X155707130Y-101921500D01*
%TO.C,C1*%
X149908287Y-105220120D02*
X150200821Y-105220120D01*
X149908287Y-106240120D02*
X150200821Y-106240120D01*
%TO.C,C2*%
X143439354Y-101345267D02*
X143439354Y-101052733D01*
X144459354Y-101345267D02*
X144459354Y-101052733D01*
%TO.C,C19*%
X152539354Y-95352733D02*
X152539354Y-95645267D01*
X153559354Y-95352733D02*
X153559354Y-95645267D01*
%TO.C,R4*%
X156216578Y-99376500D02*
X155707130Y-99376500D01*
X156216578Y-100421500D02*
X155707130Y-100421500D01*
%TO.C,C9*%
X123039354Y-97789000D02*
X125389354Y-97789000D01*
X123039354Y-103544563D02*
X123039354Y-97789000D01*
X124103791Y-104609000D02*
X123039354Y-103544563D01*
X124103791Y-104609000D02*
X125389354Y-104609000D01*
X128794917Y-104609000D02*
X127509354Y-104609000D01*
X128794917Y-104609000D02*
X129859354Y-103544563D01*
X129859354Y-97789000D02*
X127509354Y-97789000D01*
X129859354Y-103544563D02*
X129859354Y-97789000D01*
%TO.C,C21*%
X148939354Y-95352733D02*
X148939354Y-95645267D01*
X149959354Y-95352733D02*
X149959354Y-95645267D01*
%TO.C,C8*%
X141304354Y-101460252D02*
X141304354Y-100937748D01*
X142774354Y-101460252D02*
X142774354Y-100937748D01*
%TO.C,L1*%
X145500000Y-77900000D02*
X158100000Y-77900000D01*
X145500000Y-80900000D02*
X145500000Y-77900000D01*
X145500000Y-90500000D02*
X145500000Y-87500000D01*
X158100000Y-77900000D02*
X158100000Y-80900000D01*
X158100000Y-87500000D02*
X158100000Y-90500000D01*
X158100000Y-90500000D02*
X145500000Y-90500000D01*
%TO.C,U3*%
X121290000Y-83152500D02*
X122550000Y-83152500D01*
X121290000Y-86912500D02*
X121290000Y-83152500D01*
X128110000Y-83152500D02*
X126850000Y-83152500D01*
X128110000Y-86912500D02*
X128110000Y-83152500D01*
X121390000Y-88192500D02*
X121060000Y-88432500D01*
X121060000Y-87952500D01*
X121390000Y-88192500D01*
G36*
X121390000Y-88192500D02*
G01*
X121060000Y-88432500D01*
X121060000Y-87952500D01*
X121390000Y-88192500D01*
G37*
%TO.C,C7*%
X139214354Y-101460252D02*
X139214354Y-100937748D01*
X140684354Y-101460252D02*
X140684354Y-100937748D01*
%TO.C,J2*%
X158489354Y-108489000D02*
X158489354Y-109739000D01*
X158789354Y-108789000D02*
X158789354Y-113509000D01*
X158789354Y-110099000D02*
X159399354Y-110099000D01*
X158789354Y-111399000D02*
X159399354Y-111399000D01*
X158789354Y-113509000D02*
X164909354Y-113509000D01*
X159399354Y-109399000D02*
X159399354Y-112899000D01*
X159399354Y-112899000D02*
X164299354Y-112899000D01*
X159739354Y-108489000D02*
X158489354Y-108489000D01*
X160249354Y-108589000D02*
X160249354Y-108789000D01*
X160549354Y-108589000D02*
X160249354Y-108589000D01*
X160549354Y-108689000D02*
X160249354Y-108689000D01*
X160549354Y-108789000D02*
X160549354Y-108589000D01*
X161349354Y-108789000D02*
X161349354Y-109399000D01*
X161349354Y-109399000D02*
X159399354Y-109399000D01*
X161749354Y-112399000D02*
X161949354Y-112399000D01*
X161749354Y-112899000D02*
X161749354Y-112399000D01*
X161849354Y-112899000D02*
X161849354Y-112399000D01*
X161949354Y-112399000D02*
X161949354Y-112899000D01*
X162349354Y-109399000D02*
X162349354Y-108789000D01*
X164299354Y-109399000D02*
X162349354Y-109399000D01*
X164299354Y-112899000D02*
X164299354Y-109399000D01*
X164909354Y-108789000D02*
X158789354Y-108789000D01*
X164909354Y-110099000D02*
X164299354Y-110099000D01*
X164909354Y-111399000D02*
X164299354Y-111399000D01*
X164909354Y-113509000D02*
X164909354Y-108789000D01*
%TO.C,C20*%
X150639354Y-95352733D02*
X150639354Y-95645267D01*
X151659354Y-95352733D02*
X151659354Y-95645267D01*
%TO.C,R2*%
X154126854Y-95753724D02*
X154126854Y-95244276D01*
X155171854Y-95753724D02*
X155171854Y-95244276D01*
%TO.C,J1*%
X138989354Y-108489000D02*
X138989354Y-109739000D01*
X139289354Y-108789000D02*
X139289354Y-113509000D01*
X139289354Y-110099000D02*
X139899354Y-110099000D01*
X139289354Y-111399000D02*
X139899354Y-111399000D01*
X139289354Y-113509000D02*
X157409354Y-113509000D01*
X139899354Y-109399000D02*
X139899354Y-112899000D01*
X139899354Y-112899000D02*
X156799354Y-112899000D01*
X140239354Y-108489000D02*
X138989354Y-108489000D01*
X140749354Y-108589000D02*
X140749354Y-108789000D01*
X141049354Y-108589000D02*
X140749354Y-108589000D01*
X141049354Y-108689000D02*
X140749354Y-108689000D01*
X141049354Y-108789000D02*
X141049354Y-108589000D01*
X141849354Y-108789000D02*
X141849354Y-109399000D01*
X141849354Y-109399000D02*
X139899354Y-109399000D01*
X142249354Y-112399000D02*
X142449354Y-112399000D01*
X142249354Y-112899000D02*
X142249354Y-112399000D01*
X142349354Y-112899000D02*
X142349354Y-112399000D01*
X142449354Y-112399000D02*
X142449354Y-112899000D01*
X144249354Y-112399000D02*
X144449354Y-112399000D01*
X144249354Y-112899000D02*
X144249354Y-112399000D01*
X144349354Y-112899000D02*
X144349354Y-112399000D01*
X144449354Y-112399000D02*
X144449354Y-112899000D01*
X146249354Y-112399000D02*
X146449354Y-112399000D01*
X146249354Y-112899000D02*
X146249354Y-112399000D01*
X146349354Y-112899000D02*
X146349354Y-112399000D01*
X146449354Y-112399000D02*
X146449354Y-112899000D01*
X148249354Y-112399000D02*
X148449354Y-112399000D01*
X148249354Y-112899000D02*
X148249354Y-112399000D01*
X148349354Y-112899000D02*
X148349354Y-112399000D01*
X148449354Y-112399000D02*
X148449354Y-112899000D01*
X150249354Y-112399000D02*
X150449354Y-112399000D01*
X150249354Y-112899000D02*
X150249354Y-112399000D01*
X150349354Y-112899000D02*
X150349354Y-112399000D01*
X150449354Y-112399000D02*
X150449354Y-112899000D01*
X152249354Y-112399000D02*
X152449354Y-112399000D01*
X152249354Y-112899000D02*
X152249354Y-112399000D01*
X152349354Y-112899000D02*
X152349354Y-112399000D01*
X152449354Y-112399000D02*
X152449354Y-112899000D01*
X154249354Y-112399000D02*
X154449354Y-112399000D01*
X154249354Y-112899000D02*
X154249354Y-112399000D01*
X154349354Y-112899000D02*
X154349354Y-112399000D01*
X154449354Y-112399000D02*
X154449354Y-112899000D01*
X154849354Y-109399000D02*
X154849354Y-108789000D01*
X156799354Y-109399000D02*
X154849354Y-109399000D01*
X156799354Y-112899000D02*
X156799354Y-109399000D01*
X157409354Y-108789000D02*
X139289354Y-108789000D01*
X157409354Y-110099000D02*
X156799354Y-110099000D01*
X157409354Y-111399000D02*
X156799354Y-111399000D01*
X157409354Y-113509000D02*
X157409354Y-108789000D01*
%TO.C,C3*%
X130814354Y-101460252D02*
X130814354Y-100937748D01*
X132284354Y-101460252D02*
X132284354Y-100937748D01*
%TO.C,D1*%
X114350000Y-99310000D02*
X118650000Y-99310000D01*
X114350000Y-99310000D02*
X114350000Y-91900000D01*
X118650000Y-99310000D02*
X118650000Y-91900000D01*
%TD*%
G36*
X178458596Y-105019685D02*
G01*
X178504351Y-105072489D01*
X178515557Y-105124000D01*
X178515557Y-112876000D01*
X178495872Y-112943039D01*
X178443068Y-112988794D01*
X178391557Y-113000000D01*
X170639557Y-113000000D01*
X170572518Y-112980315D01*
X170526763Y-112927511D01*
X170515557Y-112876000D01*
X170515557Y-105124000D01*
X170535242Y-105056961D01*
X170588046Y-105011206D01*
X170639557Y-105000000D01*
X178391557Y-105000000D01*
X178458596Y-105019685D01*
G37*
M02*
