%TF.GenerationSoftware,KiCad,Pcbnew,9.0.4*%
%TF.CreationDate,2025-09-17T13:52:30+02:00*%
%TF.ProjectId,switching_psu,73776974-6368-4696-9e67-5f7073752e6b,rev?*%
%TF.SameCoordinates,Original*%
%TF.FileFunction,Copper,L4,Bot*%
%TF.FilePolarity,Positive*%
%FSLAX46Y46*%
G04 Gerber Fmt 4.6, Leading zero omitted, Abs format (unit mm)*
G04 Created by KiCad (PCBNEW 9.0.4) date 2025-09-17 13:52:31*
%MOMM*%
%LPD*%
G01*
G04 APERTURE LIST*
G04 Aperture macros list*
%AMRoundRect*
0 Rectangle with rounded corners*
0 $1 Rounding radius*
0 $2 $3 $4 $5 $6 $7 $8 $9 X,Y pos of 4 corners*
0 Add a 4 corners polygon primitive as box body*
4,1,4,$2,$3,$4,$5,$6,$7,$8,$9,$2,$3,0*
0 Add four circle primitives for the rounded corners*
1,1,$1+$1,$2,$3*
1,1,$1+$1,$4,$5*
1,1,$1+$1,$6,$7*
1,1,$1+$1,$8,$9*
0 Add four rect primitives between the rounded corners*
20,1,$1+$1,$2,$3,$4,$5,0*
20,1,$1+$1,$4,$5,$6,$7,0*
20,1,$1+$1,$6,$7,$8,$9,0*
20,1,$1+$1,$8,$9,$2,$3,0*%
G04 Aperture macros list end*
%TA.AperFunction,ComponentPad*%
%ADD10C,0.900000*%
%TD*%
%TA.AperFunction,ComponentPad*%
%ADD11C,8.600000*%
%TD*%
%TA.AperFunction,ComponentPad*%
%ADD12RoundRect,0.250000X-0.350000X-0.625000X0.350000X-0.625000X0.350000X0.625000X-0.350000X0.625000X0*%
%TD*%
%TA.AperFunction,ComponentPad*%
%ADD13O,1.200000X1.750000*%
%TD*%
%TA.AperFunction,SMDPad,CuDef*%
%ADD14RoundRect,0.237500X0.237500X-0.300000X0.237500X0.300000X-0.237500X0.300000X-0.237500X-0.300000X0*%
%TD*%
%TA.AperFunction,ViaPad*%
%ADD15C,0.600000*%
%TD*%
%TA.AperFunction,ViaPad*%
%ADD16C,4.000000*%
%TD*%
%TA.AperFunction,Conductor*%
%ADD17C,0.500000*%
%TD*%
%TA.AperFunction,Conductor*%
%ADD18C,0.100000*%
%TD*%
%TA.AperFunction,Conductor*%
%ADD19C,0.200000*%
%TD*%
G04 APERTURE END LIST*
D10*
%TO.P,H1,1,1*%
%TO.N,Net-(F1-Pad1)*%
X102024354Y-99900000D03*
X102968935Y-97619581D03*
X102968935Y-102180419D03*
X105249354Y-96675000D03*
D11*
X105249354Y-99900000D03*
D10*
X105249354Y-103125000D03*
X107529773Y-97619581D03*
X107529773Y-102180419D03*
X108474354Y-99900000D03*
%TD*%
%TO.P,H3,1,1*%
%TO.N,Vout*%
X182024354Y-89799000D03*
X182968935Y-87518581D03*
X182968935Y-92079419D03*
X185249354Y-86574000D03*
D11*
X185249354Y-89799000D03*
D10*
X185249354Y-93024000D03*
X187529773Y-87518581D03*
X187529773Y-92079419D03*
X188474354Y-89799000D03*
%TD*%
%TO.P,H4,1,1*%
%TO.N,GND*%
X182024354Y-99899000D03*
X182968935Y-97618581D03*
X182968935Y-102179419D03*
X185249354Y-96674000D03*
D11*
X185249354Y-99899000D03*
D10*
X185249354Y-103124000D03*
X187529773Y-97618581D03*
X187529773Y-102179419D03*
X188474354Y-99899000D03*
%TD*%
%TO.P,H2,1,1*%
%TO.N,GND*%
X102024354Y-89799000D03*
X102968935Y-87518581D03*
X102968935Y-92079419D03*
X105249354Y-86574000D03*
D11*
X105249354Y-89799000D03*
D10*
X105249354Y-93024000D03*
X107529773Y-87518581D03*
X107529773Y-92079419D03*
X108474354Y-89799000D03*
%TD*%
D12*
%TO.P,J2,1,Pin_1*%
%TO.N,Net-(J2-Pin_1)*%
X160849354Y-110599000D03*
D13*
%TO.P,J2,2,Pin_2*%
%TO.N,Net-(J2-Pin_2)*%
X162849354Y-110599000D03*
%TD*%
D12*
%TO.P,J1,1,Pin_1*%
%TO.N,+5V*%
X141349354Y-110599000D03*
D13*
%TO.P,J1,2,Pin_2*%
%TO.N,GND*%
X143349354Y-110599000D03*
%TO.P,J1,3,Pin_3*%
%TO.N,unconnected-(J1-Pin_3-Pad3)*%
X145349354Y-110599000D03*
%TO.P,J1,4,Pin_4*%
%TO.N,EN*%
X147349354Y-110599000D03*
%TO.P,J1,5,Pin_5*%
%TO.N,SCL*%
X149349354Y-110599000D03*
%TO.P,J1,6,Pin_6*%
%TO.N,SDA*%
X151349354Y-110599000D03*
%TO.P,J1,7,Pin_7*%
%TO.N,SALRT*%
X153349354Y-110599000D03*
%TO.P,J1,8,Pin_8*%
%TO.N,Pgood*%
X155349354Y-110599000D03*
%TD*%
D14*
%TO.P,C22,1*%
%TO.N,Vin*%
X127000000Y-87725000D03*
%TO.P,C22,2*%
%TO.N,GND*%
X127000000Y-86000000D03*
%TD*%
%TO.P,C23,1*%
%TO.N,+5V*%
X124700000Y-87725000D03*
%TO.P,C23,2*%
%TO.N,GND*%
X124700000Y-86000000D03*
%TD*%
D15*
%TO.N,GND*%
X160285000Y-103601000D03*
%TO.N,+5V*%
X124700000Y-88150000D03*
%TO.N,Vin*%
X127000000Y-88250000D03*
%TO.N,GND*%
X153050000Y-93950000D03*
X151150000Y-93950000D03*
X149450000Y-93950000D03*
D16*
%TO.N,+5V*%
X136950646Y-82749646D03*
X136950646Y-77749646D03*
X112500646Y-77800000D03*
X112500646Y-82800000D03*
D15*
%TO.N,GND*%
X173700646Y-96087500D03*
X171300646Y-95387500D03*
X176900646Y-96087500D03*
X178500646Y-96087500D03*
X175300646Y-96087500D03*
X165200000Y-97050000D03*
X163250000Y-97100000D03*
X164250000Y-98850000D03*
X168200646Y-95387500D03*
X176100646Y-95337500D03*
X168900646Y-96137500D03*
X169700646Y-95387500D03*
X172100646Y-96087500D03*
X170500646Y-96087500D03*
X172900646Y-95387500D03*
X174500646Y-95337500D03*
X164250000Y-95200000D03*
X177700646Y-95337500D03*
%TO.N,Vin*%
X125090000Y-96110000D03*
%TO.N,GND*%
X115900000Y-93800000D03*
X115900000Y-90000000D03*
X117800000Y-93100000D03*
X117800000Y-90700000D03*
X115200000Y-93100000D03*
X115200000Y-90700000D03*
X117800000Y-91900000D03*
X115200000Y-91900000D03*
X117100000Y-93800000D03*
X117100000Y-90000000D03*
X126450000Y-96800000D03*
X143100000Y-100250000D03*
X150650000Y-100030000D03*
X146800000Y-100470000D03*
X146800000Y-101850000D03*
X122400646Y-87050000D03*
X127400000Y-98650000D03*
X151550000Y-101410000D03*
X137850000Y-99400000D03*
X149650000Y-101750000D03*
X151550000Y-102130000D03*
X147700000Y-101850000D03*
X124050646Y-86050000D03*
X151550000Y-100710000D03*
X139950000Y-99400000D03*
X151550000Y-102830000D03*
X150650000Y-100710000D03*
X148750000Y-101750000D03*
X131550000Y-99400000D03*
X133650000Y-99400000D03*
X147700000Y-101150000D03*
X146800000Y-101150000D03*
X138900000Y-100200000D03*
X150650000Y-102130000D03*
X142050000Y-99400000D03*
X143950000Y-99600000D03*
X125850646Y-86000000D03*
X130650000Y-100200000D03*
X126450000Y-100500000D03*
X141000000Y-100200000D03*
X122400646Y-89400000D03*
X127650646Y-86000000D03*
X136800000Y-100200000D03*
X132600000Y-100200000D03*
X150650000Y-102830000D03*
X150650000Y-101410000D03*
X123300646Y-88200000D03*
X134700000Y-100200000D03*
X151550000Y-100030000D03*
X125450000Y-98650000D03*
X135750000Y-99400000D03*
X147700000Y-100470000D03*
%TO.N,Vin*%
X151911854Y-96361500D03*
%TO.N,+5V*%
X153849354Y-96411500D03*
D16*
X132100000Y-82799000D03*
X117300000Y-77799000D03*
X127100000Y-77799000D03*
X132100000Y-77799000D03*
X122100000Y-77799000D03*
X117300000Y-82799000D03*
D15*
%TO.N,EN*%
X151299997Y-97700000D03*
%TO.N,Pgood*%
X153949354Y-101949000D03*
%TO.N,SCL*%
X152100000Y-97700000D03*
%TO.N,SALRT*%
X153949354Y-98499000D03*
%TO.N,SDA*%
X152900000Y-97700000D03*
%TD*%
D17*
%TO.N,Vin*%
X127000000Y-88250000D02*
X127000000Y-88212500D01*
D18*
X151650354Y-96100000D02*
X151911854Y-96361500D01*
X125100000Y-96100000D02*
X151650354Y-96100000D01*
X125090000Y-96110000D02*
X125100000Y-96100000D01*
%TO.N,+5V*%
X149701000Y-95500000D02*
X137050354Y-82849354D01*
X153150000Y-95500000D02*
X149701000Y-95500000D01*
X153849354Y-96411500D02*
X153849354Y-96199354D01*
X153849354Y-96199354D02*
X153150000Y-95500000D01*
%TO.N,EN*%
X152260000Y-105640000D02*
X147349354Y-110550646D01*
X152260000Y-99034305D02*
X152260000Y-105640000D01*
X151299997Y-98074302D02*
X152260000Y-99034305D01*
X151299997Y-97700000D02*
X151299997Y-98074302D01*
X147349354Y-110550646D02*
X147349354Y-110599000D01*
%TO.N,SCL*%
X149349354Y-109750646D02*
X149349354Y-110599000D01*
X152600000Y-106500000D02*
X149349354Y-109750646D01*
X152600000Y-98200000D02*
X152600000Y-106500000D01*
X152100000Y-97700000D02*
X152600000Y-98200000D01*
%TO.N,SDA*%
X151349354Y-109800646D02*
X151349354Y-110599000D01*
X152900000Y-108250000D02*
X151349354Y-109800646D01*
X152900000Y-97700000D02*
X152900000Y-108250000D01*
D17*
%TO.N,Vin*%
X125090000Y-90410646D02*
X125640646Y-89860000D01*
X125090000Y-96110000D02*
X125090000Y-90410646D01*
D18*
%TO.N,+5V*%
X136950646Y-82800000D02*
X136950646Y-82749646D01*
X132100000Y-82849354D02*
X132100000Y-82799000D01*
%TO.N,Pgood*%
X153900000Y-101998354D02*
X153949354Y-101949000D01*
X153900000Y-109050000D02*
X153900000Y-101998354D01*
X155349354Y-110499354D02*
X153900000Y-109050000D01*
X155349354Y-110599000D02*
X155349354Y-110499354D01*
%TO.N,SALRT*%
X153349354Y-99099000D02*
X153349354Y-110599000D01*
X153949354Y-98499000D02*
X153349354Y-99099000D01*
D19*
%TO.N,GND*%
X124700000Y-86000000D02*
X127000000Y-86000000D01*
D17*
%TO.N,Vin*%
X125640646Y-89860000D02*
X127000000Y-88500646D01*
%TO.N,+5V*%
X124149354Y-88763146D02*
X124700000Y-88212500D01*
X124149354Y-100399354D02*
X124149354Y-88763146D01*
X134349000Y-110599000D02*
X124149354Y-100399354D01*
X141349354Y-110599000D02*
X134349000Y-110599000D01*
%TO.N,Vin*%
X127000000Y-88500646D02*
X127000000Y-88250000D01*
%TD*%
%TA.AperFunction,Conductor*%
%TO.N,+5V*%
G36*
X139143039Y-75232988D02*
G01*
X139188794Y-75285792D01*
X139200000Y-75337303D01*
X139200000Y-84989303D01*
X139180315Y-85056342D01*
X139127511Y-85102097D01*
X139076000Y-85113303D01*
X127727264Y-85113303D01*
X127662168Y-85094842D01*
X127551522Y-85026595D01*
X127551517Y-85026593D01*
X127551516Y-85026592D01*
X127387753Y-84972326D01*
X127387751Y-84972325D01*
X127286678Y-84962000D01*
X126713330Y-84962000D01*
X126713312Y-84962001D01*
X126612247Y-84972325D01*
X126448484Y-85026592D01*
X126448477Y-85026595D01*
X126337832Y-85094842D01*
X126272736Y-85113303D01*
X125427264Y-85113303D01*
X125362168Y-85094842D01*
X125251522Y-85026595D01*
X125251517Y-85026593D01*
X125251516Y-85026592D01*
X125087753Y-84972326D01*
X125087751Y-84972325D01*
X124986678Y-84962000D01*
X124413330Y-84962000D01*
X124413312Y-84962001D01*
X124312247Y-84972325D01*
X124148484Y-85026592D01*
X124148477Y-85026595D01*
X124037832Y-85094842D01*
X123972736Y-85113303D01*
X110424000Y-85113303D01*
X110356961Y-85093618D01*
X110311206Y-85040814D01*
X110300000Y-84989303D01*
X110300000Y-75337303D01*
X110319685Y-75270264D01*
X110372489Y-75224509D01*
X110424000Y-75213303D01*
X139076000Y-75213303D01*
X139143039Y-75232988D01*
G37*
%TD.AperFunction*%
%TD*%
%TA.AperFunction,Conductor*%
%TO.N,GND*%
G36*
X109738249Y-75219185D02*
G01*
X109784004Y-75271989D01*
X109792739Y-75332740D01*
X109794816Y-75332889D01*
X109794500Y-75337306D01*
X109794500Y-79649088D01*
X109774815Y-79716127D01*
X109722011Y-79761882D01*
X109652853Y-79771826D01*
X109589297Y-79742801D01*
X109551523Y-79684023D01*
X109546615Y-79654423D01*
X109544191Y-79598137D01*
X109540895Y-79521582D01*
X109524986Y-79337207D01*
X109501160Y-79153687D01*
X109469461Y-78971362D01*
X109464399Y-78948204D01*
X109429947Y-78790574D01*
X109382693Y-78611654D01*
X109380182Y-78603571D01*
X109327781Y-78434919D01*
X109265319Y-78260719D01*
X109195421Y-78089368D01*
X109191710Y-78081285D01*
X109118221Y-77921196D01*
X109118215Y-77921182D01*
X109033845Y-77756474D01*
X108942467Y-77595548D01*
X108882157Y-77499237D01*
X108844250Y-77438701D01*
X108739381Y-77286234D01*
X108733288Y-77278144D01*
X108628040Y-77138405D01*
X108569243Y-77066957D01*
X108510450Y-76995513D01*
X108386809Y-76857799D01*
X108257375Y-76725551D01*
X108248751Y-76717466D01*
X108122361Y-76598982D01*
X107982029Y-76478342D01*
X107971759Y-76470255D01*
X107836636Y-76363850D01*
X107714011Y-76275562D01*
X107686454Y-76255721D01*
X107531758Y-76154152D01*
X107372835Y-76059333D01*
X107372822Y-76059325D01*
X107209995Y-75971446D01*
X107209993Y-75971445D01*
X107209980Y-75971438D01*
X107043494Y-75890632D01*
X106873686Y-75817062D01*
X106852584Y-75808979D01*
X106700877Y-75750869D01*
X106676704Y-75742784D01*
X106525367Y-75692167D01*
X106480075Y-75679156D01*
X106347510Y-75641075D01*
X106167592Y-75597676D01*
X105985996Y-75562061D01*
X105843292Y-75540403D01*
X105803035Y-75534294D01*
X105698537Y-75523007D01*
X105619049Y-75514422D01*
X105434357Y-75502483D01*
X105249354Y-75498501D01*
X105064350Y-75502483D01*
X104879658Y-75514422D01*
X104780298Y-75525154D01*
X104695673Y-75534294D01*
X104670963Y-75538044D01*
X104512711Y-75562061D01*
X104331115Y-75597676D01*
X104151197Y-75641075D01*
X104001486Y-75684082D01*
X103973341Y-75692167D01*
X103906889Y-75714393D01*
X103797830Y-75750869D01*
X103625021Y-75817062D01*
X103473870Y-75882549D01*
X103455214Y-75890632D01*
X103288728Y-75971438D01*
X103288712Y-75971446D01*
X103125885Y-76059325D01*
X102966954Y-76154149D01*
X102812248Y-76255725D01*
X102662071Y-76363850D01*
X102516683Y-76478338D01*
X102441481Y-76542988D01*
X102385750Y-76590899D01*
X102376338Y-76598990D01*
X102241332Y-76725551D01*
X102111898Y-76857799D01*
X101988257Y-76995513D01*
X101870670Y-77138402D01*
X101759326Y-77286234D01*
X101654457Y-77438701D01*
X101556249Y-77595534D01*
X101464862Y-77756474D01*
X101392829Y-77897098D01*
X101384634Y-77913099D01*
X101380486Y-77921196D01*
X101303293Y-78089352D01*
X101233383Y-78260732D01*
X101170931Y-78434906D01*
X101116014Y-78611654D01*
X101068760Y-78790574D01*
X101029246Y-78971362D01*
X100997549Y-79153678D01*
X100973721Y-79337209D01*
X100965374Y-79433956D01*
X100958511Y-79513499D01*
X100957813Y-79521585D01*
X100949851Y-79706470D01*
X100949353Y-79799000D01*
X100949851Y-79891529D01*
X100957813Y-80076414D01*
X100973721Y-80260790D01*
X100997549Y-80444321D01*
X101029246Y-80626637D01*
X101068760Y-80807425D01*
X101116014Y-80986345D01*
X101116017Y-80986354D01*
X101168419Y-81155010D01*
X101170931Y-81163093D01*
X101233383Y-81337267D01*
X101303293Y-81508647D01*
X101376782Y-81668735D01*
X101380493Y-81676818D01*
X101429727Y-81772933D01*
X101460722Y-81833443D01*
X101464863Y-81841526D01*
X101556241Y-82002452D01*
X101556247Y-82002462D01*
X101556249Y-82002465D01*
X101654457Y-82159298D01*
X101753772Y-82303690D01*
X101759332Y-82311773D01*
X101864580Y-82451512D01*
X101870670Y-82459597D01*
X101988257Y-82602486D01*
X102111898Y-82740200D01*
X102233421Y-82864365D01*
X102241335Y-82872451D01*
X102376347Y-82999018D01*
X102516679Y-83119658D01*
X102662071Y-83234149D01*
X102812254Y-83342279D01*
X102966950Y-83443848D01*
X103112337Y-83530591D01*
X103125885Y-83538674D01*
X103221861Y-83590473D01*
X103288728Y-83626562D01*
X103455214Y-83707368D01*
X103625022Y-83780938D01*
X103797837Y-83847133D01*
X103973341Y-83905833D01*
X104123059Y-83948841D01*
X104151197Y-83956924D01*
X104151200Y-83956924D01*
X104151208Y-83956927D01*
X104331108Y-84000322D01*
X104417419Y-84017249D01*
X104512711Y-84035938D01*
X104568513Y-84044406D01*
X104695673Y-84063706D01*
X104879663Y-84083578D01*
X105064337Y-84095516D01*
X105249354Y-84099498D01*
X105434371Y-84095516D01*
X105619045Y-84083578D01*
X105803035Y-84063706D01*
X105945742Y-84042046D01*
X105985996Y-84035938D01*
X106035888Y-84026153D01*
X106167600Y-84000322D01*
X106347500Y-83956927D01*
X106525367Y-83905833D01*
X106700871Y-83847133D01*
X106873686Y-83780938D01*
X107043494Y-83707368D01*
X107209980Y-83626562D01*
X107372835Y-83538667D01*
X107531758Y-83443848D01*
X107686454Y-83342279D01*
X107836637Y-83234149D01*
X107982029Y-83119658D01*
X108122361Y-82999018D01*
X108257373Y-82872451D01*
X108386815Y-82740194D01*
X108510447Y-82602490D01*
X108628040Y-82459595D01*
X108739376Y-82311773D01*
X108844250Y-82159298D01*
X108942467Y-82002452D01*
X109033845Y-81841526D01*
X109118215Y-81676818D01*
X109195421Y-81508632D01*
X109265319Y-81337281D01*
X109327781Y-81163081D01*
X109382691Y-80986354D01*
X109429946Y-80807430D01*
X109469461Y-80626638D01*
X109501160Y-80444313D01*
X109524986Y-80260793D01*
X109540895Y-80076418D01*
X109546615Y-79943576D01*
X109569165Y-79877446D01*
X109623889Y-79834005D01*
X109693411Y-79827046D01*
X109755659Y-79858778D01*
X109790870Y-79919127D01*
X109794500Y-79948911D01*
X109794500Y-84989303D01*
X109794501Y-84989312D01*
X109806052Y-85096753D01*
X109806054Y-85096765D01*
X109817260Y-85148275D01*
X109851383Y-85250800D01*
X109851386Y-85250806D01*
X109929171Y-85371840D01*
X109929179Y-85371851D01*
X109974923Y-85424643D01*
X109974926Y-85424646D01*
X109974930Y-85424650D01*
X110083664Y-85518870D01*
X110083667Y-85518871D01*
X110083668Y-85518872D01*
X110097263Y-85525081D01*
X110214541Y-85578641D01*
X110281580Y-85598326D01*
X110281584Y-85598327D01*
X110424000Y-85618803D01*
X110424003Y-85618803D01*
X123972731Y-85618803D01*
X123972736Y-85618803D01*
X124110655Y-85599624D01*
X124175751Y-85581163D01*
X124303208Y-85525081D01*
X124351234Y-85495456D01*
X124377318Y-85483293D01*
X124405813Y-85473850D01*
X124432358Y-85468185D01*
X124432947Y-85468125D01*
X124445387Y-85467500D01*
X124954612Y-85467500D01*
X124967086Y-85468129D01*
X124967683Y-85468190D01*
X124994186Y-85473851D01*
X125022676Y-85483291D01*
X125048763Y-85495456D01*
X125096794Y-85525082D01*
X125224249Y-85581163D01*
X125289345Y-85599624D01*
X125427264Y-85618803D01*
X125427269Y-85618803D01*
X126272731Y-85618803D01*
X126272736Y-85618803D01*
X126410655Y-85599624D01*
X126475751Y-85581163D01*
X126603208Y-85525081D01*
X126651234Y-85495456D01*
X126677318Y-85483293D01*
X126705813Y-85473850D01*
X126732358Y-85468185D01*
X126732947Y-85468125D01*
X126745387Y-85467500D01*
X127254612Y-85467500D01*
X127267086Y-85468129D01*
X127267683Y-85468190D01*
X127294186Y-85473851D01*
X127322676Y-85483291D01*
X127348763Y-85495456D01*
X127396794Y-85525082D01*
X127524249Y-85581163D01*
X127589345Y-85599624D01*
X127727264Y-85618803D01*
X127727269Y-85618803D01*
X139075990Y-85618803D01*
X139076000Y-85618803D01*
X139183456Y-85607250D01*
X139234967Y-85596044D01*
X139318209Y-85568337D01*
X139388034Y-85565844D01*
X139445050Y-85598311D01*
X149484558Y-95637819D01*
X149518043Y-95699142D01*
X149513059Y-95768834D01*
X149471187Y-95824767D01*
X149405723Y-95849184D01*
X149396877Y-95849500D01*
X125664500Y-95849500D01*
X125597461Y-95829815D01*
X125551706Y-95777011D01*
X125540500Y-95725500D01*
X125540500Y-90648611D01*
X125560185Y-90581572D01*
X125576819Y-90560930D01*
X126173422Y-89964327D01*
X127360489Y-88777260D01*
X127419799Y-88674533D01*
X127426286Y-88650319D01*
X127450500Y-88559955D01*
X127450500Y-88494119D01*
X127452045Y-88484424D01*
X127460495Y-88466641D01*
X127464620Y-88451250D01*
X127463282Y-88450696D01*
X127466391Y-88443188D01*
X127469437Y-88431821D01*
X127505799Y-88372159D01*
X127515581Y-88364138D01*
X127533079Y-88351223D01*
X127550711Y-88338211D01*
X127629116Y-88231975D01*
X127672725Y-88107349D01*
X127675500Y-88077756D01*
X127675500Y-87372244D01*
X127672725Y-87342651D01*
X127629116Y-87218025D01*
X127550711Y-87111789D01*
X127550710Y-87111788D01*
X127444476Y-87033384D01*
X127319848Y-86989774D01*
X127319849Y-86989774D01*
X127290260Y-86987000D01*
X127290256Y-86987000D01*
X126709744Y-86987000D01*
X126709740Y-86987000D01*
X126680150Y-86989774D01*
X126555523Y-87033384D01*
X126449289Y-87111788D01*
X126449288Y-87111789D01*
X126370884Y-87218023D01*
X126327274Y-87342650D01*
X126324500Y-87372239D01*
X126324500Y-88077760D01*
X126327274Y-88107349D01*
X126370883Y-88231974D01*
X126418213Y-88296104D01*
X126442183Y-88361733D01*
X126426867Y-88429903D01*
X126406123Y-88457418D01*
X125364032Y-89499511D01*
X124811535Y-90052008D01*
X124750212Y-90085493D01*
X124680520Y-90080509D01*
X124624587Y-90038637D01*
X124600170Y-89973173D01*
X124599854Y-89964327D01*
X124599854Y-89001110D01*
X124619539Y-88934071D01*
X124636169Y-88913433D01*
X124976401Y-88573200D01*
X124977842Y-88571784D01*
X124988810Y-88561182D01*
X125007314Y-88550500D01*
X125100500Y-88457314D01*
X125105840Y-88448063D01*
X125118351Y-88435971D01*
X125133687Y-88427931D01*
X125138121Y-88423659D01*
X125136997Y-88422135D01*
X125144475Y-88416616D01*
X125250711Y-88338211D01*
X125329116Y-88231975D01*
X125372725Y-88107349D01*
X125375500Y-88077756D01*
X125375500Y-87372244D01*
X125372725Y-87342651D01*
X125329116Y-87218025D01*
X125250711Y-87111789D01*
X125250710Y-87111788D01*
X125144476Y-87033384D01*
X125019848Y-86989774D01*
X125019849Y-86989774D01*
X124990260Y-86987000D01*
X124990256Y-86987000D01*
X124409744Y-86987000D01*
X124409740Y-86987000D01*
X124380150Y-86989774D01*
X124255523Y-87033384D01*
X124149289Y-87111788D01*
X124149288Y-87111789D01*
X124070884Y-87218023D01*
X124027274Y-87342650D01*
X124024500Y-87372239D01*
X124024500Y-88077760D01*
X124027274Y-88107344D01*
X124027276Y-88107355D01*
X124038031Y-88138091D01*
X124041592Y-88207870D01*
X124008671Y-88266725D01*
X123788864Y-88486533D01*
X123788863Y-88486535D01*
X123729555Y-88589258D01*
X123729554Y-88589263D01*
X123698854Y-88703837D01*
X123698854Y-100458662D01*
X123723066Y-100549026D01*
X123729554Y-100573239D01*
X123729554Y-100573240D01*
X123729555Y-100573241D01*
X123788865Y-100675968D01*
X134072386Y-110959490D01*
X134175113Y-111018799D01*
X134199321Y-111025284D01*
X134199324Y-111025286D01*
X134199325Y-111025286D01*
X134229447Y-111033357D01*
X134289691Y-111049500D01*
X140424854Y-111049500D01*
X140491893Y-111069185D01*
X140537648Y-111121989D01*
X140548854Y-111173500D01*
X140548854Y-111278269D01*
X140551707Y-111308699D01*
X140551707Y-111308701D01*
X140596521Y-111436769D01*
X140596561Y-111436882D01*
X140677204Y-111546150D01*
X140786472Y-111626793D01*
X140829199Y-111641744D01*
X140914653Y-111671646D01*
X140945084Y-111674500D01*
X140945088Y-111674500D01*
X141753624Y-111674500D01*
X141784053Y-111671646D01*
X141784055Y-111671646D01*
X141848144Y-111649219D01*
X141912236Y-111626793D01*
X142021504Y-111546150D01*
X142102147Y-111436882D01*
X142124573Y-111372790D01*
X142147000Y-111308701D01*
X142147000Y-111308699D01*
X142149854Y-111278269D01*
X142149854Y-110245153D01*
X144548854Y-110245153D01*
X144548854Y-110952846D01*
X144579615Y-111107489D01*
X144579618Y-111107501D01*
X144639956Y-111253172D01*
X144639963Y-111253185D01*
X144727564Y-111384288D01*
X144727567Y-111384292D01*
X144839061Y-111495786D01*
X144839065Y-111495789D01*
X144970168Y-111583390D01*
X144970181Y-111583397D01*
X145074950Y-111626793D01*
X145115857Y-111643737D01*
X145256164Y-111671646D01*
X145270507Y-111674499D01*
X145270510Y-111674500D01*
X145270512Y-111674500D01*
X145428198Y-111674500D01*
X145428199Y-111674499D01*
X145582851Y-111643737D01*
X145728533Y-111583394D01*
X145859643Y-111495789D01*
X145971143Y-111384289D01*
X146058748Y-111253179D01*
X146119091Y-111107497D01*
X146149854Y-110952842D01*
X146149854Y-110245158D01*
X146149854Y-110245156D01*
X146149854Y-110245155D01*
X146149853Y-110245153D01*
X146548854Y-110245153D01*
X146548854Y-110952846D01*
X146579615Y-111107489D01*
X146579618Y-111107501D01*
X146639956Y-111253172D01*
X146639963Y-111253185D01*
X146727564Y-111384288D01*
X146727567Y-111384292D01*
X146839061Y-111495786D01*
X146839065Y-111495789D01*
X146970168Y-111583390D01*
X146970181Y-111583397D01*
X147074950Y-111626793D01*
X147115857Y-111643737D01*
X147256164Y-111671646D01*
X147270507Y-111674499D01*
X147270510Y-111674500D01*
X147270512Y-111674500D01*
X147428198Y-111674500D01*
X147428199Y-111674499D01*
X147582851Y-111643737D01*
X147728533Y-111583394D01*
X147859643Y-111495789D01*
X147971143Y-111384289D01*
X148058748Y-111253179D01*
X148119091Y-111107497D01*
X148149854Y-110952842D01*
X148149854Y-110245158D01*
X148149853Y-110245155D01*
X148139432Y-110192765D01*
X148145659Y-110123173D01*
X148173366Y-110080893D01*
X148432872Y-109821387D01*
X148494193Y-109787904D01*
X148563885Y-109792888D01*
X148619818Y-109834760D01*
X148644235Y-109900224D01*
X148635113Y-109956522D01*
X148579617Y-110090503D01*
X148579616Y-110090506D01*
X148579616Y-110090507D01*
X148579615Y-110090510D01*
X148548854Y-110245153D01*
X148548854Y-110952846D01*
X148579615Y-111107489D01*
X148579618Y-111107501D01*
X148639956Y-111253172D01*
X148639963Y-111253185D01*
X148727564Y-111384288D01*
X148727567Y-111384292D01*
X148839061Y-111495786D01*
X148839065Y-111495789D01*
X148970168Y-111583390D01*
X148970181Y-111583397D01*
X149074950Y-111626793D01*
X149115857Y-111643737D01*
X149256164Y-111671646D01*
X149270507Y-111674499D01*
X149270510Y-111674500D01*
X149270512Y-111674500D01*
X149428198Y-111674500D01*
X149428199Y-111674499D01*
X149582851Y-111643737D01*
X149728533Y-111583394D01*
X149859643Y-111495789D01*
X149971143Y-111384289D01*
X150058748Y-111253179D01*
X150119091Y-111107497D01*
X150149854Y-110952842D01*
X150149854Y-110245158D01*
X150149854Y-110245156D01*
X150149854Y-110245155D01*
X150149853Y-110245153D01*
X150136279Y-110176912D01*
X150119091Y-110090503D01*
X150119089Y-110090498D01*
X150058751Y-109944827D01*
X150058744Y-109944814D01*
X149971143Y-109813711D01*
X149971140Y-109813707D01*
X149893527Y-109736094D01*
X149860042Y-109674771D01*
X149865026Y-109605079D01*
X149893525Y-109560734D01*
X152437819Y-107016441D01*
X152499142Y-106982956D01*
X152568834Y-106987940D01*
X152624767Y-107029812D01*
X152649184Y-107095276D01*
X152649500Y-107104122D01*
X152649500Y-108094877D01*
X152629815Y-108161916D01*
X152613181Y-108182558D01*
X151299266Y-109496472D01*
X151237943Y-109529957D01*
X151235777Y-109530408D01*
X151115862Y-109554261D01*
X151115852Y-109554264D01*
X150970181Y-109614602D01*
X150970168Y-109614609D01*
X150839065Y-109702210D01*
X150839061Y-109702213D01*
X150727567Y-109813707D01*
X150727564Y-109813711D01*
X150639963Y-109944814D01*
X150639956Y-109944827D01*
X150579618Y-110090498D01*
X150579615Y-110090510D01*
X150548854Y-110245153D01*
X150548854Y-110952846D01*
X150579615Y-111107489D01*
X150579618Y-111107501D01*
X150639956Y-111253172D01*
X150639963Y-111253185D01*
X150727564Y-111384288D01*
X150727567Y-111384292D01*
X150839061Y-111495786D01*
X150839065Y-111495789D01*
X150970168Y-111583390D01*
X150970181Y-111583397D01*
X151074950Y-111626793D01*
X151115857Y-111643737D01*
X151256164Y-111671646D01*
X151270507Y-111674499D01*
X151270510Y-111674500D01*
X151270512Y-111674500D01*
X151428198Y-111674500D01*
X151428199Y-111674499D01*
X151582851Y-111643737D01*
X151728533Y-111583394D01*
X151859643Y-111495789D01*
X151971143Y-111384289D01*
X152058748Y-111253179D01*
X152119091Y-111107497D01*
X152149854Y-110952842D01*
X152149854Y-110245158D01*
X152149854Y-110245156D01*
X152149854Y-110245155D01*
X152149853Y-110245153D01*
X152136279Y-110176912D01*
X152119091Y-110090503D01*
X152119089Y-110090498D01*
X152058751Y-109944827D01*
X152058744Y-109944814D01*
X151971143Y-109813711D01*
X151971140Y-109813707D01*
X151918527Y-109761094D01*
X151885042Y-109699771D01*
X151890026Y-109630079D01*
X151918525Y-109585734D01*
X152887173Y-108617085D01*
X152948496Y-108583601D01*
X153018188Y-108588585D01*
X153074121Y-108630457D01*
X153098538Y-108695921D01*
X153098854Y-108704767D01*
X153098854Y-109478450D01*
X153079169Y-109545489D01*
X153026365Y-109591244D01*
X153022308Y-109593010D01*
X152970183Y-109614601D01*
X152970168Y-109614609D01*
X152839065Y-109702210D01*
X152839061Y-109702213D01*
X152727567Y-109813707D01*
X152727564Y-109813711D01*
X152639963Y-109944814D01*
X152639956Y-109944827D01*
X152579618Y-110090498D01*
X152579615Y-110090510D01*
X152548854Y-110245153D01*
X152548854Y-110952846D01*
X152579615Y-111107489D01*
X152579618Y-111107501D01*
X152639956Y-111253172D01*
X152639963Y-111253185D01*
X152727564Y-111384288D01*
X152727567Y-111384292D01*
X152839061Y-111495786D01*
X152839065Y-111495789D01*
X152970168Y-111583390D01*
X152970181Y-111583397D01*
X153074950Y-111626793D01*
X153115857Y-111643737D01*
X153256164Y-111671646D01*
X153270507Y-111674499D01*
X153270510Y-111674500D01*
X153270512Y-111674500D01*
X153428198Y-111674500D01*
X153428199Y-111674499D01*
X153582851Y-111643737D01*
X153728533Y-111583394D01*
X153859643Y-111495789D01*
X153971143Y-111384289D01*
X154058748Y-111253179D01*
X154119091Y-111107497D01*
X154149854Y-110952842D01*
X154149854Y-110245158D01*
X154149854Y-110245156D01*
X154149854Y-110245155D01*
X154149853Y-110245153D01*
X154136279Y-110176912D01*
X154119091Y-110090503D01*
X154119089Y-110090498D01*
X154058751Y-109944827D01*
X154058744Y-109944814D01*
X153989363Y-109840979D01*
X153968485Y-109774302D01*
X153986969Y-109706922D01*
X154038948Y-109660231D01*
X154107918Y-109649055D01*
X154171982Y-109676940D01*
X154180146Y-109684407D01*
X154533848Y-110038109D01*
X154567333Y-110099432D01*
X154567785Y-110149980D01*
X154548854Y-110245158D01*
X154548854Y-110952846D01*
X154579615Y-111107489D01*
X154579618Y-111107501D01*
X154639956Y-111253172D01*
X154639963Y-111253185D01*
X154727564Y-111384288D01*
X154727567Y-111384292D01*
X154839061Y-111495786D01*
X154839065Y-111495789D01*
X154970168Y-111583390D01*
X154970181Y-111583397D01*
X155074950Y-111626793D01*
X155115857Y-111643737D01*
X155256164Y-111671646D01*
X155270507Y-111674499D01*
X155270510Y-111674500D01*
X155270512Y-111674500D01*
X155428198Y-111674500D01*
X155428199Y-111674499D01*
X155582851Y-111643737D01*
X155728533Y-111583394D01*
X155859643Y-111495789D01*
X155971143Y-111384289D01*
X156058748Y-111253179D01*
X156119091Y-111107497D01*
X156149854Y-110952842D01*
X156149854Y-110245158D01*
X156149854Y-110245156D01*
X156149854Y-110245155D01*
X156149853Y-110245153D01*
X156136279Y-110176912D01*
X156119091Y-110090503D01*
X156119089Y-110090498D01*
X156066828Y-109964327D01*
X156066812Y-109964289D01*
X156065748Y-109961722D01*
X156058748Y-109944821D01*
X156058745Y-109944816D01*
X156058744Y-109944814D01*
X156041983Y-109919730D01*
X160048854Y-109919730D01*
X160048854Y-111278269D01*
X160051707Y-111308699D01*
X160051707Y-111308701D01*
X160096521Y-111436769D01*
X160096561Y-111436882D01*
X160177204Y-111546150D01*
X160286472Y-111626793D01*
X160329199Y-111641744D01*
X160414653Y-111671646D01*
X160445084Y-111674500D01*
X160445088Y-111674500D01*
X161253624Y-111674500D01*
X161284053Y-111671646D01*
X161284055Y-111671646D01*
X161348144Y-111649219D01*
X161412236Y-111626793D01*
X161521504Y-111546150D01*
X161602147Y-111436882D01*
X161624573Y-111372790D01*
X161647000Y-111308701D01*
X161647000Y-111308699D01*
X161649854Y-111278269D01*
X161649854Y-110245153D01*
X162048854Y-110245153D01*
X162048854Y-110952846D01*
X162079615Y-111107489D01*
X162079618Y-111107501D01*
X162139956Y-111253172D01*
X162139963Y-111253185D01*
X162227564Y-111384288D01*
X162227567Y-111384292D01*
X162339061Y-111495786D01*
X162339065Y-111495789D01*
X162470168Y-111583390D01*
X162470181Y-111583397D01*
X162574950Y-111626793D01*
X162615857Y-111643737D01*
X162756164Y-111671646D01*
X162770507Y-111674499D01*
X162770510Y-111674500D01*
X162770512Y-111674500D01*
X162928198Y-111674500D01*
X162928199Y-111674499D01*
X163082851Y-111643737D01*
X163228533Y-111583394D01*
X163359643Y-111495789D01*
X163471143Y-111384289D01*
X163558748Y-111253179D01*
X163619091Y-111107497D01*
X163649854Y-110952842D01*
X163649854Y-110245158D01*
X163649854Y-110245156D01*
X163649854Y-110245155D01*
X163649853Y-110245153D01*
X163636279Y-110176912D01*
X163619091Y-110090503D01*
X163558748Y-109944821D01*
X163558745Y-109944816D01*
X163558744Y-109944814D01*
X163527799Y-109898502D01*
X180949353Y-109898502D01*
X180949851Y-109991031D01*
X180954538Y-110099861D01*
X180957813Y-110175920D01*
X180962867Y-110234497D01*
X180973721Y-110360292D01*
X180997549Y-110543823D01*
X181029246Y-110726139D01*
X181068760Y-110906927D01*
X181116014Y-111085847D01*
X181170931Y-111262595D01*
X181233383Y-111436769D01*
X181303293Y-111608149D01*
X181333752Y-111674500D01*
X181380493Y-111776320D01*
X181410021Y-111833965D01*
X181464862Y-111941027D01*
X181502460Y-112007241D01*
X181556241Y-112101954D01*
X181556247Y-112101964D01*
X181556249Y-112101967D01*
X181654457Y-112258800D01*
X181733137Y-112373191D01*
X181759332Y-112411275D01*
X181870668Y-112559097D01*
X181896054Y-112589945D01*
X181988257Y-112701988D01*
X182111898Y-112839702D01*
X182194161Y-112923753D01*
X182241335Y-112971953D01*
X182376347Y-113098520D01*
X182516679Y-113219160D01*
X182662071Y-113333651D01*
X182812254Y-113441781D01*
X182966950Y-113543350D01*
X183125873Y-113638169D01*
X183125885Y-113638176D01*
X183221861Y-113689975D01*
X183288728Y-113726064D01*
X183455214Y-113806870D01*
X183625022Y-113880440D01*
X183797837Y-113946635D01*
X183973341Y-114005335D01*
X184126911Y-114049449D01*
X184151197Y-114056426D01*
X184151200Y-114056426D01*
X184151208Y-114056429D01*
X184331108Y-114099824D01*
X184417419Y-114116751D01*
X184512711Y-114135440D01*
X184568513Y-114143908D01*
X184695673Y-114163208D01*
X184879663Y-114183080D01*
X185064337Y-114195018D01*
X185249354Y-114199000D01*
X185434371Y-114195018D01*
X185619045Y-114183080D01*
X185803035Y-114163208D01*
X185945742Y-114141548D01*
X185985996Y-114135440D01*
X186035888Y-114125655D01*
X186167600Y-114099824D01*
X186347500Y-114056429D01*
X186525367Y-114005335D01*
X186700871Y-113946635D01*
X186873686Y-113880440D01*
X187043494Y-113806870D01*
X187209980Y-113726064D01*
X187372835Y-113638169D01*
X187531758Y-113543350D01*
X187686454Y-113441781D01*
X187836637Y-113333651D01*
X187982029Y-113219160D01*
X188122361Y-113098520D01*
X188257373Y-112971953D01*
X188386815Y-112839696D01*
X188510447Y-112701992D01*
X188628040Y-112559097D01*
X188739376Y-112411275D01*
X188844250Y-112258800D01*
X188942467Y-112101954D01*
X189033845Y-111941028D01*
X189118215Y-111776320D01*
X189195421Y-111608134D01*
X189265319Y-111436783D01*
X189327781Y-111262583D01*
X189382691Y-111085856D01*
X189429946Y-110906932D01*
X189469461Y-110726140D01*
X189501160Y-110543815D01*
X189524986Y-110360295D01*
X189540895Y-110175920D01*
X189548856Y-109991032D01*
X189548856Y-109805972D01*
X189540895Y-109621084D01*
X189524986Y-109436709D01*
X189501160Y-109253189D01*
X189469461Y-109070864D01*
X189429946Y-108890072D01*
X189382691Y-108711148D01*
X189327781Y-108534421D01*
X189265319Y-108360221D01*
X189195421Y-108188870D01*
X189192523Y-108182558D01*
X189152273Y-108094877D01*
X189118215Y-108020684D01*
X189033845Y-107855976D01*
X188942467Y-107695050D01*
X188844874Y-107539200D01*
X188844250Y-107538203D01*
X188739381Y-107385736D01*
X188739376Y-107385729D01*
X188628040Y-107237907D01*
X188517944Y-107104122D01*
X188510450Y-107095015D01*
X188386809Y-106957301D01*
X188257375Y-106825053D01*
X188235728Y-106804760D01*
X188122361Y-106698484D01*
X187982029Y-106577844D01*
X187836637Y-106463353D01*
X187686454Y-106355223D01*
X187531758Y-106253654D01*
X187433913Y-106195276D01*
X187372822Y-106158827D01*
X187209995Y-106070948D01*
X187209993Y-106070947D01*
X187209980Y-106070940D01*
X187043494Y-105990134D01*
X186873686Y-105916564D01*
X186842872Y-105904761D01*
X186700877Y-105850371D01*
X186699130Y-105849786D01*
X186525367Y-105791669D01*
X186480075Y-105778658D01*
X186347510Y-105740577D01*
X186167592Y-105697178D01*
X185985996Y-105661563D01*
X185843292Y-105639905D01*
X185803035Y-105633796D01*
X185698537Y-105622509D01*
X185619049Y-105613924D01*
X185434357Y-105601985D01*
X185249354Y-105598003D01*
X185064350Y-105601985D01*
X184879658Y-105613924D01*
X184780298Y-105624656D01*
X184695673Y-105633796D01*
X184670963Y-105637546D01*
X184512711Y-105661563D01*
X184331115Y-105697178D01*
X184151197Y-105740577D01*
X183974991Y-105791194D01*
X183973341Y-105791669D01*
X183885589Y-105821019D01*
X183797830Y-105850371D01*
X183625021Y-105916564D01*
X183455223Y-105990130D01*
X183455214Y-105990134D01*
X183288728Y-106070940D01*
X183288712Y-106070948D01*
X183125885Y-106158827D01*
X182966954Y-106253651D01*
X182812248Y-106355227D01*
X182662071Y-106463352D01*
X182516683Y-106577840D01*
X182376338Y-106698492D01*
X182241332Y-106825053D01*
X182111898Y-106957301D01*
X181988257Y-107095015D01*
X181870670Y-107237904D01*
X181759326Y-107385736D01*
X181654457Y-107538203D01*
X181556249Y-107695036D01*
X181464862Y-107855976D01*
X181380486Y-108020698D01*
X181303293Y-108188854D01*
X181233383Y-108360234D01*
X181170931Y-108534408D01*
X181116014Y-108711156D01*
X181068760Y-108890076D01*
X181029246Y-109070864D01*
X180997549Y-109253180D01*
X180973721Y-109436711D01*
X180962971Y-109561305D01*
X180958373Y-109614602D01*
X180957813Y-109621087D01*
X180949851Y-109805972D01*
X180949353Y-109898502D01*
X163527799Y-109898502D01*
X163471143Y-109813711D01*
X163471140Y-109813707D01*
X163359646Y-109702213D01*
X163359642Y-109702210D01*
X163228539Y-109614609D01*
X163228526Y-109614602D01*
X163082855Y-109554264D01*
X163082843Y-109554261D01*
X162928199Y-109523500D01*
X162928196Y-109523500D01*
X162770512Y-109523500D01*
X162770509Y-109523500D01*
X162615864Y-109554261D01*
X162615852Y-109554264D01*
X162470181Y-109614602D01*
X162470168Y-109614609D01*
X162339065Y-109702210D01*
X162339061Y-109702213D01*
X162227567Y-109813707D01*
X162227564Y-109813711D01*
X162139963Y-109944814D01*
X162139956Y-109944827D01*
X162079618Y-110090498D01*
X162079615Y-110090510D01*
X162048854Y-110245153D01*
X161649854Y-110245153D01*
X161649854Y-109919730D01*
X161647000Y-109889300D01*
X161647000Y-109889298D01*
X161602147Y-109761119D01*
X161602146Y-109761117D01*
X161602129Y-109761094D01*
X161521504Y-109651850D01*
X161412236Y-109571207D01*
X161412234Y-109571206D01*
X161284054Y-109526353D01*
X161253624Y-109523500D01*
X161253620Y-109523500D01*
X160445088Y-109523500D01*
X160445084Y-109523500D01*
X160414654Y-109526353D01*
X160414652Y-109526353D01*
X160286473Y-109571206D01*
X160286471Y-109571207D01*
X160177204Y-109651850D01*
X160096561Y-109761117D01*
X160096560Y-109761119D01*
X160051707Y-109889298D01*
X160051707Y-109889300D01*
X160048854Y-109919730D01*
X156041983Y-109919730D01*
X155971143Y-109813711D01*
X155971140Y-109813707D01*
X155859646Y-109702213D01*
X155859642Y-109702210D01*
X155728539Y-109614609D01*
X155728526Y-109614602D01*
X155582855Y-109554264D01*
X155582843Y-109554261D01*
X155428199Y-109523500D01*
X155428196Y-109523500D01*
X155270512Y-109523500D01*
X155270509Y-109523500D01*
X155115864Y-109554261D01*
X155115852Y-109554264D01*
X154970182Y-109614602D01*
X154970170Y-109614609D01*
X154964082Y-109618677D01*
X154897404Y-109639552D01*
X154830025Y-109621065D01*
X154807514Y-109603253D01*
X154186819Y-108982558D01*
X154153334Y-108921235D01*
X154150500Y-108894877D01*
X154150500Y-102482387D01*
X154170185Y-102415348D01*
X154212498Y-102375000D01*
X154256668Y-102349500D01*
X154349854Y-102256314D01*
X154415746Y-102142186D01*
X154449854Y-102014892D01*
X154449854Y-101883108D01*
X154415746Y-101755814D01*
X154349854Y-101641686D01*
X154256668Y-101548500D01*
X154199604Y-101515554D01*
X154142541Y-101482608D01*
X154078893Y-101465554D01*
X154015246Y-101448500D01*
X153883462Y-101448500D01*
X153755947Y-101482667D01*
X153686097Y-101481004D01*
X153628235Y-101441841D01*
X153600731Y-101377612D01*
X153599854Y-101362892D01*
X153599854Y-99254122D01*
X153608499Y-99224678D01*
X153615022Y-99194696D01*
X153618776Y-99189680D01*
X153619539Y-99187083D01*
X153636164Y-99166450D01*
X153769473Y-99033140D01*
X153830792Y-98999658D01*
X153875105Y-99000713D01*
X153875405Y-98998439D01*
X153883461Y-98999499D01*
X153883462Y-98999500D01*
X153883463Y-98999500D01*
X154015244Y-98999500D01*
X154015246Y-98999500D01*
X154142540Y-98965392D01*
X154256668Y-98899500D01*
X154349854Y-98806314D01*
X154415746Y-98692186D01*
X154449854Y-98564892D01*
X154449854Y-98433108D01*
X154415746Y-98305814D01*
X154349854Y-98191686D01*
X154256668Y-98098500D01*
X154196786Y-98063927D01*
X154142541Y-98032608D01*
X154048148Y-98007316D01*
X154015246Y-97998500D01*
X153883462Y-97998500D01*
X153756166Y-98032608D01*
X153642040Y-98098500D01*
X153642037Y-98098502D01*
X153548856Y-98191683D01*
X153548854Y-98191686D01*
X153482962Y-98305812D01*
X153448854Y-98433108D01*
X153448854Y-98564890D01*
X153449915Y-98572948D01*
X153446967Y-98573336D01*
X153445636Y-98628973D01*
X153415211Y-98678880D01*
X153362182Y-98731910D01*
X153300859Y-98765396D01*
X153231168Y-98760412D01*
X153175234Y-98718541D01*
X153150816Y-98653077D01*
X153150500Y-98644230D01*
X153150500Y-98204893D01*
X153170185Y-98137854D01*
X153202261Y-98107272D01*
X153200863Y-98105450D01*
X153207307Y-98100503D01*
X153207314Y-98100500D01*
X153300500Y-98007314D01*
X153366392Y-97893186D01*
X153400500Y-97765892D01*
X153400500Y-97634108D01*
X153366392Y-97506814D01*
X153300500Y-97392686D01*
X153207314Y-97299500D01*
X153150250Y-97266554D01*
X153093187Y-97233608D01*
X153029539Y-97216554D01*
X152965892Y-97199500D01*
X152834108Y-97199500D01*
X152706812Y-97233608D01*
X152592686Y-97299500D01*
X152592683Y-97299502D01*
X152587681Y-97304505D01*
X152526358Y-97337990D01*
X152456666Y-97333006D01*
X152412319Y-97304505D01*
X152407316Y-97299502D01*
X152407314Y-97299500D01*
X152350250Y-97266554D01*
X152293187Y-97233608D01*
X152229539Y-97216554D01*
X152165892Y-97199500D01*
X152034108Y-97199500D01*
X151906813Y-97233608D01*
X151854844Y-97263612D01*
X151792686Y-97299500D01*
X151792684Y-97299501D01*
X151792682Y-97299503D01*
X151787675Y-97304510D01*
X151726350Y-97337992D01*
X151656659Y-97333005D01*
X151612317Y-97304506D01*
X151607313Y-97299502D01*
X151607311Y-97299500D01*
X151550247Y-97266554D01*
X151493184Y-97233608D01*
X151429536Y-97216554D01*
X151365889Y-97199500D01*
X151234105Y-97199500D01*
X151106809Y-97233608D01*
X150992683Y-97299500D01*
X150992680Y-97299502D01*
X150899499Y-97392683D01*
X150899497Y-97392686D01*
X150833605Y-97506812D01*
X150799497Y-97634108D01*
X150799497Y-97765891D01*
X150833605Y-97893187D01*
X150866551Y-97950250D01*
X150899497Y-98007314D01*
X150992683Y-98100500D01*
X150992684Y-98100501D01*
X150992686Y-98100502D01*
X151018036Y-98115138D01*
X151066252Y-98165705D01*
X151070597Y-98175072D01*
X151087631Y-98216197D01*
X151973181Y-99101747D01*
X152006666Y-99163070D01*
X152009500Y-99189428D01*
X152009500Y-105484876D01*
X151989815Y-105551915D01*
X151973181Y-105572557D01*
X147921940Y-109623797D01*
X147860617Y-109657282D01*
X147790925Y-109652298D01*
X147765368Y-109639218D01*
X147728538Y-109614609D01*
X147728526Y-109614602D01*
X147582855Y-109554264D01*
X147582843Y-109554261D01*
X147428199Y-109523500D01*
X147428196Y-109523500D01*
X147270512Y-109523500D01*
X147270509Y-109523500D01*
X147115864Y-109554261D01*
X147115852Y-109554264D01*
X146970181Y-109614602D01*
X146970168Y-109614609D01*
X146839065Y-109702210D01*
X146839061Y-109702213D01*
X146727567Y-109813707D01*
X146727564Y-109813711D01*
X146639963Y-109944814D01*
X146639956Y-109944827D01*
X146579618Y-110090498D01*
X146579615Y-110090510D01*
X146548854Y-110245153D01*
X146149853Y-110245153D01*
X146136279Y-110176912D01*
X146119091Y-110090503D01*
X146119089Y-110090498D01*
X146058751Y-109944827D01*
X146058744Y-109944814D01*
X145971143Y-109813711D01*
X145971140Y-109813707D01*
X145859646Y-109702213D01*
X145859642Y-109702210D01*
X145728539Y-109614609D01*
X145728526Y-109614602D01*
X145582855Y-109554264D01*
X145582843Y-109554261D01*
X145428199Y-109523500D01*
X145428196Y-109523500D01*
X145270512Y-109523500D01*
X145270509Y-109523500D01*
X145115864Y-109554261D01*
X145115852Y-109554264D01*
X144970181Y-109614602D01*
X144970168Y-109614609D01*
X144839065Y-109702210D01*
X144839061Y-109702213D01*
X144727567Y-109813707D01*
X144727564Y-109813711D01*
X144639963Y-109944814D01*
X144639956Y-109944827D01*
X144579618Y-110090498D01*
X144579615Y-110090510D01*
X144548854Y-110245153D01*
X142149854Y-110245153D01*
X142149854Y-109919730D01*
X142147000Y-109889300D01*
X142147000Y-109889298D01*
X142102147Y-109761119D01*
X142102146Y-109761117D01*
X142102129Y-109761094D01*
X142021504Y-109651850D01*
X141912236Y-109571207D01*
X141912234Y-109571206D01*
X141784054Y-109526353D01*
X141753624Y-109523500D01*
X141753620Y-109523500D01*
X140945088Y-109523500D01*
X140945084Y-109523500D01*
X140914654Y-109526353D01*
X140914652Y-109526353D01*
X140786473Y-109571206D01*
X140786471Y-109571207D01*
X140677204Y-109651850D01*
X140596561Y-109761117D01*
X140596560Y-109761119D01*
X140551707Y-109889298D01*
X140551707Y-109889300D01*
X140548854Y-109919730D01*
X140548854Y-110024500D01*
X140529169Y-110091539D01*
X140476365Y-110137294D01*
X140424854Y-110148500D01*
X134586966Y-110148500D01*
X134519927Y-110128815D01*
X134499285Y-110112181D01*
X124636173Y-100249069D01*
X124602688Y-100187746D01*
X124599854Y-100161388D01*
X124599854Y-96619716D01*
X124619539Y-96552677D01*
X124672343Y-96506922D01*
X124741501Y-96496978D01*
X124785852Y-96512328D01*
X124896814Y-96576392D01*
X125024108Y-96610500D01*
X125024110Y-96610500D01*
X125155890Y-96610500D01*
X125155892Y-96610500D01*
X125283186Y-96576392D01*
X125397314Y-96510500D01*
X125490500Y-96417314D01*
X125493281Y-96412498D01*
X125543849Y-96364284D01*
X125600667Y-96350500D01*
X151295603Y-96350500D01*
X151362642Y-96370185D01*
X151408397Y-96422989D01*
X151415374Y-96442398D01*
X151432664Y-96506922D01*
X151445462Y-96554687D01*
X151457993Y-96576391D01*
X151511354Y-96668814D01*
X151604540Y-96762000D01*
X151718668Y-96827892D01*
X151845962Y-96862000D01*
X151845964Y-96862000D01*
X151977744Y-96862000D01*
X151977746Y-96862000D01*
X152105040Y-96827892D01*
X152219168Y-96762000D01*
X152312354Y-96668814D01*
X152378246Y-96554686D01*
X152412354Y-96427392D01*
X152412354Y-96295608D01*
X152378246Y-96168314D01*
X152312354Y-96054186D01*
X152220349Y-95962181D01*
X152186864Y-95900858D01*
X152191848Y-95831166D01*
X152233720Y-95775233D01*
X152299184Y-95750816D01*
X152308030Y-95750500D01*
X152994877Y-95750500D01*
X153061916Y-95770185D01*
X153082558Y-95786819D01*
X153363664Y-96067925D01*
X153397149Y-96129248D01*
X153392165Y-96198940D01*
X153383375Y-96217598D01*
X153382964Y-96218309D01*
X153382963Y-96218312D01*
X153382962Y-96218314D01*
X153348854Y-96345608D01*
X153348854Y-96477392D01*
X153357725Y-96510499D01*
X153382962Y-96604687D01*
X153415908Y-96661750D01*
X153448854Y-96718814D01*
X153542040Y-96812000D01*
X153656168Y-96877892D01*
X153783462Y-96912000D01*
X153783464Y-96912000D01*
X153915244Y-96912000D01*
X153915246Y-96912000D01*
X154042540Y-96877892D01*
X154156668Y-96812000D01*
X154249854Y-96718814D01*
X154315746Y-96604686D01*
X154349854Y-96477392D01*
X154349854Y-96345608D01*
X154315746Y-96218314D01*
X154249854Y-96104186D01*
X154156668Y-96011000D01*
X154042540Y-95945108D01*
X153947356Y-95919603D01*
X153891770Y-95887510D01*
X153291897Y-95287636D01*
X153199829Y-95249500D01*
X153199828Y-95249500D01*
X149856123Y-95249500D01*
X149789084Y-95229815D01*
X149768442Y-95213181D01*
X139729159Y-85173898D01*
X139695674Y-85112575D01*
X139694102Y-85068573D01*
X139705500Y-84989303D01*
X139705500Y-79790917D01*
X180949585Y-79790917D01*
X180950083Y-79883446D01*
X180956830Y-80040130D01*
X180958045Y-80068335D01*
X180963099Y-80126912D01*
X180973953Y-80252707D01*
X180997781Y-80436238D01*
X181029478Y-80618554D01*
X181068992Y-80799342D01*
X181116246Y-80978262D01*
X181171163Y-81155010D01*
X181233615Y-81329184D01*
X181303525Y-81500564D01*
X181307236Y-81508647D01*
X181380725Y-81668735D01*
X181429959Y-81764850D01*
X181465094Y-81833442D01*
X181502692Y-81899656D01*
X181556473Y-81994369D01*
X181556479Y-81994379D01*
X181556481Y-81994382D01*
X181654689Y-82151215D01*
X181759558Y-82303682D01*
X181759564Y-82303690D01*
X181870900Y-82451512D01*
X181910097Y-82499143D01*
X181988489Y-82594403D01*
X182112130Y-82732117D01*
X182241564Y-82864365D01*
X182241567Y-82864368D01*
X182376579Y-82990935D01*
X182516911Y-83111575D01*
X182662303Y-83226066D01*
X182812486Y-83334196D01*
X182967182Y-83435765D01*
X183126105Y-83530584D01*
X183126117Y-83530591D01*
X183141081Y-83538667D01*
X183288960Y-83618479D01*
X183455446Y-83699285D01*
X183625254Y-83772855D01*
X183798069Y-83839050D01*
X183973573Y-83897750D01*
X184127143Y-83941864D01*
X184151429Y-83948841D01*
X184151432Y-83948841D01*
X184151440Y-83948844D01*
X184331340Y-83992239D01*
X184417651Y-84009166D01*
X184512943Y-84027855D01*
X184566197Y-84035937D01*
X184695905Y-84055623D01*
X184879895Y-84075495D01*
X185064569Y-84087433D01*
X185249586Y-84091415D01*
X185434603Y-84087433D01*
X185619277Y-84075495D01*
X185803267Y-84055623D01*
X185945974Y-84033963D01*
X185986228Y-84027855D01*
X186036120Y-84018070D01*
X186167832Y-83992239D01*
X186347732Y-83948844D01*
X186525599Y-83897750D01*
X186701103Y-83839050D01*
X186873918Y-83772855D01*
X187043726Y-83699285D01*
X187210212Y-83618479D01*
X187373067Y-83530584D01*
X187531990Y-83435765D01*
X187686686Y-83334196D01*
X187836869Y-83226066D01*
X187982261Y-83111575D01*
X188122593Y-82990935D01*
X188257605Y-82864368D01*
X188387047Y-82732111D01*
X188510679Y-82594407D01*
X188628272Y-82451512D01*
X188739608Y-82303690D01*
X188844482Y-82151215D01*
X188942699Y-81994369D01*
X189034077Y-81833443D01*
X189118447Y-81668735D01*
X189195653Y-81500549D01*
X189265551Y-81329198D01*
X189328013Y-81154998D01*
X189382923Y-80978271D01*
X189430178Y-80799347D01*
X189469693Y-80618555D01*
X189501392Y-80436230D01*
X189525218Y-80252710D01*
X189541127Y-80068335D01*
X189549088Y-79883447D01*
X189549088Y-79698387D01*
X189541127Y-79513499D01*
X189525218Y-79329124D01*
X189501392Y-79145604D01*
X189469693Y-78963279D01*
X189430178Y-78782487D01*
X189382923Y-78603563D01*
X189328013Y-78426836D01*
X189268454Y-78260732D01*
X189265556Y-78252649D01*
X189261708Y-78243216D01*
X189195653Y-78081285D01*
X189175223Y-78036781D01*
X189122164Y-77921196D01*
X189118447Y-77913099D01*
X189034077Y-77748391D01*
X188942699Y-77587465D01*
X188890456Y-77504036D01*
X188844482Y-77430618D01*
X188739613Y-77278151D01*
X188739608Y-77278144D01*
X188628272Y-77130322D01*
X188517497Y-76995712D01*
X188510682Y-76987430D01*
X188387041Y-76849716D01*
X188257607Y-76717468D01*
X188226141Y-76687970D01*
X188122593Y-76590899D01*
X187982261Y-76470259D01*
X187847134Y-76363851D01*
X187836868Y-76355767D01*
X187720888Y-76272263D01*
X187686686Y-76247638D01*
X187531990Y-76146069D01*
X187386615Y-76059333D01*
X187373054Y-76051242D01*
X187210227Y-75963363D01*
X187210225Y-75963362D01*
X187210212Y-75963355D01*
X187043726Y-75882549D01*
X186873918Y-75808979D01*
X186701109Y-75742786D01*
X186699362Y-75742201D01*
X186525599Y-75684084D01*
X186480307Y-75671073D01*
X186347742Y-75632992D01*
X186167824Y-75589593D01*
X185986228Y-75553978D01*
X185843524Y-75532320D01*
X185803267Y-75526211D01*
X185694116Y-75514422D01*
X185619281Y-75506339D01*
X185434589Y-75494400D01*
X185249586Y-75490418D01*
X185064582Y-75494400D01*
X184879890Y-75506339D01*
X184780530Y-75517071D01*
X184695905Y-75526211D01*
X184671195Y-75529961D01*
X184512943Y-75553978D01*
X184331347Y-75589593D01*
X184151429Y-75632992D01*
X183975223Y-75683609D01*
X183973573Y-75684084D01*
X183885821Y-75713434D01*
X183798062Y-75742786D01*
X183625253Y-75808979D01*
X183455455Y-75882545D01*
X183455446Y-75882549D01*
X183388041Y-75915265D01*
X183288944Y-75963363D01*
X183126117Y-76051242D01*
X182967186Y-76146066D01*
X182812480Y-76247642D01*
X182662303Y-76355767D01*
X182516915Y-76470255D01*
X182376570Y-76590907D01*
X182241564Y-76717468D01*
X182112130Y-76849716D01*
X181988489Y-76987430D01*
X181870902Y-77130319D01*
X181759558Y-77278151D01*
X181654689Y-77430618D01*
X181556481Y-77587451D01*
X181465094Y-77748391D01*
X181380718Y-77913113D01*
X181303525Y-78081269D01*
X181233615Y-78252649D01*
X181171163Y-78426823D01*
X181116246Y-78603571D01*
X181068992Y-78782491D01*
X181029478Y-78963279D01*
X180997781Y-79145595D01*
X180973953Y-79329126D01*
X180958045Y-79513502D01*
X180950083Y-79698387D01*
X180949585Y-79790917D01*
X139705500Y-79790917D01*
X139705500Y-75337303D01*
X139705441Y-75336756D01*
X139705463Y-75336633D01*
X139705322Y-75333997D01*
X139705500Y-75333987D01*
X139705500Y-75333982D01*
X139705601Y-75333982D01*
X139705945Y-75333963D01*
X139717845Y-75267998D01*
X139765454Y-75216860D01*
X139828730Y-75199500D01*
X185246649Y-75199500D01*
X185252057Y-75199618D01*
X185609944Y-75215240D01*
X185615933Y-75215648D01*
X185694769Y-75222953D01*
X185699424Y-75223475D01*
X186014623Y-75264968D01*
X186021151Y-75266007D01*
X186094027Y-75279629D01*
X186097947Y-75280430D01*
X186414141Y-75350525D01*
X186421199Y-75352309D01*
X186483267Y-75369969D01*
X186486595Y-75370968D01*
X186540026Y-75387814D01*
X186805180Y-75471414D01*
X186812611Y-75474022D01*
X186857696Y-75491488D01*
X186860151Y-75492472D01*
X187184342Y-75626752D01*
X187192150Y-75630308D01*
X187210351Y-75639371D01*
X187212215Y-75640320D01*
X187311810Y-75692165D01*
X187544325Y-75813204D01*
X187553692Y-75818612D01*
X187882974Y-76028384D01*
X187891836Y-76034589D01*
X187988763Y-76108963D01*
X188180024Y-76255721D01*
X188201583Y-76272263D01*
X188209866Y-76279212D01*
X188427175Y-76478338D01*
X188497729Y-76542988D01*
X188505378Y-76550637D01*
X188769154Y-76838495D01*
X188776104Y-76846778D01*
X188890386Y-76995712D01*
X189013785Y-77156527D01*
X189019990Y-77165389D01*
X189229765Y-77494668D01*
X189235174Y-77504036D01*
X189408050Y-77836127D01*
X189409060Y-77838109D01*
X189418056Y-77856174D01*
X189421618Y-77863996D01*
X189555866Y-78188096D01*
X189556931Y-78190754D01*
X189574347Y-78235709D01*
X189576982Y-78243216D01*
X189677418Y-78561755D01*
X189678424Y-78565111D01*
X189696070Y-78627134D01*
X189697864Y-78634227D01*
X189767950Y-78950359D01*
X189768778Y-78954413D01*
X189782376Y-79027155D01*
X189783426Y-79033755D01*
X189824913Y-79348883D01*
X189825445Y-79353627D01*
X189832745Y-79432407D01*
X189833156Y-79438439D01*
X189848736Y-79795252D01*
X189848854Y-79800661D01*
X189848854Y-88634095D01*
X189829169Y-88701134D01*
X189776365Y-88746889D01*
X189707207Y-88756833D01*
X189643651Y-88727808D01*
X189605877Y-88669030D01*
X189605091Y-88666235D01*
X189545647Y-88444384D01*
X189411235Y-88075092D01*
X189411230Y-88075083D01*
X189411229Y-88075078D01*
X189245158Y-87718937D01*
X189245146Y-87718913D01*
X189232809Y-87697546D01*
X189048654Y-87378579D01*
X188823243Y-87056659D01*
X188823242Y-87056658D01*
X188823238Y-87056652D01*
X188570629Y-86755606D01*
X188292747Y-86477724D01*
X187991701Y-86225115D01*
X187669781Y-85999704D01*
X187669778Y-85999702D01*
X187669775Y-85999700D01*
X187568659Y-85941320D01*
X187329440Y-85803207D01*
X187329416Y-85803195D01*
X186973275Y-85637124D01*
X186973264Y-85637120D01*
X186973262Y-85637119D01*
X186603970Y-85502707D01*
X186312632Y-85424643D01*
X186224370Y-85400993D01*
X186224359Y-85400991D01*
X185837351Y-85332751D01*
X185445854Y-85298500D01*
X185445850Y-85298500D01*
X185052858Y-85298500D01*
X185052853Y-85298500D01*
X184661358Y-85332751D01*
X184661354Y-85332751D01*
X184274348Y-85400991D01*
X184274337Y-85400993D01*
X184070909Y-85455502D01*
X183894738Y-85502707D01*
X183894735Y-85502708D01*
X183894734Y-85502708D01*
X183525432Y-85637124D01*
X183169291Y-85803195D01*
X183169267Y-85803207D01*
X182828941Y-85999695D01*
X182828926Y-85999704D01*
X182507006Y-86225115D01*
X182205960Y-86477724D01*
X181928078Y-86755606D01*
X181675469Y-87056652D01*
X181450058Y-87378572D01*
X181450049Y-87378587D01*
X181253561Y-87718913D01*
X181253549Y-87718937D01*
X181087478Y-88075078D01*
X180957634Y-88431821D01*
X180953061Y-88444384D01*
X180914242Y-88589258D01*
X180851347Y-88823983D01*
X180851345Y-88823994D01*
X180783105Y-89211000D01*
X180783105Y-89211004D01*
X180748854Y-89602499D01*
X180748854Y-89995500D01*
X180783105Y-90386995D01*
X180783105Y-90386999D01*
X180829235Y-90648611D01*
X180851347Y-90774015D01*
X180953061Y-91153616D01*
X180953062Y-91153618D01*
X180953062Y-91153619D01*
X181087478Y-91522921D01*
X181253549Y-91879062D01*
X181253561Y-91879086D01*
X181450049Y-92219412D01*
X181450058Y-92219427D01*
X181675469Y-92541347D01*
X181868147Y-92770971D01*
X181928076Y-92842391D01*
X182205963Y-93120278D01*
X182313092Y-93210170D01*
X182507006Y-93372884D01*
X182507012Y-93372888D01*
X182507013Y-93372889D01*
X182828933Y-93598300D01*
X183169274Y-93794796D01*
X183169288Y-93794802D01*
X183169291Y-93794804D01*
X183525432Y-93960875D01*
X183525437Y-93960876D01*
X183525446Y-93960881D01*
X183894738Y-94095293D01*
X184274339Y-94197007D01*
X184661361Y-94265249D01*
X185052856Y-94299499D01*
X185052857Y-94299500D01*
X185052858Y-94299500D01*
X185445851Y-94299500D01*
X185445851Y-94299499D01*
X185837347Y-94265249D01*
X186224369Y-94197007D01*
X186603970Y-94095293D01*
X186973262Y-93960881D01*
X187329434Y-93794796D01*
X187669775Y-93598300D01*
X187991695Y-93372889D01*
X188292745Y-93120278D01*
X188570632Y-92842391D01*
X188823243Y-92541341D01*
X189048654Y-92219421D01*
X189245150Y-91879080D01*
X189411235Y-91522908D01*
X189545647Y-91153616D01*
X189605080Y-90931807D01*
X189641444Y-90872150D01*
X189704291Y-90841621D01*
X189773667Y-90849916D01*
X189827545Y-90894401D01*
X189848819Y-90960953D01*
X189848854Y-90963904D01*
X189848854Y-109896293D01*
X189848736Y-109901702D01*
X189833110Y-110259555D01*
X189832699Y-110265587D01*
X189825399Y-110344369D01*
X189824867Y-110349113D01*
X189783382Y-110664222D01*
X189782332Y-110670822D01*
X189768729Y-110743593D01*
X189767901Y-110747647D01*
X189697815Y-111063781D01*
X189696020Y-111070877D01*
X189678393Y-111132827D01*
X189677388Y-111136179D01*
X189576935Y-111454776D01*
X189574301Y-111462282D01*
X189556895Y-111507213D01*
X189555829Y-111509873D01*
X189421585Y-111833965D01*
X189418023Y-111841785D01*
X189408990Y-111859925D01*
X189407980Y-111861909D01*
X189235134Y-112193940D01*
X189229725Y-112203308D01*
X189019957Y-112532576D01*
X189013753Y-112541438D01*
X188776067Y-112851194D01*
X188769113Y-112859481D01*
X188505346Y-113147329D01*
X188497697Y-113154978D01*
X188209840Y-113418748D01*
X188201553Y-113425701D01*
X187891809Y-113663372D01*
X187882947Y-113669577D01*
X187553669Y-113879347D01*
X187544301Y-113884756D01*
X187212215Y-114057627D01*
X187210227Y-114058639D01*
X187192143Y-114067643D01*
X187184327Y-114071203D01*
X186860251Y-114205436D01*
X186857592Y-114206501D01*
X186812625Y-114223921D01*
X186805119Y-114226555D01*
X186486572Y-114326990D01*
X186483217Y-114327996D01*
X186421222Y-114345634D01*
X186414128Y-114347428D01*
X186098000Y-114417510D01*
X186093944Y-114418338D01*
X186021175Y-114431939D01*
X186014577Y-114432989D01*
X185699468Y-114474471D01*
X185694724Y-114475003D01*
X185615948Y-114482302D01*
X185609916Y-114482713D01*
X185250903Y-114498386D01*
X185245650Y-114498504D01*
X105252131Y-114598495D01*
X105246566Y-114598377D01*
X104882664Y-114582485D01*
X104876633Y-114582074D01*
X104792023Y-114574234D01*
X104787277Y-114573702D01*
X104469003Y-114531797D01*
X104462403Y-114530746D01*
X104383835Y-114516058D01*
X104379783Y-114515231D01*
X104060620Y-114444472D01*
X104053523Y-114442677D01*
X103985726Y-114423386D01*
X103982373Y-114422381D01*
X103660945Y-114321032D01*
X103653441Y-114318398D01*
X103631778Y-114310006D01*
X103602718Y-114298748D01*
X103600090Y-114297695D01*
X103273365Y-114162358D01*
X103265546Y-114158797D01*
X103241592Y-114146869D01*
X103239608Y-114145858D01*
X102904427Y-113971372D01*
X102895058Y-113965963D01*
X102866278Y-113947628D01*
X102558417Y-113751495D01*
X102549557Y-113745291D01*
X102411262Y-113639172D01*
X102232895Y-113502305D01*
X102224612Y-113495355D01*
X102167228Y-113442772D01*
X101930326Y-113225689D01*
X101922677Y-113218040D01*
X101814071Y-113099516D01*
X101653011Y-112923749D01*
X101646062Y-112915466D01*
X101587922Y-112839696D01*
X101403083Y-112598806D01*
X101396878Y-112589945D01*
X101182411Y-112253297D01*
X101177003Y-112243929D01*
X101103621Y-112102963D01*
X101002520Y-111908748D01*
X101001530Y-111906803D01*
X100989562Y-111882767D01*
X100986027Y-111875007D01*
X100850655Y-111548187D01*
X100849714Y-111545841D01*
X100829966Y-111494863D01*
X100827345Y-111487393D01*
X100822528Y-111472116D01*
X100725992Y-111165941D01*
X100724992Y-111162602D01*
X100717474Y-111136179D01*
X100705713Y-111094843D01*
X100703921Y-111087759D01*
X100703718Y-111086843D01*
X100633151Y-110768536D01*
X100632332Y-110764520D01*
X100625157Y-110726139D01*
X100617639Y-110685924D01*
X100616601Y-110679402D01*
X100574679Y-110360967D01*
X100574164Y-110356380D01*
X100566320Y-110271729D01*
X100565912Y-110265733D01*
X100560726Y-110146955D01*
X100560610Y-110141332D01*
X100561221Y-109899498D01*
X100949353Y-109899498D01*
X100949851Y-109992027D01*
X100957813Y-110176912D01*
X100973721Y-110361288D01*
X100997549Y-110544819D01*
X101029246Y-110727135D01*
X101068760Y-110907923D01*
X101116014Y-111086843D01*
X101122433Y-111107501D01*
X101170621Y-111262595D01*
X101170931Y-111263591D01*
X101233383Y-111437765D01*
X101303293Y-111609145D01*
X101333295Y-111674500D01*
X101380493Y-111777316D01*
X101422809Y-111859925D01*
X101464352Y-111941028D01*
X101464863Y-111942024D01*
X101556241Y-112102950D01*
X101556247Y-112102960D01*
X101556249Y-112102963D01*
X101654457Y-112259796D01*
X101759326Y-112412263D01*
X101759332Y-112412271D01*
X101869919Y-112559099D01*
X101870670Y-112560095D01*
X101988257Y-112702984D01*
X102111898Y-112840698D01*
X102185075Y-112915466D01*
X102241335Y-112972949D01*
X102376347Y-113099516D01*
X102516679Y-113220156D01*
X102662071Y-113334647D01*
X102812254Y-113442777D01*
X102966950Y-113544346D01*
X103125873Y-113639165D01*
X103125885Y-113639172D01*
X103182221Y-113669577D01*
X103288728Y-113727060D01*
X103455214Y-113807866D01*
X103625022Y-113881436D01*
X103797837Y-113947631D01*
X103973341Y-114006331D01*
X104126911Y-114050445D01*
X104151197Y-114057422D01*
X104151200Y-114057422D01*
X104151208Y-114057425D01*
X104331108Y-114100820D01*
X104417419Y-114117747D01*
X104512711Y-114136436D01*
X104568513Y-114144904D01*
X104695673Y-114164204D01*
X104879663Y-114184076D01*
X105064337Y-114196014D01*
X105249354Y-114199996D01*
X105434371Y-114196014D01*
X105619045Y-114184076D01*
X105803035Y-114164204D01*
X105945742Y-114142544D01*
X105985996Y-114136436D01*
X106035888Y-114126651D01*
X106167600Y-114100820D01*
X106347500Y-114057425D01*
X106525367Y-114006331D01*
X106700871Y-113947631D01*
X106873686Y-113881436D01*
X107043494Y-113807866D01*
X107209980Y-113727060D01*
X107372835Y-113639165D01*
X107531758Y-113544346D01*
X107686454Y-113442777D01*
X107836637Y-113334647D01*
X107982029Y-113220156D01*
X108122361Y-113099516D01*
X108257373Y-112972949D01*
X108386815Y-112840692D01*
X108510447Y-112702988D01*
X108628040Y-112560093D01*
X108739376Y-112412271D01*
X108844250Y-112259796D01*
X108942467Y-112102950D01*
X109033845Y-111942024D01*
X109118215Y-111777316D01*
X109195421Y-111609130D01*
X109265319Y-111437779D01*
X109327781Y-111263579D01*
X109382691Y-111086852D01*
X109429946Y-110907928D01*
X109469461Y-110727136D01*
X109501160Y-110544811D01*
X109524986Y-110361291D01*
X109540895Y-110176916D01*
X109548856Y-109992028D01*
X109548856Y-109806968D01*
X109540895Y-109622080D01*
X109524986Y-109437705D01*
X109501160Y-109254185D01*
X109469461Y-109071860D01*
X109442005Y-108946239D01*
X109429947Y-108891072D01*
X109382693Y-108712152D01*
X109382384Y-108711156D01*
X109327781Y-108535417D01*
X109265319Y-108361217D01*
X109195421Y-108189866D01*
X109194956Y-108188854D01*
X109118221Y-108021694D01*
X109118215Y-108021680D01*
X109033845Y-107856972D01*
X108942467Y-107696046D01*
X108915809Y-107653475D01*
X108844250Y-107539199D01*
X108739381Y-107386732D01*
X108738626Y-107385729D01*
X108628040Y-107238903D01*
X108569243Y-107167455D01*
X108510450Y-107096011D01*
X108386809Y-106958297D01*
X108257375Y-106826049D01*
X108256313Y-106825053D01*
X108122361Y-106699480D01*
X107982029Y-106578840D01*
X107836637Y-106464349D01*
X107835252Y-106463352D01*
X107742038Y-106396239D01*
X107686454Y-106356219D01*
X107531758Y-106254650D01*
X107372835Y-106159831D01*
X107372822Y-106159823D01*
X107209995Y-106071944D01*
X107209993Y-106071943D01*
X107209980Y-106071936D01*
X107043494Y-105991130D01*
X106873686Y-105917560D01*
X106840272Y-105904761D01*
X106700877Y-105851367D01*
X106697893Y-105850369D01*
X106525367Y-105792665D01*
X106480075Y-105779654D01*
X106347510Y-105741573D01*
X106167592Y-105698174D01*
X105985996Y-105662559D01*
X105843292Y-105640901D01*
X105803035Y-105634792D01*
X105698537Y-105623505D01*
X105619049Y-105614920D01*
X105434357Y-105602981D01*
X105249354Y-105598999D01*
X105064350Y-105602981D01*
X104879658Y-105614920D01*
X104780298Y-105625652D01*
X104695673Y-105634792D01*
X104670963Y-105638542D01*
X104512711Y-105662559D01*
X104331115Y-105698174D01*
X104151197Y-105741573D01*
X103976815Y-105791667D01*
X103973341Y-105792665D01*
X103885589Y-105822015D01*
X103797830Y-105851367D01*
X103625021Y-105917560D01*
X103457522Y-105990130D01*
X103455214Y-105991130D01*
X103290764Y-106070948D01*
X103288712Y-106071944D01*
X103125885Y-106159823D01*
X102966954Y-106254647D01*
X102812248Y-106356223D01*
X102662071Y-106464348D01*
X102516683Y-106578836D01*
X102421107Y-106661000D01*
X102377497Y-106698492D01*
X102376338Y-106699488D01*
X102241332Y-106826049D01*
X102111898Y-106958297D01*
X101988257Y-107096011D01*
X101870670Y-107238900D01*
X101759326Y-107386732D01*
X101654457Y-107539199D01*
X101556249Y-107696032D01*
X101464862Y-107856972D01*
X101380486Y-108021694D01*
X101303293Y-108189850D01*
X101233383Y-108361230D01*
X101170931Y-108535404D01*
X101116014Y-108712152D01*
X101068760Y-108891072D01*
X101029246Y-109071860D01*
X100997549Y-109254176D01*
X100973721Y-109437707D01*
X100963106Y-109560732D01*
X100958383Y-109615480D01*
X100957813Y-109622083D01*
X100949851Y-109806968D01*
X100949353Y-109899498D01*
X100561221Y-109899498D01*
X100584256Y-100777274D01*
X100604110Y-100710288D01*
X100657030Y-100664667D01*
X100726213Y-100654898D01*
X100789695Y-100684083D01*
X100827321Y-100742957D01*
X100830371Y-100756058D01*
X100851347Y-100875015D01*
X100953061Y-101254616D01*
X101060027Y-101548502D01*
X101087478Y-101623921D01*
X101253549Y-101980062D01*
X101253561Y-101980086D01*
X101450049Y-102320412D01*
X101450058Y-102320427D01*
X101675469Y-102642347D01*
X101868147Y-102871971D01*
X101928076Y-102943391D01*
X102205963Y-103221278D01*
X102313092Y-103311170D01*
X102507006Y-103473884D01*
X102507012Y-103473888D01*
X102507013Y-103473889D01*
X102828933Y-103699300D01*
X103169274Y-103895796D01*
X103169288Y-103895802D01*
X103169291Y-103895804D01*
X103525432Y-104061875D01*
X103525437Y-104061876D01*
X103525446Y-104061881D01*
X103894738Y-104196293D01*
X104274339Y-104298007D01*
X104661361Y-104366249D01*
X105052856Y-104400499D01*
X105052857Y-104400500D01*
X105052858Y-104400500D01*
X105445851Y-104400500D01*
X105445851Y-104400499D01*
X105837347Y-104366249D01*
X106224369Y-104298007D01*
X106603970Y-104196293D01*
X106973262Y-104061881D01*
X107329434Y-103895796D01*
X107669775Y-103699300D01*
X107991695Y-103473889D01*
X108292745Y-103221278D01*
X108570632Y-102943391D01*
X108823243Y-102642341D01*
X109048654Y-102320421D01*
X109245150Y-101980080D01*
X109411235Y-101623908D01*
X109545647Y-101254616D01*
X109647361Y-100875015D01*
X109715603Y-100487993D01*
X109749854Y-100096496D01*
X109749854Y-99703504D01*
X109715603Y-99312007D01*
X109647361Y-98924985D01*
X109545647Y-98545384D01*
X109411235Y-98176092D01*
X109411230Y-98176083D01*
X109411229Y-98176078D01*
X109245158Y-97819937D01*
X109245146Y-97819913D01*
X109213956Y-97765890D01*
X109048654Y-97479579D01*
X108823243Y-97157659D01*
X108823242Y-97157658D01*
X108823238Y-97157652D01*
X108660524Y-96963738D01*
X108570632Y-96856609D01*
X108292745Y-96578722D01*
X108171985Y-96477392D01*
X107991701Y-96326115D01*
X107669781Y-96100704D01*
X107669778Y-96100702D01*
X107669775Y-96100700D01*
X107504823Y-96005465D01*
X107329440Y-95904207D01*
X107329416Y-95904195D01*
X106973275Y-95738124D01*
X106973264Y-95738120D01*
X106973262Y-95738119D01*
X106603970Y-95603707D01*
X106363314Y-95539223D01*
X106224370Y-95501993D01*
X106224359Y-95501991D01*
X105837351Y-95433751D01*
X105445854Y-95399500D01*
X105445850Y-95399500D01*
X105052858Y-95399500D01*
X105052853Y-95399500D01*
X104661358Y-95433751D01*
X104661354Y-95433751D01*
X104274348Y-95501991D01*
X104274337Y-95501993D01*
X104070909Y-95556502D01*
X103894738Y-95603707D01*
X103894735Y-95603708D01*
X103894734Y-95603708D01*
X103525432Y-95738124D01*
X103169291Y-95904195D01*
X103169267Y-95904207D01*
X102828941Y-96100695D01*
X102828926Y-96100704D01*
X102507006Y-96326115D01*
X102205960Y-96578724D01*
X101928078Y-96856606D01*
X101675469Y-97157652D01*
X101450058Y-97479572D01*
X101450049Y-97479587D01*
X101253561Y-97819913D01*
X101253549Y-97819937D01*
X101087478Y-98176078D01*
X100993926Y-98433110D01*
X100953061Y-98545384D01*
X100913725Y-98692187D01*
X100851347Y-98924983D01*
X100851346Y-98924990D01*
X100834868Y-99018439D01*
X100803841Y-99081042D01*
X100743893Y-99116932D01*
X100674059Y-99114715D01*
X100616509Y-99075094D01*
X100589516Y-99010649D01*
X100588753Y-98996621D01*
X100597240Y-95636117D01*
X100597249Y-95636117D01*
X100597240Y-95636027D01*
X100597240Y-95635642D01*
X100649687Y-79849214D01*
X100649855Y-79801273D01*
X100649864Y-79801242D01*
X100649972Y-79796297D01*
X100651040Y-79771826D01*
X100665531Y-79439920D01*
X100665937Y-79433956D01*
X100673562Y-79351670D01*
X100674081Y-79347042D01*
X100715153Y-79035070D01*
X100716191Y-79028548D01*
X100730468Y-78952170D01*
X100731258Y-78948305D01*
X100800632Y-78635375D01*
X100802396Y-78628402D01*
X100821119Y-78562597D01*
X100822095Y-78559340D01*
X100921437Y-78244267D01*
X100924036Y-78236860D01*
X100943071Y-78187723D01*
X100944083Y-78185201D01*
X101076725Y-77864972D01*
X101080265Y-77857199D01*
X101091613Y-77834410D01*
X101092578Y-77832513D01*
X101263572Y-77504035D01*
X101268974Y-77494680D01*
X101268982Y-77494668D01*
X101478762Y-77165373D01*
X101484944Y-77156545D01*
X101722634Y-76846778D01*
X101729584Y-76838496D01*
X101729585Y-76838495D01*
X101993367Y-76550625D01*
X102000994Y-76542998D01*
X102288878Y-76279198D01*
X102297130Y-76272274D01*
X102606902Y-76034575D01*
X102615733Y-76028392D01*
X102945044Y-75818594D01*
X102954385Y-75813200D01*
X103283110Y-75642074D01*
X103284686Y-75641272D01*
X103307561Y-75629881D01*
X103315278Y-75626366D01*
X103635710Y-75493636D01*
X103638107Y-75492676D01*
X103687191Y-75473661D01*
X103694601Y-75471059D01*
X104009753Y-75371690D01*
X104012957Y-75370729D01*
X104078756Y-75352007D01*
X104085740Y-75350242D01*
X104398615Y-75280876D01*
X104402533Y-75280075D01*
X104478867Y-75265805D01*
X104485457Y-75264756D01*
X104797390Y-75223686D01*
X104802030Y-75223166D01*
X104884285Y-75215543D01*
X104890305Y-75215133D01*
X105245585Y-75199618D01*
X105250995Y-75199500D01*
X109671210Y-75199500D01*
X109738249Y-75219185D01*
G37*
%TD.AperFunction*%
%TD*%
M02*
